<svg width="91" height="33" viewBox="0 0 91 33" fill="none" xmlns="http://www.w3.org/2000/svg">
<path d="M5.62321 10.764V27.7158H15.2419C16.0038 27.7158 16.5752 27.9062 16.9561 28.2872C17.337 28.6681 17.5275 29.1443 17.5275 29.7157C17.5275 30.2871 17.337 30.7633 16.9561 31.1442C16.5752 31.5251 16.0038 31.7156 15.1467 31.7156H3.81376C2.76618 31.7156 2.00431 31.5251 1.62337 31.049C1.1472 30.5728 0.956726 29.8109 0.956726 28.8586V10.764C0.956726 9.81169 1.1472 9.04982 1.62337 8.57365C2.09954 8.09747 2.57571 7.81177 3.33759 7.81177C4.00423 7.81177 4.67087 8.00224 5.0518 8.47841C5.43274 9.14505 5.62321 9.81169 5.62321 10.764Z" fill="#FFD834"/>
<path d="M29.7175 29.6206C28.67 30.3824 27.6224 31.0491 26.67 31.43C25.7177 31.811 24.5749 32.0014 23.3368 32.0014C22.194 32.0014 21.2417 31.811 20.3846 31.3348C19.5275 30.8586 18.8608 30.2872 18.4799 29.5253C18.0037 28.7635 17.8132 28.0016 17.8132 27.0492C17.8132 25.9064 18.1942 24.8588 18.956 24.0017C19.7179 23.1446 20.7655 22.5732 22.0988 22.2875C22.3845 22.1923 23.0511 22.097 24.1939 21.8113C25.2415 21.6209 26.1939 21.4304 26.9557 21.2399C27.7176 21.0495 28.5747 20.859 29.5271 20.5733C29.4318 19.4305 29.2414 18.5734 28.8604 18.0972C28.4795 17.5258 27.6224 17.3353 26.2891 17.3353C25.1463 17.3353 24.3844 17.5258 23.813 17.8115C23.2416 18.0972 22.7654 18.5734 22.3845 19.24C22.0035 19.8114 21.7178 20.2876 21.5274 20.4781C21.3369 20.6685 21.0512 20.7638 20.4798 20.7638C20.0036 20.7638 19.5275 20.5733 19.2417 20.2876C18.8608 20.0019 18.6703 19.621 18.6703 19.0495C18.6703 18.2877 18.956 17.5258 19.5275 16.8591C20.0989 16.0973 20.956 15.5259 22.0988 15.0497C23.2416 14.5735 24.6701 14.3831 26.3843 14.3831C28.289 14.3831 29.8128 14.5735 30.8603 15.0497C31.9079 15.5259 32.765 16.1925 33.146 17.1449C33.6221 18.0972 33.8126 19.4305 33.8126 21.0495C33.8126 22.097 33.8126 22.9542 33.8126 23.6208C33.8126 24.2874 33.8126 25.1445 33.8126 26.0017C33.8126 26.8588 33.9078 27.7159 34.1936 28.573C34.4793 29.4301 34.5745 30.0015 34.5745 30.2872C34.5745 30.7634 34.384 31.1443 33.9078 31.5253C33.4317 31.9062 32.9555 32.0014 32.3841 32.0014C31.9079 32.0014 31.527 31.811 31.0508 31.3348C30.6699 30.9538 30.1937 30.3824 29.7175 29.6206ZM29.4318 23.3351C28.7652 23.5256 27.9081 23.8113 26.67 24.097C25.432 24.3827 24.5749 24.5731 24.1939 24.6684C23.7178 24.7636 23.2416 25.0493 22.8607 25.4302C22.4797 25.8112 22.194 26.2874 22.194 26.954C22.194 27.6206 22.4797 28.192 22.9559 28.6682C23.4321 29.1444 24.0987 29.3349 24.9558 29.3349C25.8129 29.3349 26.5748 29.1444 27.3367 28.7635C28.0985 28.3825 28.5747 27.9063 28.9557 27.3349C29.3366 26.6683 29.5271 25.6207 29.5271 24.097V23.3351H29.4318Z" fill="#FFD834"/>
<path d="M40.0028 10.3833V17.0497C40.8599 16.1926 41.6218 15.526 42.4789 15.145C43.336 14.6689 44.3836 14.4784 45.6216 14.4784C47.0501 14.4784 48.2882 14.8593 49.431 15.526C50.4786 16.1926 51.3357 17.2402 52.0023 18.4783C52.5737 19.8115 52.8594 21.3353 52.8594 23.1447C52.8594 24.478 52.669 25.6208 52.3833 26.7636C52.0023 27.9065 51.5262 28.8588 50.9547 29.6207C50.2881 30.3826 49.5262 31.0492 48.6691 31.5254C47.7168 32.0015 46.7644 32.192 45.6216 32.192C44.955 32.192 44.2883 32.0968 43.7169 32.0015C43.1455 31.8111 42.6694 31.6206 42.1932 31.3349C41.8122 31.0492 41.4313 30.7635 41.1456 30.573C40.9551 30.0968 40.479 29.7159 40.0028 29.1445V29.5254C40.0028 30.3826 39.8123 30.954 39.4314 31.3349C39.0504 31.8111 38.5743 32.0015 38.0029 32.0015C37.4315 32.0015 36.8601 31.8111 36.5744 31.3349C36.1934 30.954 36.0029 30.2873 36.0029 29.5254V10.5738C36.0029 9.71668 36.1934 9.05004 36.5744 8.57387C36.9553 8.0977 37.4315 7.90723 38.0981 7.90723C38.7647 7.90723 39.2409 8.0977 39.6219 8.57387C39.9076 9.05004 40.0028 9.62145 40.0028 10.3833ZM40.2885 23.3352C40.2885 25.0494 40.6694 26.3827 41.4313 27.335C42.1932 28.2874 43.2408 28.7636 44.574 28.7636C45.6216 28.7636 46.574 28.2874 47.4311 27.335C48.193 26.3827 48.5739 25.0494 48.5739 23.24C48.5739 22.0972 48.3834 21.1448 48.0977 20.2877C47.812 19.4306 47.3358 18.8592 46.6692 18.383C46.0978 17.9068 45.3359 17.7164 44.574 17.7164C43.7169 17.7164 43.0503 17.9068 42.3837 18.383C41.717 18.8592 41.2408 19.5258 40.8599 20.3829C40.479 21.1448 40.2885 22.0972 40.2885 23.3352Z" fill="#FFD834"/>
<path d="M58.3831 10.3833V17.0497C59.2402 16.1926 60.002 15.526 60.8592 15.145C61.7163 14.6689 62.7638 14.4784 64.0019 14.4784C65.4304 14.4784 66.6684 14.8593 67.8113 15.526C68.8588 16.1926 69.716 17.2402 70.3826 18.4783C70.954 19.8115 71.2397 21.3353 71.2397 23.1447C71.2397 24.478 71.0492 25.6208 70.7635 26.7636C70.4778 27.9065 69.9064 28.8588 69.335 29.6207C68.6684 30.3826 67.9065 31.0492 67.0494 31.5254C66.097 32.0015 65.1447 32.192 64.0971 32.192C63.4305 32.192 62.7638 32.0968 62.1924 32.0015C61.621 31.8111 61.1449 31.6206 60.6687 31.3349C60.2877 31.0492 59.9068 30.7635 59.6211 30.573C59.3354 30.2873 58.9545 29.9064 58.4783 29.335V29.7159C58.4783 30.573 58.2878 31.1444 57.9069 31.5254C57.5259 31.9063 57.0498 32.192 56.3831 32.192C55.8117 32.192 55.2403 32.0015 54.9546 31.5254C54.5737 31.1444 54.3832 30.4778 54.3832 29.7159V10.5738C54.3832 9.71668 54.5737 9.05004 54.9546 8.57387C55.3356 8.0977 55.8117 7.90723 56.4784 7.90723C57.145 7.90723 57.6212 8.0977 58.0021 8.57387C58.1926 9.05004 58.3831 9.62145 58.3831 10.3833ZM58.5735 23.3352C58.5735 25.0494 58.9545 26.3827 59.7163 27.335C60.4782 28.2874 61.5258 28.7636 62.8591 28.7636C63.9067 28.7636 64.859 28.2874 65.7161 27.335C66.478 26.3827 66.8589 25.0494 66.8589 23.24C66.8589 22.0972 66.6684 21.1448 66.3827 20.2877C66.097 19.4306 65.6209 18.8592 64.9542 18.383C64.3828 17.9068 63.6209 17.7164 62.8591 17.7164C62.002 17.7164 61.3353 17.9068 60.6687 18.383C60.002 18.8592 59.5259 19.5258 59.1449 20.3829C58.764 21.1448 58.5735 22.0972 58.5735 23.3352Z" fill="#FFD834"/>
<path d="M75.2395 14.3831C74.5729 14.3831 74.0967 14.5735 73.7158 15.0497C73.3349 15.5259 73.1444 16.0973 73.1444 16.9544V29.3349C73.1444 30.192 73.3349 30.8586 73.7158 31.3348C74.0967 31.811 74.6681 32.0014 75.2395 32.0014C75.9062 32.0014 76.3824 31.811 76.8585 31.3348C77.2395 30.8586 77.5252 30.192 77.5252 29.3349V16.8591C77.5252 16.0973 77.3347 15.5259 76.8585 15.0497C76.3824 14.5735 75.811 14.3831 75.2395 14.3831Z" fill="#E87E24"/>
<path d="M80.4775 14.7641H80.9536V12.1928C80.9536 11.5261 80.9536 10.9547 81.0489 10.5738C81.0489 10.1929 81.1441 9.81192 81.3346 9.52621C81.525 9.24051 81.7155 8.95481 82.0964 8.76434C82.3822 8.57387 82.7631 8.47864 83.144 8.47864C83.7154 8.47864 84.1916 8.6691 84.6678 9.14528C84.9535 9.43098 85.144 9.71668 85.2392 10.1929C85.3344 10.5738 85.3344 11.1452 85.3344 11.9071V14.8593H86.9534C87.5248 14.8593 88.001 15.0498 88.3819 15.3355C88.6676 15.6212 88.8581 16.0022 88.8581 16.4783C88.8581 17.0497 88.6676 17.4307 88.1915 17.7164C87.7153 17.9068 87.0486 18.0973 86.1915 18.0973H85.4297V26.097C85.4297 26.7636 85.4297 27.3351 85.5249 27.6208C85.6201 28.0017 85.7154 28.2874 85.9058 28.4779C86.0963 28.6683 86.4772 28.8588 86.9534 28.8588C87.2391 28.8588 87.5248 28.8588 88.001 28.7636C88.4772 28.6683 88.7629 28.6683 89.0486 28.6683C89.4295 28.6683 89.7152 28.7636 90.0009 29.0493C90.2866 29.335 90.3818 29.7159 90.3818 30.0968C90.3818 30.7635 90.0009 31.3349 89.239 31.7158C88.4772 32.0968 87.3343 32.2872 85.9058 32.2872C84.5725 32.2872 83.525 32.0968 82.8583 31.6206C82.1917 31.1444 81.7155 30.573 81.525 29.7159C81.3346 28.954 81.2393 27.8112 81.2393 26.4779V18.0973H80.6679C80.0013 18.0973 79.5251 17.9068 79.2394 17.6211C78.9537 17.3354 78.7632 16.9545 78.7632 16.4783C78.7632 16.0022 78.9537 15.6212 79.2394 15.3355C79.3347 14.9546 79.8108 14.7641 80.4775 14.7641Z" fill="#FFD834"/>
<path d="M64.7638 4.76442C65.2399 4.00255 67.9065 4.66919 69.9064 6.09771C72.4778 7.90716 74.0967 11.1451 73.5253 11.907C72.9539 12.6689 69.9064 10.8594 68.097 9.33567C66.5732 8.09762 64.2876 5.62153 64.7638 4.76442Z" fill="#009444"/>
<path d="M74.0967 0.00266321C74.6682 -0.0925712 75.5253 2.38353 75.811 4.66915C76.0967 7.71665 75.3348 10.9546 74.7634 10.9546C74.0967 10.9546 73.6206 7.62142 73.5253 5.33579C73.4301 3.33587 73.5253 0.0978976 74.0967 0.00266321Z" fill="#009444"/>
<path d="M81.2394 3.33573C80.668 2.95479 78.668 4.47854 77.6205 6.28799C76.1919 8.57362 75.9062 11.6211 76.6681 11.9068C77.43 12.2878 79.2394 9.81167 80.0966 8.00221C80.9537 6.47846 81.906 3.8119 81.2394 3.33573Z" fill="#009444"/>
</svg>
