<svg width="1440" height="885" viewBox="0 0 1440 885" fill="none" xmlns="http://www.w3.org/2000/svg">
<g clip-path="url(#clip0_8352_63863)">
<rect width="1440" height="885" fill="#304D95"/>
<g opacity="0.5">
<g opacity="0.2">
<path d="M143.139 654.24C136.953 664.271 126.922 678.816 111.374 694.531C91.479 714.426 55.3675 743.516 43.3303 737.664C35.8071 733.986 39.6523 717.435 43.1631 702.055C44.8349 694.531 45.5037 695.2 53.5285 673.299C61.8876 650.228 63.2251 643.875 70.7483 633.844C74.7607 628.327 78.4387 623.646 85.4604 618.797C87.4666 617.46 90.9775 614.785 95.993 612.612C97.3304 612.11 114.885 604.587 127.423 608.265C141.132 612.277 150.495 629.497 145.145 649.726L143.139 654.24Z" fill="white"/>
<g opacity="0.56">
<g opacity="0.56">
<path opacity="0.56" d="M116.389 635.851C114.717 634.179 111.708 631.505 107.696 629.498C103.683 627.492 100.172 626.823 97.999 626.656" stroke="white" stroke-miterlimit="10" stroke-linecap="round"/>
</g>
</g>
<g opacity="0.56">
<g opacity="0.56">
<path opacity="0.56" d="M105.522 637.188C104.686 636.352 103.182 635.014 101.175 634.011C99.1693 633.008 97.4974 632.674 96.3271 632.674" stroke="white" stroke-miterlimit="10" stroke-linecap="round"/>
</g>
</g>
<g opacity="0.56">
<g opacity="0.56">
<path opacity="0.56" d="M70.9157 720.947C69.7454 719.443 67.9064 717.269 65.5659 715.43C63.2253 713.424 61.2191 712.588 60.0488 712.254" stroke="white" stroke-miterlimit="10" stroke-linecap="round"/>
</g>
</g>
<g opacity="0.56">
<g opacity="0.56">
<path opacity="0.56" d="M66.4012 723.955C66.0668 723.119 65.2309 721.448 63.3919 720.11C62.0544 719.107 60.5498 718.605 59.7139 718.605" stroke="white" stroke-miterlimit="10" stroke-linecap="round"/>
</g>
</g>
<path d="M135.95 551.089C139.126 551.424 141.801 564.464 140.631 576C139.293 591.046 131.603 605.424 128.092 604.755C124.414 603.919 125.083 587.034 126.755 575.832C128.426 566.136 132.439 550.922 135.95 551.089Z" fill="white"/>
<path d="M176.575 547.076C179.585 548.247 175.071 563.962 167.882 577.002C158.52 593.888 143.139 608.432 139.962 606.761C136.786 604.922 146.65 585.528 154.173 573.157C161.027 562.29 173.232 545.739 176.575 547.076Z" fill="white"/>
<path d="M147.821 613.949C146.817 611.609 156.681 605.423 166.378 602.581C179.084 598.735 193.629 599.571 194.297 602.246C194.966 605.088 180.923 610.104 171.226 612.444C162.7 614.451 148.824 616.457 147.821 613.949Z" fill="white"/>
</g>
<g opacity="0.2">
<path d="M328.759 760.873C322.573 770.904 312.542 785.449 296.994 801.164C277.099 821.059 240.988 850.149 228.95 844.297C221.427 840.619 225.272 824.068 228.783 808.687C230.455 801.164 231.124 801.833 239.149 779.932C247.508 756.861 248.845 750.508 256.368 740.477C260.381 734.96 264.059 730.278 271.081 725.43C273.087 724.093 276.598 721.418 281.613 719.244C282.951 718.743 300.505 711.22 313.043 714.898C326.752 718.91 336.115 736.13 330.765 756.359L328.759 760.873Z" fill="white"/>
<g opacity="0.56">
<g opacity="0.56">
<path opacity="0.56" d="M302.009 742.484C300.337 740.812 297.328 738.137 293.316 736.131C289.303 734.125 285.793 733.456 283.619 733.289" stroke="white" stroke-miterlimit="10" stroke-linecap="round"/>
</g>
</g>
<g opacity="0.56">
<g opacity="0.56">
<path opacity="0.56" d="M291.142 743.821C290.306 742.985 288.802 741.647 286.796 740.644C284.789 739.641 283.118 739.307 281.947 739.307" stroke="white" stroke-miterlimit="10" stroke-linecap="round"/>
</g>
</g>
<g opacity="0.56">
<g opacity="0.56">
<path opacity="0.56" d="M256.535 827.58C255.365 826.076 253.526 823.902 251.185 822.063C248.844 820.057 246.838 819.221 245.668 818.887" stroke="white" stroke-miterlimit="10" stroke-linecap="round"/>
</g>
</g>
<g opacity="0.56">
<g opacity="0.56">
<path opacity="0.56" d="M252.021 830.588C251.687 829.752 250.851 828.08 249.012 826.743C247.675 825.74 246.17 825.238 245.334 825.238" stroke="white" stroke-miterlimit="10" stroke-linecap="round"/>
</g>
</g>
<path d="M321.57 657.722C324.746 658.056 327.421 671.097 326.251 682.632C324.913 697.679 317.223 712.057 313.712 711.388C310.034 710.552 310.703 693.666 312.375 682.465C314.047 672.769 318.059 657.555 321.57 657.722Z" fill="white"/>
<path d="M362.195 653.709C365.205 654.879 360.691 670.595 353.502 683.635C344.14 700.52 328.759 715.065 325.582 713.393C322.406 711.554 332.27 692.161 339.793 679.79C346.647 668.923 358.852 652.372 362.195 653.709Z" fill="white"/>
<path d="M333.441 720.582C332.438 718.241 342.301 712.056 351.998 709.213C364.704 705.368 379.249 706.204 379.918 708.879C380.586 711.721 366.543 716.737 356.846 719.077C348.32 721.083 334.444 723.09 333.441 720.582Z" fill="white"/>
</g>
</g>
<g opacity="0.5">
<g opacity="0.2">
<path d="M1172.14 -8.75983C1165.95 1.27115 1155.92 15.8161 1140.37 31.5313C1120.48 51.426 1084.37 80.5159 1072.33 74.6645C1064.81 70.9865 1068.65 54.4353 1072.16 39.0545C1073.83 31.5313 1074.5 32.2 1082.53 10.299C1090.89 -12.7722 1092.23 -19.1252 1099.75 -29.1562C1103.76 -34.6732 1107.44 -39.3543 1114.46 -44.2026C1116.47 -45.5401 1119.98 -48.215 1124.99 -50.3884C1126.33 -50.8899 1143.88 -58.4132 1156.42 -54.7352C1170.13 -50.7228 1179.49 -33.5029 1174.14 -13.2738L1172.14 -8.75983Z" fill="white"/>
<g opacity="0.56">
<g opacity="0.56">
<path opacity="0.56" d="M1099.92 57.9474C1098.75 56.4428 1096.91 54.2694 1094.57 52.4304C1092.23 50.4242 1090.22 49.5883 1089.05 49.2539" stroke="white" stroke-miterlimit="10" stroke-linecap="round"/>
</g>
</g>
<g opacity="0.56">
<g opacity="0.56">
<path opacity="0.56" d="M1095.4 60.9553C1095.07 60.1194 1094.23 58.4476 1092.39 57.1101C1091.05 56.107 1089.55 55.6055 1088.71 55.6055" stroke="white" stroke-miterlimit="10" stroke-linecap="round"/>
</g>
</g>
</g>
<g opacity="0.2">
<path d="M1357.76 97.873C1351.57 107.904 1341.54 122.449 1325.99 138.164C1306.1 158.059 1269.99 187.149 1257.95 181.297C1250.43 177.619 1254.27 161.068 1257.78 145.687C1259.46 138.164 1260.12 138.833 1268.15 116.932C1276.51 93.8606 1277.85 87.5076 1285.37 77.4767C1289.38 71.9596 1293.06 67.2785 1300.08 62.4302C1302.09 61.0927 1305.6 58.4178 1310.61 56.2444C1311.95 55.7429 1329.5 48.2196 1342.04 51.8977C1355.75 55.91 1365.11 73.1299 1359.76 93.359L1357.76 97.873Z" fill="white"/>
<g opacity="0.56">
<g opacity="0.56">
<path opacity="0.56" d="M1331.01 79.4841C1329.34 77.8123 1326.33 75.1374 1322.32 73.1312C1318.3 71.125 1314.79 70.4562 1312.62 70.2891" stroke="white" stroke-miterlimit="10" stroke-linecap="round"/>
</g>
</g>
<g opacity="0.56">
<g opacity="0.56">
<path opacity="0.56" d="M1320.14 80.8206C1319.31 79.9847 1317.8 78.6472 1315.8 77.6441C1313.79 76.641 1312.12 76.3066 1310.95 76.3066" stroke="white" stroke-miterlimit="10" stroke-linecap="round"/>
</g>
</g>
<g opacity="0.56">
<g opacity="0.56">
<path opacity="0.56" d="M1285.53 164.58C1284.36 163.076 1282.53 160.902 1280.19 159.063C1277.84 157.057 1275.84 156.221 1274.67 155.887" stroke="white" stroke-miterlimit="10" stroke-linecap="round"/>
</g>
</g>
<g opacity="0.56">
<g opacity="0.56">
<path opacity="0.56" d="M1281.02 167.588C1280.69 166.752 1279.85 165.08 1278.01 163.743C1276.67 162.74 1275.17 162.238 1274.33 162.238" stroke="white" stroke-miterlimit="10" stroke-linecap="round"/>
</g>
</g>
<path d="M1350.57 -5.27793C1353.75 -4.94356 1356.42 8.09671 1355.25 19.6323C1353.91 34.6788 1346.22 49.0566 1342.71 48.3878C1339.03 47.5519 1339.7 30.6664 1341.37 19.4652C1343.05 9.76854 1347.06 -5.44511 1350.57 -5.27793Z" fill="white"/>
<path d="M1391.2 -9.29091C1394.2 -8.12063 1389.69 7.59458 1382.5 20.6349C1373.14 37.5203 1357.76 52.0653 1354.58 50.3934C1351.41 48.5544 1361.27 29.1612 1368.79 16.7896C1375.65 5.92275 1387.85 -10.6284 1391.2 -9.29091Z" fill="white"/>
<path d="M1362.44 57.5819C1361.44 55.2414 1371.3 49.0556 1381 46.2135C1393.7 42.3683 1408.25 43.2042 1408.92 45.8791C1409.59 48.7212 1395.54 53.7367 1385.85 56.0773C1377.32 58.0835 1363.44 60.0897 1362.44 57.5819Z" fill="white"/>
</g>
</g>
<g opacity="0.5">
<g opacity="0.2">
<path d="M382.139 473.24C375.953 483.271 365.922 497.816 350.374 513.531C330.479 533.426 294.367 562.516 282.33 556.664C274.807 552.986 278.652 536.435 282.163 521.055C283.835 513.531 284.504 514.2 292.528 492.299C300.888 469.228 302.225 462.875 309.748 452.844C313.761 447.327 317.439 442.646 324.46 437.797C326.467 436.46 329.977 433.785 334.993 431.612C336.33 431.11 353.885 423.587 366.423 427.265C380.132 431.277 389.495 448.497 384.145 468.726L382.139 473.24Z" fill="white"/>
<g opacity="0.56">
<g opacity="0.56">
<path opacity="0.56" d="M355.389 454.851C353.717 453.179 350.708 450.505 346.696 448.498C342.683 446.492 339.172 445.823 336.999 445.656" stroke="white" stroke-miterlimit="10" stroke-linecap="round"/>
</g>
</g>
<g opacity="0.56">
<g opacity="0.56">
<path opacity="0.56" d="M344.522 456.188C343.686 455.352 342.182 454.014 340.175 453.011C338.169 452.008 336.497 451.674 335.327 451.674" stroke="white" stroke-miterlimit="10" stroke-linecap="round"/>
</g>
</g>
<g opacity="0.56">
<g opacity="0.56">
<path opacity="0.56" d="M309.916 539.947C308.745 538.443 306.906 536.269 304.566 534.43C302.225 532.424 300.219 531.588 299.049 531.254" stroke="white" stroke-miterlimit="10" stroke-linecap="round"/>
</g>
</g>
<g opacity="0.56">
<g opacity="0.56">
<path opacity="0.56" d="M305.401 542.955C305.067 542.119 304.231 540.448 302.392 539.11C301.054 538.107 299.55 537.605 298.714 537.605" stroke="white" stroke-miterlimit="10" stroke-linecap="round"/>
</g>
</g>
<path d="M374.95 370.089C378.126 370.424 380.801 383.464 379.631 395C378.293 410.046 370.603 424.424 367.092 423.755C363.414 422.919 364.083 406.034 365.755 394.832C367.426 385.136 371.439 369.922 374.95 370.089Z" fill="white"/>
<path d="M415.575 366.076C418.585 367.247 414.071 382.962 406.882 396.002C397.52 412.888 382.139 427.432 378.962 425.761C375.786 423.922 385.65 404.528 393.173 392.157C400.027 381.29 412.232 364.739 415.575 366.076Z" fill="white"/>
<path d="M386.821 432.949C385.817 430.609 395.681 424.423 405.378 421.581C418.084 417.735 432.629 418.571 433.297 421.246C433.966 424.088 419.923 429.104 410.226 431.444C401.7 433.451 387.824 435.457 386.821 432.949Z" fill="white"/>
</g>
<g opacity="0.2">
<path d="M567.759 579.873C561.573 589.904 551.542 604.449 535.994 620.164C516.099 640.059 479.988 669.149 467.95 663.297C460.427 659.619 464.272 643.068 467.783 627.687C469.455 620.164 470.124 620.833 478.149 598.932C486.508 575.861 487.845 569.508 495.368 559.477C499.381 553.96 503.059 549.278 510.081 544.43C512.087 543.093 515.598 540.418 520.613 538.244C521.951 537.743 539.505 530.22 552.043 533.898C565.752 537.91 575.115 555.13 569.765 575.359L567.759 579.873Z" fill="white"/>
<g opacity="0.56">
<g opacity="0.56">
<path opacity="0.56" d="M541.009 561.484C539.337 559.812 536.328 557.137 532.316 555.131C528.303 553.125 524.793 552.456 522.619 552.289" stroke="white" stroke-miterlimit="10" stroke-linecap="round"/>
</g>
</g>
<g opacity="0.56">
<g opacity="0.56">
<path opacity="0.56" d="M530.142 562.821C529.306 561.985 527.802 560.647 525.796 559.644C523.789 558.641 522.118 558.307 520.947 558.307" stroke="white" stroke-miterlimit="10" stroke-linecap="round"/>
</g>
</g>
<g opacity="0.56">
<g opacity="0.56">
<path opacity="0.56" d="M495.535 646.58C494.365 645.076 492.526 642.902 490.185 641.063C487.844 639.057 485.838 638.221 484.668 637.887" stroke="white" stroke-miterlimit="10" stroke-linecap="round"/>
</g>
</g>
<g opacity="0.56">
<g opacity="0.56">
<path opacity="0.56" d="M491.021 649.588C490.687 648.752 489.851 647.08 488.012 645.743C486.675 644.74 485.17 644.238 484.334 644.238" stroke="white" stroke-miterlimit="10" stroke-linecap="round"/>
</g>
</g>
<path d="M560.57 476.722C563.746 477.056 566.421 490.097 565.251 501.632C563.913 516.679 556.223 531.057 552.712 530.388C549.034 529.552 549.703 512.666 551.375 501.465C553.047 491.769 557.059 476.555 560.57 476.722Z" fill="white"/>
<path d="M601.195 472.709C604.205 473.879 599.691 489.595 592.502 502.635C583.14 519.52 567.759 534.065 564.582 532.393C561.406 530.554 571.27 511.161 578.793 498.79C585.647 487.923 597.852 471.372 601.195 472.709Z" fill="white"/>
<path d="M572.441 539.582C571.438 537.241 581.301 531.056 590.998 528.213C603.704 524.368 618.249 525.204 618.918 527.879C619.586 530.721 605.543 535.737 595.846 538.077C587.32 540.083 573.444 542.09 572.441 539.582Z" fill="white"/>
</g>
</g>
<g opacity="0.5">
<g opacity="0.2">
<path d="M5.13858 231.24C-1.04719 241.271 -11.0782 255.816 -26.6262 271.531C-46.521 291.426 -82.6325 320.516 -94.6697 314.664C-102.193 310.986 -98.3477 294.435 -94.8369 279.055C-93.1651 271.531 -92.4963 272.2 -84.4715 250.299C-76.1124 227.228 -74.7749 220.875 -67.2517 210.844C-63.2393 205.327 -59.5613 200.646 -52.5396 195.797C-50.5334 194.46 -47.0225 191.785 -42.007 189.612C-40.6696 189.11 -23.1154 181.587 -10.5766 185.265C3.13238 189.277 12.4946 206.497 7.14478 226.726L5.13858 231.24Z" fill="white"/>
<path d="M-2.05035 128.089C1.12613 128.424 3.80105 141.464 2.63077 153C1.29331 168.046 -6.39711 182.424 -9.90795 181.755C-13.586 180.919 -12.9172 164.034 -11.2454 152.832C-9.57358 143.136 -5.56119 127.922 -2.05035 128.089Z" fill="white"/>
<path d="M38.5753 124.076C41.5846 125.247 37.0706 140.962 29.8818 154.002C20.5195 170.888 5.13868 185.432 1.96221 183.761C-1.21427 181.922 8.64953 162.528 16.1728 150.157C23.0273 139.29 35.2316 122.739 38.5753 124.076Z" fill="white"/>
<path d="M9.82057 190.949C8.81747 188.609 18.6813 182.423 28.3779 179.581C41.0838 175.735 55.6287 176.571 56.2974 179.246C56.9662 182.088 42.9228 187.104 33.2262 189.444C24.6999 191.451 10.8237 193.457 9.82057 190.949Z" fill="white"/>
</g>
<g opacity="0.2">
<path d="M190.759 337.873C184.573 347.904 174.542 362.449 158.994 378.164C139.099 398.059 102.988 427.149 90.9504 421.297C83.4272 417.619 87.2724 401.068 90.7832 385.687C92.4551 378.164 93.1238 378.833 101.149 356.932C109.508 333.861 110.845 327.508 118.368 317.477C122.381 311.96 126.059 307.278 133.081 302.43C135.087 301.093 138.598 298.418 143.613 296.244C144.951 295.743 162.505 288.22 175.043 291.898C188.752 295.91 198.115 313.13 192.765 333.359L190.759 337.873Z" fill="white"/>
<g opacity="0.56">
<g opacity="0.56">
<path opacity="0.56" d="M164.009 319.484C162.337 317.812 159.328 315.137 155.316 313.131C151.303 311.125 147.793 310.456 145.619 310.289" stroke="white" stroke-miterlimit="10" stroke-linecap="round"/>
</g>
</g>
<g opacity="0.56">
<g opacity="0.56">
<path opacity="0.56" d="M153.142 320.821C152.306 319.985 150.802 318.647 148.796 317.644C146.789 316.641 145.118 316.307 143.947 316.307" stroke="white" stroke-miterlimit="10" stroke-linecap="round"/>
</g>
</g>
<g opacity="0.56">
<g opacity="0.56">
<path opacity="0.56" d="M118.535 404.58C117.365 403.076 115.526 400.902 113.185 399.063C110.844 397.057 108.838 396.221 107.668 395.887" stroke="white" stroke-miterlimit="10" stroke-linecap="round"/>
</g>
</g>
<g opacity="0.56">
<g opacity="0.56">
<path opacity="0.56" d="M114.021 407.588C113.687 406.752 112.851 405.08 111.012 403.743C109.675 402.74 108.17 402.238 107.334 402.238" stroke="white" stroke-miterlimit="10" stroke-linecap="round"/>
</g>
</g>
<path d="M183.57 234.722C186.746 235.056 189.421 248.097 188.251 259.632C186.913 274.679 179.223 289.057 175.712 288.388C172.034 287.552 172.703 270.666 174.375 259.465C176.047 249.769 180.059 234.555 183.57 234.722Z" fill="white"/>
<path d="M224.195 230.709C227.205 231.879 222.691 247.595 215.502 260.635C206.14 277.52 190.759 292.065 187.582 290.393C184.406 288.554 194.27 269.161 201.793 256.79C208.647 245.923 220.852 229.372 224.195 230.709Z" fill="white"/>
<path d="M195.441 297.582C194.438 295.241 204.301 289.056 213.998 286.213C226.704 282.368 241.249 283.204 241.918 285.879C242.586 288.721 228.543 293.737 218.846 296.077C210.32 298.083 196.444 300.09 195.441 297.582Z" fill="white"/>
</g>
</g>
<g opacity="0.5">
<g opacity="0.2">
<path d="M747.139 712.24C740.953 722.271 730.922 736.816 715.374 752.531C695.479 772.426 659.367 801.516 647.33 795.664C639.807 791.986 643.652 775.435 647.163 760.055C648.835 752.531 649.504 753.2 657.528 731.299C665.888 708.228 667.225 701.875 674.748 691.844C678.761 686.327 682.439 681.646 689.46 676.797C691.467 675.46 694.977 672.785 699.993 670.612C701.33 670.11 718.885 662.587 731.423 666.265C745.132 670.277 754.495 687.497 749.145 707.726L747.139 712.24Z" fill="white"/>
<g opacity="0.56">
<g opacity="0.56">
<path opacity="0.56" d="M720.389 693.851C718.717 692.179 715.708 689.505 711.696 687.498C707.683 685.492 704.172 684.823 701.999 684.656" stroke="white" stroke-miterlimit="10" stroke-linecap="round"/>
</g>
</g>
<g opacity="0.56">
<g opacity="0.56">
<path opacity="0.56" d="M709.522 695.188C708.686 694.352 707.182 693.014 705.175 692.011C703.169 691.008 701.497 690.674 700.327 690.674" stroke="white" stroke-miterlimit="10" stroke-linecap="round"/>
</g>
</g>
<g opacity="0.56">
<g opacity="0.56">
<path opacity="0.56" d="M674.916 778.947C673.745 777.443 671.906 775.269 669.566 773.43C667.225 771.424 665.219 770.588 664.049 770.254" stroke="white" stroke-miterlimit="10" stroke-linecap="round"/>
</g>
</g>
<g opacity="0.56">
<g opacity="0.56">
<path opacity="0.56" d="M670.401 781.955C670.067 781.119 669.231 779.448 667.392 778.11C666.054 777.107 664.55 776.605 663.714 776.605" stroke="white" stroke-miterlimit="10" stroke-linecap="round"/>
</g>
</g>
<path d="M739.95 609.089C743.126 609.424 745.801 622.464 744.631 634C743.293 649.046 735.603 663.424 732.092 662.755C728.414 661.919 729.083 645.034 730.755 633.832C732.426 624.136 736.439 608.922 739.95 609.089Z" fill="white"/>
<path d="M780.575 605.076C783.585 606.247 779.071 621.962 771.882 635.002C762.52 651.888 747.139 666.432 743.962 664.761C740.786 662.922 750.65 643.528 758.173 631.157C765.027 620.29 777.232 603.739 780.575 605.076Z" fill="white"/>
<path d="M751.821 671.949C750.817 669.609 760.681 663.423 770.378 660.581C783.084 656.735 797.629 657.571 798.297 660.246C798.966 663.088 784.923 668.104 775.226 670.444C766.7 672.451 752.824 674.457 751.821 671.949Z" fill="white"/>
</g>
<g opacity="0.2">
<path d="M932.759 818.873C926.573 828.904 916.542 843.449 900.994 859.164C881.099 879.059 844.988 908.149 832.95 902.297C825.427 898.619 829.272 882.068 832.783 866.687C834.455 859.164 835.124 859.833 843.149 837.932C851.508 814.861 852.845 808.508 860.368 798.477C864.381 792.96 868.059 788.278 875.081 783.43C877.087 782.093 880.598 779.418 885.613 777.244C886.951 776.743 904.505 769.22 917.043 772.898C930.752 776.91 940.115 794.13 934.765 814.359L932.759 818.873Z" fill="white"/>
<g opacity="0.56">
<g opacity="0.56">
<path opacity="0.56" d="M906.009 800.484C904.337 798.812 901.328 796.137 897.316 794.131C893.303 792.125 889.793 791.456 887.619 791.289" stroke="white" stroke-miterlimit="10" stroke-linecap="round"/>
</g>
</g>
<g opacity="0.56">
<g opacity="0.56">
<path opacity="0.56" d="M895.142 801.821C894.306 800.985 892.802 799.647 890.796 798.644C888.789 797.641 887.118 797.307 885.947 797.307" stroke="white" stroke-miterlimit="10" stroke-linecap="round"/>
</g>
</g>
<g opacity="0.56">
<g opacity="0.56">
<path opacity="0.56" d="M860.535 885.58C859.365 884.076 857.526 881.902 855.185 880.063C852.844 878.057 850.838 877.221 849.668 876.887" stroke="white" stroke-miterlimit="10" stroke-linecap="round"/>
</g>
</g>
<g opacity="0.56">
<g opacity="0.56">
<path opacity="0.56" d="M856.021 888.588C855.687 887.752 854.851 886.08 853.012 884.743C851.675 883.74 850.17 883.238 849.334 883.238" stroke="white" stroke-miterlimit="10" stroke-linecap="round"/>
</g>
</g>
<path d="M925.57 715.722C928.746 716.056 931.421 729.097 930.251 740.632C928.913 755.679 921.223 770.057 917.712 769.388C914.034 768.552 914.703 751.666 916.375 740.465C918.047 730.769 922.059 715.555 925.57 715.722Z" fill="white"/>
<path d="M966.195 711.709C969.205 712.879 964.691 728.595 957.502 741.635C948.14 758.52 932.759 773.065 929.582 771.393C926.406 769.554 936.27 750.161 943.793 737.79C950.647 726.923 962.852 710.372 966.195 711.709Z" fill="white"/>
<path d="M937.441 778.582C936.438 776.241 946.301 770.056 955.998 767.213C968.704 763.368 983.249 764.204 983.918 766.879C984.586 769.721 970.543 774.737 960.846 777.077C952.32 779.083 938.444 781.09 937.441 778.582Z" fill="white"/>
</g>
</g>
<g opacity="0.5">
<g opacity="0.2">
<path d="M814.139 451.24C807.953 461.271 797.922 475.816 782.374 491.531C762.479 511.426 726.367 540.516 714.33 534.664C706.807 530.986 710.652 514.435 714.163 499.055C715.835 491.531 716.504 492.2 724.528 470.299C732.888 447.228 734.225 440.875 741.748 430.844C745.761 425.327 749.439 420.646 756.46 415.797C758.467 414.46 761.977 411.785 766.993 409.612C768.33 409.11 785.885 401.587 798.423 405.265C812.132 409.277 821.495 426.497 816.145 446.726L814.139 451.24Z" fill="white"/>
<g opacity="0.56">
<g opacity="0.56">
<path opacity="0.56" d="M787.389 432.851C785.717 431.179 782.708 428.505 778.696 426.498C774.683 424.492 771.172 423.823 768.999 423.656" stroke="white" stroke-miterlimit="10" stroke-linecap="round"/>
</g>
</g>
<g opacity="0.56">
<g opacity="0.56">
<path opacity="0.56" d="M776.522 434.188C775.686 433.352 774.182 432.014 772.175 431.011C770.169 430.008 768.497 429.674 767.327 429.674" stroke="white" stroke-miterlimit="10" stroke-linecap="round"/>
</g>
</g>
<g opacity="0.56">
<g opacity="0.56">
<path opacity="0.56" d="M741.916 517.947C740.745 516.443 738.906 514.269 736.566 512.43C734.225 510.424 732.219 509.588 731.049 509.254" stroke="white" stroke-miterlimit="10" stroke-linecap="round"/>
</g>
</g>
<g opacity="0.56">
<g opacity="0.56">
<path opacity="0.56" d="M737.401 520.955C737.067 520.119 736.231 518.448 734.392 517.11C733.054 516.107 731.55 515.605 730.714 515.605" stroke="white" stroke-miterlimit="10" stroke-linecap="round"/>
</g>
</g>
<path d="M806.95 348.089C810.126 348.424 812.801 361.464 811.631 373C810.293 388.046 802.603 402.424 799.092 401.755C795.414 400.919 796.083 384.034 797.755 372.832C799.426 363.136 803.439 347.922 806.95 348.089Z" fill="white"/>
<path d="M847.575 344.076C850.585 345.247 846.071 360.962 838.882 374.002C829.52 390.888 814.139 405.432 810.962 403.761C807.786 401.922 817.65 382.528 825.173 370.157C832.027 359.29 844.232 342.739 847.575 344.076Z" fill="white"/>
<path d="M818.821 410.949C817.817 408.609 827.681 402.423 837.378 399.581C850.084 395.735 864.629 396.571 865.297 399.246C865.966 402.088 851.923 407.104 842.226 409.444C833.7 411.451 819.824 413.457 818.821 410.949Z" fill="white"/>
</g>
<g opacity="0.2">
<path d="M999.759 557.873C993.573 567.904 983.542 582.449 967.994 598.164C948.099 618.059 911.988 647.149 899.95 641.297C892.427 637.619 896.272 621.068 899.783 605.687C901.455 598.164 902.124 598.833 910.149 576.932C918.508 553.861 919.845 547.508 927.368 537.477C931.381 531.96 935.059 527.278 942.081 522.43C944.087 521.093 947.598 518.418 952.613 516.244C953.951 515.743 971.505 508.22 984.043 511.898C997.752 515.91 1007.11 533.13 1001.76 553.359L999.759 557.873Z" fill="white"/>
<g opacity="0.56">
<g opacity="0.56">
<path opacity="0.56" d="M973.009 539.484C971.337 537.812 968.328 535.137 964.316 533.131C960.303 531.125 956.793 530.456 954.619 530.289" stroke="white" stroke-miterlimit="10" stroke-linecap="round"/>
</g>
</g>
<g opacity="0.56">
<g opacity="0.56">
<path opacity="0.56" d="M962.142 540.821C961.306 539.985 959.802 538.647 957.796 537.644C955.789 536.641 954.118 536.307 952.947 536.307" stroke="white" stroke-miterlimit="10" stroke-linecap="round"/>
</g>
</g>
<g opacity="0.56">
<g opacity="0.56">
<path opacity="0.56" d="M927.535 624.58C926.365 623.076 924.526 620.902 922.185 619.063C919.844 617.057 917.838 616.221 916.668 615.887" stroke="white" stroke-miterlimit="10" stroke-linecap="round"/>
</g>
</g>
<g opacity="0.56">
<g opacity="0.56">
<path opacity="0.56" d="M923.021 627.588C922.687 626.752 921.851 625.08 920.012 623.743C918.675 622.74 917.17 622.238 916.334 622.238" stroke="white" stroke-miterlimit="10" stroke-linecap="round"/>
</g>
</g>
<path d="M992.57 454.722C995.746 455.056 998.421 468.097 997.251 479.632C995.913 494.679 988.223 509.057 984.712 508.388C981.034 507.552 981.703 490.666 983.375 479.465C985.047 469.769 989.059 454.555 992.57 454.722Z" fill="white"/>
<path d="M1033.2 450.709C1036.2 451.879 1031.69 467.595 1024.5 480.635C1015.14 497.52 999.759 512.065 996.582 510.393C993.406 508.554 1003.27 489.161 1010.79 476.79C1017.65 465.923 1029.85 449.372 1033.2 450.709Z" fill="white"/>
<path d="M1004.44 517.582C1003.44 515.241 1013.3 509.056 1023 506.213C1035.7 502.368 1050.25 503.204 1050.92 505.879C1051.59 508.721 1037.54 513.737 1027.85 516.077C1019.32 518.083 1005.44 520.09 1004.44 517.582Z" fill="white"/>
</g>
</g>
<g opacity="0.5">
<g opacity="0.2">
<path d="M1094.14 291.24C1087.95 301.271 1077.92 315.816 1062.37 331.531C1042.48 351.426 1006.37 380.516 994.33 374.664C986.807 370.986 990.652 354.435 994.163 339.055C995.835 331.531 996.504 332.2 1004.53 310.299C1012.89 287.228 1014.23 280.875 1021.75 270.844C1025.76 265.327 1029.44 260.646 1036.46 255.797C1038.47 254.46 1041.98 251.785 1046.99 249.612C1048.33 249.11 1065.88 241.587 1078.42 245.265C1092.13 249.277 1101.49 266.497 1096.14 286.726L1094.14 291.24Z" fill="white"/>
<g opacity="0.56">
<g opacity="0.56">
<path opacity="0.56" d="M1067.39 272.851C1065.72 271.179 1062.71 268.505 1058.7 266.498C1054.68 264.492 1051.17 263.823 1049 263.656" stroke="white" stroke-miterlimit="10" stroke-linecap="round"/>
</g>
</g>
<g opacity="0.56">
<g opacity="0.56">
<path opacity="0.56" d="M1056.52 274.188C1055.69 273.352 1054.18 272.014 1052.18 271.011C1050.17 270.008 1048.5 269.674 1047.33 269.674" stroke="white" stroke-miterlimit="10" stroke-linecap="round"/>
</g>
</g>
<g opacity="0.56">
<g opacity="0.56">
<path opacity="0.56" d="M1021.92 357.947C1020.75 356.443 1018.91 354.269 1016.57 352.43C1014.23 350.424 1012.22 349.588 1011.05 349.254" stroke="white" stroke-miterlimit="10" stroke-linecap="round"/>
</g>
</g>
<g opacity="0.56">
<g opacity="0.56">
<path opacity="0.56" d="M1017.4 360.955C1017.07 360.119 1016.23 358.448 1014.39 357.11C1013.05 356.107 1011.55 355.605 1010.71 355.605" stroke="white" stroke-miterlimit="10" stroke-linecap="round"/>
</g>
</g>
<path d="M1086.95 188.089C1090.13 188.424 1092.8 201.464 1091.63 213C1090.29 228.046 1082.6 242.424 1079.09 241.755C1075.41 240.919 1076.08 224.034 1077.75 212.832C1079.43 203.136 1083.44 187.922 1086.95 188.089Z" fill="white"/>
<path d="M1127.58 184.076C1130.58 185.247 1126.07 200.962 1118.88 214.002C1109.52 230.888 1094.14 245.432 1090.96 243.761C1087.79 241.922 1097.65 222.528 1105.17 210.157C1112.03 199.29 1124.23 182.739 1127.58 184.076Z" fill="white"/>
<path d="M1098.82 250.949C1097.82 248.609 1107.68 242.423 1117.38 239.581C1130.08 235.735 1144.63 236.571 1145.3 239.246C1145.97 242.088 1131.92 247.104 1122.23 249.444C1113.7 251.451 1099.82 253.457 1098.82 250.949Z" fill="white"/>
</g>
<g opacity="0.2">
<path d="M1279.76 397.873C1273.57 407.904 1263.54 422.449 1247.99 438.164C1228.1 458.059 1191.99 487.149 1179.95 481.297C1172.43 477.619 1176.27 461.068 1179.78 445.687C1181.46 438.164 1182.12 438.833 1190.15 416.932C1198.51 393.861 1199.85 387.508 1207.37 377.477C1211.38 371.96 1215.06 367.278 1222.08 362.43C1224.09 361.093 1227.6 358.418 1232.61 356.244C1233.95 355.743 1251.5 348.22 1264.04 351.898C1277.75 355.91 1287.11 373.13 1281.76 393.359L1279.76 397.873Z" fill="white"/>
<g opacity="0.56">
<g opacity="0.56">
<path opacity="0.56" d="M1253.01 379.484C1251.34 377.812 1248.33 375.137 1244.32 373.131C1240.3 371.125 1236.79 370.456 1234.62 370.289" stroke="white" stroke-miterlimit="10" stroke-linecap="round"/>
</g>
</g>
<g opacity="0.56">
<g opacity="0.56">
<path opacity="0.56" d="M1242.14 380.821C1241.31 379.985 1239.8 378.647 1237.8 377.644C1235.79 376.641 1234.12 376.307 1232.95 376.307" stroke="white" stroke-miterlimit="10" stroke-linecap="round"/>
</g>
</g>
<g opacity="0.56">
<g opacity="0.56">
<path opacity="0.56" d="M1207.53 464.58C1206.36 463.076 1204.53 460.902 1202.19 459.063C1199.84 457.057 1197.84 456.221 1196.67 455.887" stroke="white" stroke-miterlimit="10" stroke-linecap="round"/>
</g>
</g>
<g opacity="0.56">
<g opacity="0.56">
<path opacity="0.56" d="M1203.02 467.588C1202.69 466.752 1201.85 465.08 1200.01 463.743C1198.67 462.74 1197.17 462.238 1196.33 462.238" stroke="white" stroke-miterlimit="10" stroke-linecap="round"/>
</g>
</g>
<path d="M1272.57 294.722C1275.75 295.056 1278.42 308.097 1277.25 319.632C1275.91 334.679 1268.22 349.057 1264.71 348.388C1261.03 347.552 1261.7 330.666 1263.37 319.465C1265.05 309.769 1269.06 294.555 1272.57 294.722Z" fill="white"/>
<path d="M1313.2 290.709C1316.2 291.879 1311.69 307.595 1304.5 320.635C1295.14 337.52 1279.76 352.065 1276.58 350.393C1273.41 348.554 1283.27 329.161 1290.79 316.79C1297.65 305.923 1309.85 289.372 1313.2 290.709Z" fill="white"/>
<path d="M1284.44 357.582C1283.44 355.241 1293.3 349.056 1303 346.213C1315.7 342.368 1330.25 343.204 1330.92 345.879C1331.59 348.721 1317.54 353.737 1307.85 356.077C1299.32 358.083 1285.44 360.09 1284.44 357.582Z" fill="white"/>
</g>
</g>
<g opacity="0.5">
<g opacity="0.2">
<path d="M437.139 209.24C430.953 219.271 420.922 233.816 405.374 249.531C385.479 269.426 349.367 298.516 337.33 292.664C329.807 288.986 333.652 272.435 337.163 257.055C338.835 249.531 339.504 250.2 347.528 228.299C355.888 205.228 357.225 198.875 364.748 188.844C368.761 183.327 372.439 178.646 379.46 173.797C381.467 172.46 384.977 169.785 389.993 167.612C391.33 167.11 408.885 159.587 421.423 163.265C435.132 167.277 444.495 184.497 439.145 204.726L437.139 209.24Z" fill="white"/>
<g opacity="0.56">
<g opacity="0.56">
<path opacity="0.56" d="M410.389 190.851C408.717 189.179 405.708 186.505 401.696 184.498C397.683 182.492 394.172 181.823 391.999 181.656" stroke="white" stroke-miterlimit="10" stroke-linecap="round"/>
</g>
</g>
<g opacity="0.56">
<g opacity="0.56">
<path opacity="0.56" d="M399.522 192.188C398.686 191.352 397.182 190.014 395.175 189.011C393.169 188.008 391.497 187.674 390.327 187.674" stroke="white" stroke-miterlimit="10" stroke-linecap="round"/>
</g>
</g>
<g opacity="0.56">
<g opacity="0.56">
<path opacity="0.56" d="M364.916 275.947C363.745 274.443 361.906 272.269 359.566 270.43C357.225 268.424 355.219 267.588 354.049 267.254" stroke="white" stroke-miterlimit="10" stroke-linecap="round"/>
</g>
</g>
<g opacity="0.56">
<g opacity="0.56">
<path opacity="0.56" d="M360.401 278.955C360.067 278.119 359.231 276.448 357.392 275.11C356.054 274.107 354.55 273.605 353.714 273.605" stroke="white" stroke-miterlimit="10" stroke-linecap="round"/>
</g>
</g>
<path d="M429.95 106.089C433.126 106.424 435.801 119.464 434.631 131C433.293 146.046 425.603 160.424 422.092 159.755C418.414 158.919 419.083 142.034 420.755 130.832C422.426 121.136 426.439 105.922 429.95 106.089Z" fill="white"/>
<path d="M470.575 102.076C473.585 103.247 469.071 118.962 461.882 132.002C452.52 148.888 437.139 163.432 433.962 161.761C430.786 159.922 440.65 140.528 448.173 128.157C455.027 117.29 467.232 100.739 470.575 102.076Z" fill="white"/>
<path d="M441.821 168.949C440.817 166.609 450.681 160.423 460.378 157.581C473.084 153.735 487.629 154.571 488.297 157.246C488.966 160.088 474.923 165.104 465.226 167.444C456.7 169.451 442.824 171.457 441.821 168.949Z" fill="white"/>
</g>
<g opacity="0.2">
<path d="M622.759 315.873C616.573 325.904 606.542 340.449 590.994 356.164C571.099 376.059 534.988 405.149 522.95 399.297C515.427 395.619 519.272 379.068 522.783 363.687C524.455 356.164 525.124 356.833 533.149 334.932C541.508 311.861 542.845 305.508 550.368 295.477C554.381 289.96 558.059 285.278 565.081 280.43C567.087 279.093 570.598 276.418 575.613 274.244C576.951 273.743 594.505 266.22 607.043 269.898C620.752 273.91 630.115 291.13 624.765 311.359L622.759 315.873Z" fill="white"/>
<g opacity="0.56">
<g opacity="0.56">
<path opacity="0.56" d="M596.009 297.484C594.337 295.812 591.328 293.137 587.316 291.131C583.303 289.125 579.793 288.456 577.619 288.289" stroke="white" stroke-miterlimit="10" stroke-linecap="round"/>
</g>
</g>
<g opacity="0.56">
<g opacity="0.56">
<path opacity="0.56" d="M585.142 298.821C584.306 297.985 582.802 296.647 580.796 295.644C578.789 294.641 577.118 294.307 575.947 294.307" stroke="white" stroke-miterlimit="10" stroke-linecap="round"/>
</g>
</g>
<g opacity="0.56">
<g opacity="0.56">
<path opacity="0.56" d="M550.535 382.58C549.365 381.076 547.526 378.902 545.185 377.063C542.844 375.057 540.838 374.221 539.668 373.887" stroke="white" stroke-miterlimit="10" stroke-linecap="round"/>
</g>
</g>
<g opacity="0.56">
<g opacity="0.56">
<path opacity="0.56" d="M546.021 385.588C545.687 384.752 544.851 383.08 543.012 381.743C541.675 380.74 540.17 380.238 539.334 380.238" stroke="white" stroke-miterlimit="10" stroke-linecap="round"/>
</g>
</g>
<path d="M615.57 212.722C618.746 213.056 621.421 226.097 620.251 237.632C618.913 252.679 611.223 267.057 607.712 266.388C604.034 265.552 604.703 248.666 606.375 237.465C608.047 227.769 612.059 212.555 615.57 212.722Z" fill="white"/>
<path d="M656.195 208.709C659.205 209.879 654.691 225.595 647.502 238.635C638.14 255.52 622.759 270.065 619.582 268.393C616.406 266.554 626.27 247.161 633.793 234.79C640.647 223.923 652.852 207.372 656.195 208.709Z" fill="white"/>
<path d="M627.441 275.582C626.438 273.241 636.301 267.056 645.998 264.213C658.704 260.368 673.249 261.204 673.918 263.879C674.586 266.721 660.543 271.737 650.846 274.077C642.32 276.083 628.444 278.09 627.441 275.582Z" fill="white"/>
</g>
</g>
<g opacity="0.5">
<g opacity="0.2">
<path d="M717.139 49.2402C710.953 59.2711 700.922 73.8161 685.374 89.5313C665.479 109.426 629.367 138.516 617.33 132.664C609.807 128.986 613.652 112.435 617.163 97.0545C618.835 89.5313 619.504 90.2 627.528 68.299C635.888 45.2278 637.225 38.8748 644.748 28.8438C648.761 23.3268 652.439 18.6457 659.46 13.7974C661.467 12.4599 664.977 9.78498 669.993 7.6116C671.33 7.11005 688.885 -0.413184 701.423 3.26484C715.132 7.27723 724.495 24.4971 719.145 44.7262L717.139 49.2402Z" fill="white"/>
<g opacity="0.56">
<g opacity="0.56">
<path opacity="0.56" d="M690.389 30.8513C688.717 29.1795 685.708 26.5046 681.696 24.4984C677.683 22.4922 674.172 21.8234 671.999 21.6562" stroke="white" stroke-miterlimit="10" stroke-linecap="round"/>
</g>
</g>
<g opacity="0.56">
<g opacity="0.56">
<path opacity="0.56" d="M679.522 32.1878C678.686 31.3519 677.182 30.0144 675.175 29.0113C673.169 28.0082 671.497 27.6738 670.327 27.6738" stroke="white" stroke-miterlimit="10" stroke-linecap="round"/>
</g>
</g>
<g opacity="0.56">
<g opacity="0.56">
<path opacity="0.56" d="M644.916 115.947C643.745 114.443 641.906 112.269 639.566 110.43C637.225 108.424 635.219 107.588 634.049 107.254" stroke="white" stroke-miterlimit="10" stroke-linecap="round"/>
</g>
</g>
<g opacity="0.56">
<g opacity="0.56">
<path opacity="0.56" d="M640.401 118.955C640.067 118.119 639.231 116.448 637.392 115.11C636.054 114.107 634.55 113.605 633.714 113.605" stroke="white" stroke-miterlimit="10" stroke-linecap="round"/>
</g>
</g>
<path d="M709.95 -53.9107C713.126 -53.5764 715.801 -40.5361 714.631 -29.0005C713.293 -13.954 705.603 0.423744 702.092 -0.244988C698.414 -1.0809 699.083 -17.9664 700.755 -29.1677C702.426 -38.8643 706.439 -54.0779 709.95 -53.9107Z" fill="white"/>
<path d="M750.575 -57.9237C753.585 -56.7534 749.071 -41.0382 741.882 -27.998C732.52 -11.1125 717.139 3.43245 713.962 1.76062C710.786 -0.0783953 720.65 -19.4716 728.173 -31.8432C735.027 -42.7101 747.232 -59.2612 750.575 -57.9237Z" fill="white"/>
<path d="M721.821 8.94912C720.817 6.60856 730.681 0.422787 740.378 -2.41932C753.084 -6.26453 767.629 -5.42862 768.297 -2.75369C768.966 0.08842 754.923 5.10391 745.226 7.44447C736.7 9.45067 722.824 11.4569 721.821 8.94912Z" fill="white"/>
</g>
<g opacity="0.2">
<path d="M902.759 155.873C896.573 165.904 886.542 180.449 870.994 196.164C851.099 216.059 814.988 245.149 802.95 239.297C795.427 235.619 799.272 219.068 802.783 203.687C804.455 196.164 805.124 196.833 813.149 174.932C821.508 151.861 822.845 145.508 830.368 135.477C834.381 129.96 838.059 125.278 845.081 120.43C847.087 119.093 850.598 116.418 855.613 114.244C856.951 113.743 874.505 106.22 887.043 109.898C900.752 113.91 910.115 131.13 904.765 151.359L902.759 155.873Z" fill="white"/>
<g opacity="0.56">
<g opacity="0.56">
<path opacity="0.56" d="M876.009 137.484C874.337 135.812 871.328 133.137 867.316 131.131C863.303 129.125 859.793 128.456 857.619 128.289" stroke="white" stroke-miterlimit="10" stroke-linecap="round"/>
</g>
</g>
<g opacity="0.56">
<g opacity="0.56">
<path opacity="0.56" d="M865.142 138.821C864.306 137.985 862.802 136.647 860.796 135.644C858.789 134.641 857.118 134.307 855.947 134.307" stroke="white" stroke-miterlimit="10" stroke-linecap="round"/>
</g>
</g>
<g opacity="0.56">
<g opacity="0.56">
<path opacity="0.56" d="M830.535 222.58C829.365 221.076 827.526 218.902 825.185 217.063C822.844 215.057 820.838 214.221 819.668 213.887" stroke="white" stroke-miterlimit="10" stroke-linecap="round"/>
</g>
</g>
<g opacity="0.56">
<g opacity="0.56">
<path opacity="0.56" d="M826.021 225.588C825.687 224.752 824.851 223.08 823.012 221.743C821.675 220.74 820.17 220.238 819.334 220.238" stroke="white" stroke-miterlimit="10" stroke-linecap="round"/>
</g>
</g>
<path d="M895.57 52.7221C898.746 53.0564 901.421 66.0967 900.251 77.6323C898.913 92.6788 891.223 107.057 887.712 106.388C884.034 105.552 884.703 88.6664 886.375 77.4652C888.047 67.7685 892.059 52.5549 895.57 52.7221Z" fill="white"/>
<path d="M936.195 48.7091C939.205 49.8794 934.691 65.5946 927.502 78.6349C918.14 95.5203 902.759 110.065 899.582 108.393C896.406 106.554 906.27 87.1612 913.793 74.7896C920.647 63.9227 932.852 47.3716 936.195 48.7091Z" fill="white"/>
<path d="M907.441 115.582C906.438 113.241 916.301 107.056 925.998 104.213C938.704 100.368 953.249 101.204 953.918 103.879C954.586 106.721 940.543 111.737 930.846 114.077C922.32 116.083 908.444 118.09 907.441 115.582Z" fill="white"/>
</g>
</g>
<g opacity="0.5">
<g opacity="0.2">
<path d="M39.1386 -27.7598C32.9528 -17.7289 22.9218 -3.18393 7.3738 12.5313C-12.521 32.426 -48.6325 61.5159 -60.6697 55.6645C-68.1929 51.9865 -64.3477 35.4353 -60.8369 20.0545C-59.1651 12.5313 -58.4963 13.2 -50.4715 -8.70097C-42.1124 -31.7722 -40.7749 -38.1252 -33.2517 -48.1562C-29.2393 -53.6732 -25.5613 -58.3543 -18.5396 -63.2026C-16.5334 -64.5401 -13.0225 -67.215 -8.00704 -69.3884C-6.66957 -69.8899 10.8846 -77.4132 23.4234 -73.7352C37.1324 -69.7228 46.4946 -52.5029 41.1448 -32.2738L39.1386 -27.7598Z" fill="white"/>
</g>
<g opacity="0.2">
<path d="M224.759 78.873C218.573 88.904 208.542 103.449 192.994 119.164C173.099 139.059 136.988 168.149 124.95 162.297C117.427 158.619 121.272 142.068 124.783 126.687C126.455 119.164 127.124 119.833 135.149 97.9318C143.508 74.8606 144.845 68.5076 152.368 58.4767C156.381 52.9596 160.059 48.2785 167.081 43.4302C169.087 42.0927 172.598 39.4178 177.613 37.2444C178.951 36.7429 196.505 29.2196 209.043 32.8977C222.752 36.91 232.115 54.1299 226.765 74.359L224.759 78.873Z" fill="white"/>
<g opacity="0.56">
<g opacity="0.56">
<path opacity="0.56" d="M198.009 60.4841C196.337 58.8123 193.328 56.1374 189.316 54.1312C185.303 52.125 181.793 51.4562 179.619 51.2891" stroke="white" stroke-miterlimit="10" stroke-linecap="round"/>
</g>
</g>
<g opacity="0.56">
<g opacity="0.56">
<path opacity="0.56" d="M187.142 61.8206C186.306 60.9847 184.802 59.6472 182.796 58.6441C180.789 57.641 179.118 57.3066 177.947 57.3066" stroke="white" stroke-miterlimit="10" stroke-linecap="round"/>
</g>
</g>
<g opacity="0.56">
<g opacity="0.56">
<path opacity="0.56" d="M152.535 145.58C151.365 144.076 149.526 141.902 147.185 140.063C144.844 138.057 142.838 137.221 141.668 136.887" stroke="white" stroke-miterlimit="10" stroke-linecap="round"/>
</g>
</g>
<g opacity="0.56">
<g opacity="0.56">
<path opacity="0.56" d="M148.021 148.588C147.687 147.752 146.851 146.08 145.012 144.743C143.675 143.74 142.17 143.238 141.334 143.238" stroke="white" stroke-miterlimit="10" stroke-linecap="round"/>
</g>
</g>
<path d="M217.57 -24.2779C220.746 -23.9436 223.421 -10.9033 222.251 0.63234C220.913 15.6788 213.223 30.0566 209.712 29.3878C206.034 28.5519 206.703 11.6664 208.375 0.46516C210.047 -9.23146 214.059 -24.4451 217.57 -24.2779Z" fill="white"/>
<path d="M258.195 -28.2909C261.205 -27.1206 256.691 -11.4054 249.502 1.63485C240.14 18.5203 224.759 33.0653 221.582 31.3934C218.406 29.5544 228.27 10.1612 235.793 -2.21036C242.647 -13.0773 254.852 -29.6284 258.195 -28.2909Z" fill="white"/>
<path d="M229.441 38.5819C228.438 36.2414 238.301 30.0556 247.998 27.2135C260.704 23.3683 275.249 24.2042 275.918 26.8791C276.586 29.7212 262.543 34.7367 252.846 37.0773C244.32 39.0835 230.444 41.0897 229.441 38.5819Z" fill="white"/>
</g>
</g>
<g opacity="0.5">
<g opacity="0.2">
<path d="M1179.14 690.24C1172.95 700.271 1162.92 714.816 1147.37 730.531C1127.48 750.426 1091.37 779.516 1079.33 773.664C1071.81 769.986 1075.65 753.435 1079.16 738.055C1080.83 730.531 1081.5 731.2 1089.53 709.299C1097.89 686.228 1099.23 679.875 1106.75 669.844C1110.76 664.327 1114.44 659.646 1121.46 654.797C1123.47 653.46 1126.98 650.785 1131.99 648.612C1133.33 648.11 1150.88 640.587 1163.42 644.265C1177.13 648.277 1186.49 665.497 1181.14 685.726L1179.14 690.24Z" fill="white"/>
<g opacity="0.56">
<g opacity="0.56">
<path opacity="0.56" d="M1152.39 671.851C1150.72 670.179 1147.71 667.505 1143.7 665.498C1139.68 663.492 1136.17 662.823 1134 662.656" stroke="white" stroke-miterlimit="10" stroke-linecap="round"/>
</g>
</g>
<g opacity="0.56">
<g opacity="0.56">
<path opacity="0.56" d="M1141.52 673.188C1140.69 672.352 1139.18 671.014 1137.18 670.011C1135.17 669.008 1133.5 668.674 1132.33 668.674" stroke="white" stroke-miterlimit="10" stroke-linecap="round"/>
</g>
</g>
<g opacity="0.56">
<g opacity="0.56">
<path opacity="0.56" d="M1106.92 756.947C1105.75 755.443 1103.91 753.269 1101.57 751.43C1099.23 749.424 1097.22 748.588 1096.05 748.254" stroke="white" stroke-miterlimit="10" stroke-linecap="round"/>
</g>
</g>
<g opacity="0.56">
<g opacity="0.56">
<path opacity="0.56" d="M1102.4 759.955C1102.07 759.119 1101.23 757.448 1099.39 756.11C1098.05 755.107 1096.55 754.605 1095.71 754.605" stroke="white" stroke-miterlimit="10" stroke-linecap="round"/>
</g>
</g>
<path d="M1171.95 587.089C1175.13 587.424 1177.8 600.464 1176.63 612C1175.29 627.046 1167.6 641.424 1164.09 640.755C1160.41 639.919 1161.08 623.034 1162.75 611.832C1164.43 602.136 1168.44 586.922 1171.95 587.089Z" fill="white"/>
<path d="M1212.58 583.076C1215.58 584.247 1211.07 599.962 1203.88 613.002C1194.52 629.888 1179.14 644.432 1175.96 642.761C1172.79 640.922 1182.65 621.528 1190.17 609.157C1197.03 598.29 1209.23 581.739 1212.58 583.076Z" fill="white"/>
<path d="M1183.82 649.949C1182.82 647.609 1192.68 641.423 1202.38 638.581C1215.08 634.735 1229.63 635.571 1230.3 638.246C1230.97 641.088 1216.92 646.104 1207.23 648.444C1198.7 650.451 1184.82 652.457 1183.82 649.949Z" fill="white"/>
</g>
<g opacity="0.2">
<path d="M1364.76 796.873C1358.57 806.904 1348.54 821.449 1332.99 837.164C1313.1 857.059 1276.99 886.149 1264.95 880.297C1257.43 876.619 1261.27 860.068 1264.78 844.687C1266.46 837.164 1267.12 837.833 1275.15 815.932C1283.51 792.861 1284.85 786.508 1292.37 776.477C1296.38 770.96 1300.06 766.278 1307.08 761.43C1309.09 760.093 1312.6 757.418 1317.61 755.244C1318.95 754.743 1336.5 747.22 1349.04 750.898C1362.75 754.91 1372.11 772.13 1366.76 792.359L1364.76 796.873Z" fill="white"/>
<g opacity="0.56">
<g opacity="0.56">
<path opacity="0.56" d="M1338.01 778.484C1336.34 776.812 1333.33 774.137 1329.32 772.131C1325.3 770.125 1321.79 769.456 1319.62 769.289" stroke="white" stroke-miterlimit="10" stroke-linecap="round"/>
</g>
</g>
<g opacity="0.56">
<g opacity="0.56">
<path opacity="0.56" d="M1327.14 779.821C1326.31 778.985 1324.8 777.647 1322.8 776.644C1320.79 775.641 1319.12 775.307 1317.95 775.307" stroke="white" stroke-miterlimit="10" stroke-linecap="round"/>
</g>
</g>
<g opacity="0.56">
<g opacity="0.56">
<path opacity="0.56" d="M1292.53 863.58C1291.36 862.076 1289.53 859.902 1287.19 858.063C1284.84 856.057 1282.84 855.221 1281.67 854.887" stroke="white" stroke-miterlimit="10" stroke-linecap="round"/>
</g>
</g>
<g opacity="0.56">
<g opacity="0.56">
<path opacity="0.56" d="M1288.02 866.588C1287.69 865.752 1286.85 864.08 1285.01 862.743C1283.67 861.74 1282.17 861.238 1281.33 861.238" stroke="white" stroke-miterlimit="10" stroke-linecap="round"/>
</g>
</g>
<path d="M1357.57 693.722C1360.75 694.056 1363.42 707.097 1362.25 718.632C1360.91 733.679 1353.22 748.057 1349.71 747.388C1346.03 746.552 1346.7 729.666 1348.37 718.465C1350.05 708.769 1354.06 693.555 1357.57 693.722Z" fill="white"/>
<path d="M1398.2 689.709C1401.2 690.879 1396.69 706.595 1389.5 719.635C1380.14 736.52 1364.76 751.065 1361.58 749.393C1358.41 747.554 1368.27 728.161 1375.79 715.79C1382.65 704.923 1394.85 688.372 1398.2 689.709Z" fill="white"/>
<path d="M1369.44 756.582C1368.44 754.241 1378.3 748.056 1388 745.213C1400.7 741.368 1415.25 742.204 1415.92 744.879C1416.59 747.721 1402.54 752.737 1392.85 755.077C1384.32 757.083 1370.44 759.09 1369.44 756.582Z" fill="white"/>
</g>
</g>
<g opacity="0.5">
<g opacity="0.2">
<path d="M1459.14 530.24C1452.95 540.271 1442.92 554.816 1427.37 570.531C1407.48 590.426 1371.37 619.516 1359.33 613.664C1351.81 609.986 1355.65 593.435 1359.16 578.055C1360.83 570.531 1361.5 571.2 1369.53 549.299C1377.89 526.228 1379.23 519.875 1386.75 509.844C1390.76 504.327 1394.44 499.646 1401.46 494.797C1403.47 493.46 1406.98 490.785 1411.99 488.612C1413.33 488.11 1430.88 480.587 1443.42 484.265C1457.13 488.277 1466.49 505.497 1461.14 525.726L1459.14 530.24Z" fill="white"/>
<g opacity="0.56">
<g opacity="0.56">
<path opacity="0.56" d="M1432.39 511.851C1430.72 510.179 1427.71 507.505 1423.7 505.498C1419.68 503.492 1416.17 502.823 1414 502.656" stroke="white" stroke-miterlimit="10" stroke-linecap="round"/>
</g>
</g>
<g opacity="0.56">
<g opacity="0.56">
<path opacity="0.56" d="M1421.52 513.188C1420.69 512.352 1419.18 511.014 1417.18 510.011C1415.17 509.008 1413.5 508.674 1412.33 508.674" stroke="white" stroke-miterlimit="10" stroke-linecap="round"/>
</g>
</g>
<g opacity="0.56">
<g opacity="0.56">
<path opacity="0.56" d="M1386.92 596.947C1385.75 595.443 1383.91 593.269 1381.57 591.43C1379.23 589.424 1377.22 588.588 1376.05 588.254" stroke="white" stroke-miterlimit="10" stroke-linecap="round"/>
</g>
</g>
<g opacity="0.56">
<g opacity="0.56">
<path opacity="0.56" d="M1382.4 599.955C1382.07 599.119 1381.23 597.448 1379.39 596.11C1378.05 595.107 1376.55 594.605 1375.71 594.605" stroke="white" stroke-miterlimit="10" stroke-linecap="round"/>
</g>
</g>
</g>
</g>
</g>
<defs>
<clipPath id="clip0_8352_63863">
<rect width="1440" height="885" fill="white"/>
</clipPath>
</defs>
</svg>
