<svg width="15" height="15" viewBox="0 0 15 15" fill="none" xmlns="http://www.w3.org/2000/svg">
<path d="M7.18745 1.51637L2.4616 2.46154L1.51643 7.18738C1.50129 7.26306 1.50507 7.34129 1.52744 7.41515C1.5498 7.48901 1.59005 7.5562 1.64462 7.61077L7.7649 13.7311C7.80843 13.7746 7.8601 13.8091 7.91697 13.8327C7.97384 13.8562 8.0348 13.8683 8.09635 13.8683C8.15791 13.8683 8.21887 13.8562 8.27574 13.8327C8.33261 13.8091 8.38428 13.7746 8.42781 13.7311L13.7311 8.42775C13.7746 8.38422 13.8092 8.33255 13.8327 8.27568C13.8563 8.2188 13.8684 8.15785 13.8684 8.09629C13.8684 8.03474 13.8563 7.97378 13.8327 7.91691C13.8092 7.86004 13.7746 7.80836 13.7311 7.76484L7.61083 1.64456C7.55626 1.58999 7.48907 1.54974 7.41521 1.52738C7.34135 1.50501 7.26312 1.50123 7.18745 1.51637V1.51637Z" stroke="white" stroke-linecap="round" stroke-linejoin="round"/>
<path d="M5.125 4.92188C5.125 5.03406 5.03406 5.125 4.92188 5.125C4.80969 5.125 4.71875 5.03406 4.71875 4.92188C4.71875 4.80969 4.80969 4.71875 4.92188 4.71875C5.03406 4.71875 5.125 4.80969 5.125 4.92188Z" fill="white" stroke="white"/>
</svg>
