<svg width="32" height="32" viewBox="0 0 32 32" fill="none" xmlns="http://www.w3.org/2000/svg">
<path d="M4 9H6.88306C8.15645 9 9.41145 9.30398 10.5437 9.88666C11.676 10.4693 12.6528 11.3139 13.3929 12.3501L18.6071 19.6499C19.3472 20.6861 20.324 21.5307 21.4563 22.1133C22.5886 22.696 23.8436 23 25.1169 23H29" stroke="#currentColor" stroke-width="2" stroke-linecap="round" stroke-linejoin="round"/>
<path d="M26 6L29 9L26 12" stroke="#currentColor" stroke-width="2" stroke-linecap="round" stroke-linejoin="round"/>
<path d="M26 20L29 23L26 26" stroke="#currentColor" stroke-width="2" stroke-linecap="round" stroke-linejoin="round"/>
<path d="M18.4578 12.559L18.607 12.3501C19.3471 11.3139 20.324 10.4693 21.4562 9.88666C22.5885 9.30398 23.8435 9 25.1169 9H28.9999" stroke="#currentColor" stroke-width="2" stroke-linecap="round" stroke-linejoin="round"/>
<path d="M4 23.0001H6.88306C8.15645 23.0001 9.41145 22.6961 10.5437 22.1134C11.676 21.5307 12.6528 20.6862 13.3929 19.65L13.5422 19.441" stroke="#currentColor" stroke-width="2" stroke-linecap="round" stroke-linejoin="round"/>
</svg>
