<svg width="24" height="25" viewBox="0 0 24 25" fill="none" xmlns="http://www.w3.org/2000/svg">
<path d="M8.25003 15.1689C10.9424 15.1689 13.125 12.9863 13.125 10.2939C13.125 7.60156 10.9424 5.41895 8.25003 5.41895C5.55764 5.41895 3.37503 7.60156 3.37503 10.2939C3.37503 12.9863 5.55764 15.1689 8.25003 15.1689Z" stroke="#currentColor" stroke-miterlimit="10"/>
<path d="M14.5699 5.60043C15.2405 5.41152 15.9437 5.36848 16.6322 5.47422C17.3208 5.57997 17.9787 5.83203 18.5616 6.21345C19.1445 6.59486 19.639 7.09677 20.0116 7.68536C20.3842 8.27395 20.6264 8.93555 20.7218 9.62562C20.8172 10.3157 20.7636 11.0182 20.5646 11.6858C20.3657 12.3534 20.026 12.9706 19.5684 13.4959C19.1108 14.0211 18.5459 14.4422 17.9119 14.7308C17.2779 15.0194 16.5893 15.1688 15.8927 15.1688" stroke="#currentColor" stroke-linecap="round" stroke-linejoin="round"/>
<path d="M1.49963 18.6749C2.26101 17.5919 3.27178 16.708 4.44662 16.0978C5.62145 15.4876 6.92586 15.169 8.24971 15.1689C9.57356 15.1689 10.878 15.4874 12.0529 16.0975C13.2278 16.7076 14.2386 17.5914 15.0001 18.6744" stroke="#currentColor" stroke-linecap="round" stroke-linejoin="round"/>
<path d="M15.8927 15.1689C17.2167 15.168 18.5214 15.4861 19.6964 16.0963C20.8713 16.7065 21.882 17.5908 22.6427 18.6744" stroke="#currentColor" stroke-linecap="round" stroke-linejoin="round"/>
</svg>
