<svg width="31" height="30" viewBox="0 0 31 30" fill="none" xmlns="http://www.w3.org/2000/svg">
<path d="M24.5913 4.6875H5.84131C5.32354 4.6875 4.90381 5.10723 4.90381 5.625V24.375C4.90381 24.8928 5.32354 25.3125 5.84131 25.3125H24.5913C25.1091 25.3125 25.5288 24.8928 25.5288 24.375V5.625C25.5288 5.10723 25.1091 4.6875 24.5913 4.6875Z" stroke="black" stroke-opacity="0.5" stroke-linejoin="round"/>
<path d="M20.8413 2.8125V6.5625" stroke="black" stroke-opacity="0.5" stroke-linejoin="round"/>
<path d="M9.59131 2.8125V6.5625" stroke="black" stroke-opacity="0.5" stroke-linejoin="round"/>
<path d="M4.90381 10.3125H25.5288" stroke="black" stroke-opacity="0.5" stroke-linejoin="round"/>
<path d="M10.9976 14.9995H14.2788L12.4038 17.3433C12.7121 17.3433 13.0156 17.4193 13.2876 17.5646C13.5595 17.7099 13.7913 17.92 13.9627 18.1763C14.134 18.4326 14.2394 18.7272 14.2697 19.0341C14.3 19.3409 14.2542 19.6504 14.1363 19.9353C14.0184 20.2201 13.8321 20.4715 13.5938 20.6672C13.3556 20.8629 13.0728 20.9968 12.7704 21.0571C12.4681 21.1174 12.1556 21.1022 11.8605 21.0128C11.5654 20.9235 11.2969 20.7628 11.0788 20.5449" stroke="black" stroke-opacity="0.5" stroke-linejoin="round"/>
<path d="M17.0913 16.406L18.9663 14.9998V21.0935" stroke="black" stroke-opacity="0.5" stroke-linejoin="round"/>
</svg>
