<svg width="20" height="20" viewBox="0 0 20 20" fill="none" xmlns="http://www.w3.org/2000/svg">
<circle cx="10" cy="10" r="10" fill="#32B3C7"/>
<path d="M9.99869 15.07C9.79335 15.07 9.62069 15.014 9.48069 14.902C9.35002 14.79 9.28469 14.622 9.28469 14.398V8.714C9.28469 8.49 9.35002 8.322 9.48069 8.21C9.62069 8.08867 9.79335 8.028 9.99869 8.028C10.204 8.028 10.372 8.08867 10.5027 8.21C10.6334 8.322 10.6987 8.49 10.6987 8.714V14.398C10.6987 14.622 10.6334 14.79 10.5027 14.902C10.372 15.014 10.204 15.07 9.99869 15.07ZM9.99869 6.656C9.72802 6.656 9.51335 6.58133 9.35469 6.432C9.19602 6.28267 9.11669 6.08667 9.11669 5.844C9.11669 5.60133 9.19602 5.41 9.35469 5.27C9.51335 5.12067 9.72802 5.046 9.99869 5.046C10.26 5.046 10.47 5.12067 10.6287 5.27C10.7967 5.41 10.8807 5.60133 10.8807 5.844C10.8807 6.08667 10.8014 6.28267 10.6427 6.432C10.484 6.58133 10.2694 6.656 9.99869 6.656Z" fill="white"/>
</svg>
