<svg width="24" height="25" viewBox="0 0 24 25" fill="none" xmlns="http://www.w3.org/2000/svg">
<path d="M14.2495 19.6682V15.1681C14.2495 14.9692 14.1704 14.7784 14.0298 14.6378C13.8891 14.4971 13.6984 14.4181 13.4995 14.4181H10.4995C10.3005 14.4181 10.1098 14.4971 9.96912 14.6378C9.82847 14.7784 9.74945 14.9692 9.74945 15.1681V19.6682C9.74945 19.8671 9.67045 20.0579 9.52981 20.1985C9.38918 20.3392 9.19844 20.4182 8.99954 20.4182L4.50009 20.4188C4.40159 20.4188 4.30406 20.3994 4.21305 20.3617C4.12205 20.3241 4.03936 20.2688 3.9697 20.1992C3.90005 20.1295 3.8448 20.0468 3.8071 19.9558C3.7694 19.8648 3.75 19.7673 3.75 19.6688V11.0006C3.75 10.8962 3.77183 10.7928 3.8141 10.6973C3.85637 10.6017 3.91814 10.516 3.99545 10.4457L11.4949 3.62685C11.633 3.50133 11.8129 3.43177 11.9995 3.43176C12.186 3.43176 12.3659 3.5013 12.504 3.62682L20.0045 10.4457C20.0818 10.516 20.1436 10.6017 20.1859 10.6973C20.2282 10.7928 20.25 10.8962 20.25 11.0007V19.6688C20.25 19.7673 20.2306 19.8649 20.1929 19.9559C20.1552 20.0469 20.1 20.1295 20.0303 20.1992C19.9606 20.2688 19.878 20.3241 19.7869 20.3618C19.6959 20.3994 19.5984 20.4188 19.4999 20.4188L14.9994 20.4182C14.8005 20.4182 14.6097 20.3392 14.4691 20.1985C14.3285 20.0579 14.2494 19.8671 14.2495 19.6682V19.6682Z" stroke="#currentColor" stroke-linecap="round" stroke-linejoin="round"/>
</svg>
