<svg width="60" height="60" viewBox="0 0 60 60" fill="none" xmlns="http://www.w3.org/2000/svg">
<rect width="60" height="60" rx="30" fill="white"/>
<path d="M25.1566 45.01C24.1086 44.9531 23.1225 44.4961 22.4016 43.7333C21.5392 42.9037 20.7697 41.9827 20.1066 40.9867C19.0707 39.5033 18.2519 37.8797 17.6749 36.165C17.0213 34.3203 16.6772 32.3803 16.6566 30.4233C16.6063 28.5031 17.0824 26.6057 18.0332 24.9367C18.7292 23.7335 19.7219 22.7288 20.9166 22.0183C22.098 21.3109 23.4462 20.9302 24.8232 20.915C25.8612 20.9764 26.8813 21.2137 27.8399 21.6167C28.6041 21.9529 29.4085 22.1893 30.2332 22.32C31.1432 22.1293 32.0325 21.8502 32.8882 21.4867C33.901 21.0912 34.9733 20.8697 36.0599 20.8317C36.2049 20.8317 36.3482 20.8317 36.4866 20.8483C38.8691 20.9174 41.0851 22.087 42.4866 24.015C40.2582 25.2064 38.8899 27.5505 38.9482 30.0767C38.9262 31.9926 39.7251 33.8265 41.1432 35.115C41.7814 35.723 42.5245 36.2104 43.3366 36.5533C43.1699 37.0533 42.9782 37.5367 42.7749 38.0233C42.3127 39.0988 41.7425 40.1246 41.0732 41.085C40.4413 42.047 39.7058 42.9367 38.8799 43.7383C38.1259 44.4865 37.1209 44.9278 36.0599 44.9767C35.1605 44.9368 34.2769 44.7258 33.4566 44.355C32.5719 43.9696 31.6212 43.7585 30.6566 43.7333C29.6647 43.7528 28.6858 43.9627 27.7732 44.3517C26.985 44.7073 26.1428 44.9287 25.2816 45.0067L25.1566 45.01ZM30.4066 20.8317C30.2816 20.8317 30.1566 20.8317 30.0316 20.8167C30.0053 20.6183 29.9913 20.4184 29.9899 20.2183C30.0444 18.5536 30.695 16.9637 31.8232 15.7383C32.4538 15.0343 33.2181 14.4627 34.0716 14.0567C34.868 13.6467 35.7384 13.4002 36.6316 13.3317C36.6566 13.55 36.6566 13.7633 36.6566 13.9667C36.633 15.6052 36.0173 17.18 34.9232 18.4C33.8508 19.838 32.1974 20.7281 30.4066 20.8317Z" fill="#7C7C7C"/>
</svg>
