<svg width="23" height="23" viewBox="0 0 23 23" fill="none" xmlns="http://www.w3.org/2000/svg">
<path d="M7.90625 14.375C10.4865 14.375 12.5781 12.2833 12.5781 9.70312C12.5781 7.12292 10.4865 5.03125 7.90625 5.03125C5.32604 5.03125 3.23438 7.12292 3.23438 9.70312C3.23438 12.2833 5.32604 14.375 7.90625 14.375Z" stroke="#112577" stroke-width="1.5" stroke-miterlimit="10"/>
<path d="M13.9629 5.20537C14.6055 5.02432 15.2794 4.98308 15.9393 5.08442C16.5991 5.18575 17.2296 5.42732 17.7882 5.79284C18.3469 6.15836 18.8207 6.63936 19.1778 7.20342C19.5349 7.76749 19.767 8.40153 19.8584 9.06284C19.9498 9.72415 19.8985 10.3974 19.7078 11.0372C19.5171 11.6769 19.1916 12.2685 18.753 12.7718C18.3145 13.2752 17.7732 13.6788 17.1656 13.9553C16.558 14.2319 15.8981 14.375 15.2305 14.3751" stroke="#112577" stroke-width="1.5" stroke-linecap="round" stroke-linejoin="round"/>
<path d="M1.43726 17.7349C2.16691 16.697 3.13557 15.8499 4.26145 15.2651C5.38733 14.6803 6.63739 14.375 7.90608 14.375C9.17477 14.375 10.4249 14.6802 11.5508 15.2648C12.6767 15.8495 13.6454 16.6965 14.3752 17.7344" stroke="#112577" stroke-width="1.5" stroke-linecap="round" stroke-linejoin="round"/>
<path d="M15.2305 14.375C16.4993 14.3741 17.7496 14.6789 18.8756 15.2637C20.0017 15.8484 20.9702 16.6959 21.6992 17.7344" stroke="#112577" stroke-width="1.5" stroke-linecap="round" stroke-linejoin="round"/>
</svg>
