<svg width="56" height="56" viewBox="0 0 56 56" fill="none" xmlns="http://www.w3.org/2000/svg">
<path d="M21 47.2497H10.5C10.0359 47.2497 9.59075 47.0654 9.26256 46.7372C8.93437 46.409 8.75 45.9639 8.75 45.4997V35.7246C8.75 35.4948 8.79526 35.2672 8.88321 35.0549C8.97116 34.8426 9.10006 34.6497 9.26256 34.4872L35.5126 8.23717C35.8408 7.90898 36.2859 7.72461 36.75 7.72461C37.2141 7.72461 37.6592 7.90898 37.9874 8.23717L47.7626 18.0123C48.0908 18.3405 48.2751 18.7856 48.2751 19.2497C48.2751 19.7139 48.0908 20.159 47.7626 20.4872L21 47.2497Z" stroke="#304D95" stroke-width="3" stroke-linecap="round" stroke-linejoin="round"/>
<path d="M29.75 14L42 26.25" stroke="#304D95" stroke-width="3" stroke-linecap="round" stroke-linejoin="round"/>
</svg>
