<svg width="23" height="23" viewBox="0 0 23 23" fill="none" xmlns="http://www.w3.org/2000/svg">
<path d="M1.4375 19.4048H21.5625" stroke="#112577" stroke-width="1.5" stroke-linecap="round" stroke-linejoin="round"/>
<path d="M12.937 19.4048V3.59228C12.937 3.40166 12.8613 3.21884 12.7265 3.08405C12.5917 2.94926 12.4089 2.87354 12.2183 2.87354H3.59326C3.40264 2.87354 3.21982 2.94926 3.08503 3.08405C2.95024 3.21884 2.87451 3.40166 2.87451 3.59228V19.4048" stroke="#112577" stroke-width="1.5" stroke-linecap="round" stroke-linejoin="round"/>
<path d="M20.1245 19.4048V9.34229C20.1245 9.15166 20.0488 8.96884 19.914 8.83405C19.7792 8.69926 19.5964 8.62354 19.4058 8.62354H12.937" stroke="#112577" stroke-width="1.5" stroke-linecap="round" stroke-linejoin="round"/>
<path d="M5.74951 6.46729H8.62451" stroke="#112577" stroke-width="1.5" stroke-linecap="round" stroke-linejoin="round"/>
<path d="M7.18701 12.2173H10.062" stroke="#112577" stroke-width="1.5" stroke-linecap="round" stroke-linejoin="round"/>
<path d="M5.74951 15.811H8.62451" stroke="#112577" stroke-width="1.5" stroke-linecap="round" stroke-linejoin="round"/>
<path d="M15.812 15.811H17.2495" stroke="#112577" stroke-width="1.5" stroke-linecap="round" stroke-linejoin="round"/>
<path d="M15.812 12.2173H17.2495" stroke="#112577" stroke-width="1.5" stroke-linecap="round" stroke-linejoin="round"/>
</svg>
