<svg width="39" height="40" viewBox="0 0 39 40" fill="none" xmlns="http://www.w3.org/2000/svg">
<path d="M25.9356 22.0519C24.4287 24.1145 21.985 27.1054 18.1974 30.3368C13.3508 34.4278 4.55369 40.4094 1.62131 39.2062C-0.211423 38.4499 0.725307 35.0466 1.58058 31.8838C1.98786 30.3368 2.15077 30.4744 4.10568 25.9709C6.14206 21.2268 6.46788 19.9205 8.30061 17.8578C9.27807 16.7234 10.1741 15.7608 11.8846 14.7639C12.3734 14.4889 13.2286 13.9388 14.4505 13.4919C14.7763 13.3888 19.0527 11.8418 22.1072 12.5981C25.4469 13.4232 27.7276 16.964 26.4243 21.1237L25.9356 22.0519Z" fill="#FFD834"/>
<g opacity="0.56">
<g opacity="0.56">
<path opacity="0.56" d="M19.4189 18.2716C19.0116 17.9278 18.2785 17.3778 17.3011 16.9653C16.3236 16.5527 15.4683 16.4152 14.9389 16.3809" stroke="#603913" stroke-width="1.23009" stroke-miterlimit="10" stroke-linecap="round"/>
</g>
</g>
<g opacity="0.56">
<g opacity="0.56">
<path opacity="0.56" d="M16.7719 18.5454C16.5683 18.3735 16.2017 18.0985 15.713 17.8922C15.2243 17.6859 14.817 17.6172 14.5319 17.6172" stroke="#603913" stroke-width="1.23009" stroke-miterlimit="10" stroke-linecap="round"/>
</g>
</g>
<g opacity="0.56">
<g opacity="0.56">
<path opacity="0.56" d="M8.34111 35.7681C8.05602 35.4587 7.60801 35.0118 7.03783 34.6336C6.46764 34.2211 5.97891 34.0492 5.69382 33.9805" stroke="#603913" stroke-width="1.23009" stroke-miterlimit="10" stroke-linecap="round"/>
</g>
</g>
<g opacity="0.56">
<g opacity="0.56">
<path opacity="0.56" d="M7.24181 36.3891C7.16035 36.2173 6.95672 35.8735 6.50872 35.5985C6.18291 35.3922 5.81637 35.2891 5.61273 35.2891" stroke="#603913" stroke-width="1.23009" stroke-miterlimit="10" stroke-linecap="round"/>
</g>
</g>
<path d="M24.1844 0.842078C24.9583 0.910833 25.6099 3.59227 25.3248 5.96432C24.999 9.05829 23.1255 12.0148 22.2702 11.8772C21.3742 11.7054 21.5371 8.23323 21.9444 5.92994C22.3517 3.93605 23.3292 0.8077 24.1844 0.842078Z" fill="#FF6D03"/>
<path d="M34.0807 0.0156847C34.8138 0.256327 33.7142 3.48781 31.9629 6.16925C29.6822 9.64137 25.9353 12.6322 25.1614 12.2884C24.3876 11.9103 26.7905 7.9225 28.6233 5.37857C30.2931 3.14403 33.2662 -0.259335 34.0807 0.0156847Z" fill="#FF6D03"/>
<path d="M27.076 13.7662C26.8316 13.2849 29.2346 12.0129 31.5967 11.4285C34.692 10.6378 38.2353 10.8097 38.3982 11.3598C38.5611 11.9442 35.14 12.9755 32.7778 13.4568C30.7007 13.8693 27.3204 14.2818 27.076 13.7662Z" fill="#FF6D03"/>
</svg>
