<svg width="23" height="23" viewBox="0 0 23 23" fill="none" xmlns="http://www.w3.org/2000/svg">
<path d="M16.1538 10.4039L16.5929 10.843C16.7264 10.9765 16.8323 11.135 16.9045 11.3094C16.9768 11.4838 17.014 11.6707 17.014 11.8595C17.014 12.0483 16.9768 12.2352 16.9045 12.4096C16.8323 12.584 16.7264 12.7425 16.5929 12.8759L15.9614 13.5075C15.8266 13.6423 15.6438 13.718 15.4531 13.718C15.2625 13.718 15.0797 13.6423 14.9449 13.5075L9.49262 8.05521C9.35783 7.92042 9.2821 7.7376 9.2821 7.54698C9.2821 7.35635 9.35783 7.17353 9.49262 7.03874L10.1242 6.40719C10.2577 6.27371 10.4161 6.16782 10.5905 6.09558C10.7649 6.02334 10.9519 5.98616 11.1406 5.98616C11.3294 5.98616 11.5163 6.02334 11.6907 6.09558C11.8652 6.16782 12.0236 6.27371 12.1571 6.40719L12.5962 6.84628L15.0748 4.36766C16.0441 3.39841 17.6233 3.33903 18.6188 4.28136C18.8632 4.51239 19.0588 4.79008 19.194 5.098C19.3292 5.40593 19.4013 5.73784 19.406 6.07412C19.4107 6.41039 19.348 6.7442 19.2215 7.05581C19.095 7.36741 18.9073 7.65049 18.6695 7.88829L16.1538 10.4039Z" stroke="#112577" stroke-width="2" stroke-linecap="round" stroke-linejoin="round"/>
<path d="M14.2516 12.8143L9.22038 17.8455C8.86362 18.2026 8.41911 18.4594 7.93158 18.5901C7.44405 18.7208 6.9307 18.7208 6.44317 18.5901L4.34062 19.508C4.20822 19.5658 4.06147 19.5823 3.91951 19.5555C3.77755 19.5286 3.64698 19.4596 3.54482 19.3575V19.3575C3.47148 19.2841 3.42194 19.1904 3.40266 19.0885C3.38339 18.9865 3.39528 18.8812 3.43678 18.7861L4.40997 16.5569C4.27925 16.0694 4.27925 15.556 4.40995 15.0685C4.54065 14.5809 4.79745 14.1364 5.15452 13.7797L10.1858 8.74841" stroke="#112577" stroke-width="2" stroke-linecap="round" stroke-linejoin="round"/>
</svg>
