<svg width="24" height="25" viewBox="0 0 24 25" fill="none" xmlns="http://www.w3.org/2000/svg">
<path d="M16.5156 9.84766H21.0156V5.34766" stroke="white" stroke-width="2" stroke-linecap="round" stroke-linejoin="round"/>
<path d="M6.16638 6.66637C6.93247 5.90029 7.84194 5.2926 8.84287 4.87799C9.84381 4.46339 10.9166 4.25 12 4.25C13.0834 4.25 14.1562 4.46339 15.1572 4.87799C16.1581 5.2926 17.0676 5.90029 17.8336 6.66637L21.0156 9.84835" stroke="white" stroke-width="2" stroke-linecap="round" stroke-linejoin="round"/>
<path d="M7.48438 15.1523H2.98438V19.6523" stroke="white" stroke-width="2" stroke-linecap="round" stroke-linejoin="round"/>
<path d="M17.8336 18.3343C17.0675 19.1004 16.1581 19.7081 15.1571 20.1227C14.1562 20.5373 13.0834 20.7507 12 20.7507C10.9166 20.7507 9.84378 20.5373 8.84285 20.1227C7.84191 19.7081 6.93244 19.1004 6.16635 18.3343L2.98438 15.1523" stroke="white" stroke-width="2" stroke-linecap="round" stroke-linejoin="round"/>
</svg>
