<svg width="124" height="112" xmlns="http://www.w3.org/2000/svg">
 <g>
  <title>Layer 1</title>
  <g id="svg_1" stroke="null">
   <path id="svg_2" d="m72.94827,56.82588c5.637,3.3693 13.7126,8.7499 22.2299,16.7229c10.8854,10.196 26.5064,28.348 22.7604,33.552c-2.368,3.281 -11.84,0.618 -20.6222,-1.834c-4.3294,-1.218 -3.8699,-1.464 -16.2925,-6.298c-13.0588,-5.08 -16.6637,-6.015 -22.283,-10.02c-3.0394,-2.169 -5.6724,-4.092 -8.1993,-7.567c-0.7422,-1.024 -2.0852,-2.77 -3.1984,-5.204c-0.2828,-0.635 -4.029,-9.138 -1.5197,-14.6948c2.7036,-5.9801 13.0588,-9.3494 24.5448,-5.8214l2.58,1.1643z" fill="#E87E24" stroke="null"/>
   <path id="svg_3" d="m6.98294,62.91178c0.03534,-1.9051 8.18163,-3.8808 15.55033,-3.6338c9.56,0.3175 19.0846,4.3928 18.7842,6.4738c-0.3181,2.152 -11.1504,2.364 -18.254,1.711c-6.2379,-0.599 -16.0982,-2.452 -16.08053,-4.551z" fill="#397E44" stroke="null"/>
   <path id="svg_4" d="m2.6359,38.97378c0.60081,-1.8346 10.76157,0.2823 19.31427,4.1632c11.115,5.0275 21.0636,13.6713 20.0741,15.5411c-1.0249,1.9229 -13.7833,-3.2281 -21.8942,-7.356c-7.1567,-3.6516 -18.16566,-10.3196 -17.49417,-12.3483z" fill="#397E44" stroke="null"/>
   <path id="svg_5" d="m46.22987,53.86218c-1.4667,0.6174 -5.7607,-4.9393 -8.0579,-10.6371c-3.004,-7.409 -3.1101,-16.0528 -1.396,-16.5291c1.7671,-0.4939 5.6017,7.7089 7.4925,13.3538c1.6787,4.9569 3.5871,13.1245 1.9614,13.8124z" fill="#397E44" stroke="null"/>
   <path id="svg_6" opacity="0.56" d="m57.46867,69.68578c-1.1486,0.441 -2.9157,1.306 -4.6651,2.876c-1.7848,1.622 -2.8273,3.334 -3.3928,4.427" stroke-width="0.25" stroke-miterlimit="10" stroke-linecap="round" stroke="#603913"/>
   <path id="svg_7" opacity="0.56" d="m54.25257,75.17178c-0.4418,0.23 -1.1309,0.653 -1.8201,1.447c-0.7068,0.811 -1.1132,1.658 -1.3253,2.223" stroke-width="0.25" stroke-miterlimit="10" stroke-linecap="round" stroke="#603913"/>
   <path id="svg_8" opacity="0.56" d="m112.03657,93.83578c-0.442,0.229 -1.131,0.652 -1.82,1.446c-0.707,0.812 -1.114,1.659 -1.326,2.223" stroke-width="0.25" stroke-miterlimit="10" stroke-linecap="round" stroke="#603913"/>
   <path id="svg_9" opacity="0.56" d="m112.42557,95.19378c-0.319,0.159 -0.813,0.459 -1.29,0.953c-0.478,0.511 -0.743,1.041 -0.884,1.376" stroke-width="0.25" stroke-miterlimit="10" stroke-linecap="round" stroke="#603913"/>
   <path id="svg_10" d="m113.15157,40.02648c1.839,4.0012 4.264,10.0392 5.95,17.6788c2.152,9.7665 3.905,25.7295 -0.14,27.1855c-2.554,0.917 -6.782,-4.149 -10.708,-8.836c-1.932,-2.315 -1.585,-2.277 -6.6207,-9.661c-5.2942,-7.7628 -6.933,-9.647 -8.5216,-13.9926c-0.8577,-2.3526 -1.5844,-4.4145 -1.6636,-7.2946c-0.0224,-0.8473 -0.1026,-2.3224 0.2051,-4.0908c0.0845,-0.4584 1.2378,-6.581 4.7329,-8.702c3.7632,-2.2814 10.7669,-0.217 15.7809,6.0904l0.985,1.6223z" fill="#E87E24" stroke="null"/>
   <path id="svg_11" d="m74.02837,17.82518c0.6109,-0.7536 5.8682,1.8423 9.9931,5.0107c5.3524,4.1095 9.5195,9.7195 8.7028,10.4339c-0.8486,0.7355 -7.0905,-3.6904 -10.9384,-6.9121c-3.3707,-2.8397 -8.4184,-7.6932 -7.7575,-8.5325z" fill="#397E44" stroke="null"/>
   <path id="svg_12" d="m79.80917,3.40678c0.9349,-0.5241 6.2084,4.8948 9.9798,10.3606c4.9063,7.0964 7.9802,15.2338 6.8065,15.6007c-1.2113,0.3739 -7.0401,-7.5046 -10.4744,-12.8809c-3.0274,-4.7478 -7.35,-12.5041 -6.3119,-13.0804z" fill="#397E44" stroke="null"/>
   <path id="svg_13" d="m100.37317,28.17458c-1.1455,-0.443 -1.9562,-5.4111 -1.4489,-9.4274c0.6489,-5.231 3.5663,-9.5941 4.8203,-8.9541c1.294,0.6584 0.899,6.7103 0.151,10.4921c-0.644,3.3303 -2.2514,8.3787 -3.5224,7.8894z" fill="#397E44" stroke="null"/>
   <path id="svg_14" opacity="0.56" d="m99.71397,41.26658c-0.8024,-0.1918 -2.1074,-0.3841 -3.6702,-0.1794c-1.6025,0.2205 -2.828,0.7713 -3.5555,1.1616" stroke-width="0.25" stroke-miterlimit="10" stroke-linecap="round" stroke="#603913"/>
   <path id="svg_15" opacity="0.56" d="m95.85477,43.08058c-0.3312,-0.0408 -0.8729,-0.068 -1.5551,0.1095c-0.6986,0.1807 -1.2445,0.4947 -1.5758,0.7265" stroke-width="0.25" stroke-miterlimit="10" stroke-linecap="round" stroke="#603913"/>
   <path id="svg_16" opacity="0.56" d="m120.72857,75.31678c-0.331,-0.04 -0.872,-0.068 -1.555,0.11c-0.698,0.181 -1.244,0.495 -1.575,0.726" stroke-width="0.25" stroke-miterlimit="10" stroke-linecap="round" stroke="#603913"/>
   <path id="svg_17" opacity="0.56" d="m120.42857,76.21578c-0.236,-0.033 -0.623,-0.055 -1.074,0.037c-0.458,0.102 -0.806,0.294 -1.011,0.426" stroke-width="0.25" stroke-miterlimit="10" stroke-linecap="round" stroke="#603913"/>
  </g>
 </g>

</svg>