<svg width="22" height="27" viewBox="0 0 22 27" fill="none" xmlns="http://www.w3.org/2000/svg">
<path d="M14.6431 15.0792C13.7733 16.4897 12.3628 18.5348 10.1766 20.7446C7.37915 23.542 2.30145 27.6324 0.60889 26.8096C-0.448963 26.2924 0.0917172 23.9651 0.585382 21.8024C0.82046 20.7446 0.914492 20.8386 2.04287 17.7591C3.21826 14.515 3.40632 13.6217 4.46418 12.2112C5.02836 11.4355 5.54554 10.7773 6.53287 10.0955C6.81496 9.90746 7.30862 9.53134 8.01386 9.22574C8.20192 9.15521 10.6702 8.09736 12.4333 8.61453C14.361 9.17872 15.6774 11.6 14.9252 14.4445L14.6431 15.0792Z" fill="#E87E24"/>
<g opacity="0.56">
<g opacity="0.56">
<path opacity="0.56" d="M10.8822 12.4931C10.6472 12.258 10.224 11.8819 9.65984 11.5998C9.09565 11.3177 8.60199 11.2237 8.29639 11.2002" stroke="#603913" stroke-miterlimit="10" stroke-linecap="round"/>
</g>
</g>
<g opacity="0.56">
<g opacity="0.56">
<path opacity="0.56" d="M9.35397 12.6816C9.23643 12.564 9.02486 12.376 8.74276 12.2349C8.46067 12.0939 8.22559 12.0469 8.06104 12.0469" stroke="#603913" stroke-miterlimit="10" stroke-linecap="round"/>
</g>
</g>
<g opacity="0.56">
<g opacity="0.56">
<path opacity="0.56" d="M4.48797 24.4587C4.32342 24.2472 4.06483 23.9416 3.73572 23.683C3.40661 23.4009 3.12452 23.2833 2.95996 23.2363" stroke="#603913" stroke-miterlimit="10" stroke-linecap="round"/>
</g>
</g>
<g opacity="0.56">
<g opacity="0.56">
<path opacity="0.56" d="M3.8534 24.8821C3.80638 24.7646 3.68884 24.5295 3.43026 24.3415C3.2422 24.2004 3.03063 24.1299 2.91309 24.1299" stroke="#603913" stroke-miterlimit="10" stroke-linecap="round"/>
</g>
</g>
<path d="M13.6325 0.574899C14.0792 0.621915 14.4553 2.45553 14.2907 4.07757C14.1027 6.19327 13.0213 8.21495 12.5276 8.12092C12.0105 8.00338 12.1045 5.62909 12.3396 4.05406C12.5746 2.69061 13.1388 0.551391 13.6325 0.574899Z" fill="#4FAB56"/>
<path d="M19.3446 0.0107255C19.7677 0.17528 19.133 2.38502 18.1222 4.21863C16.8057 6.59292 14.643 8.6381 14.1964 8.40302C13.7497 8.14444 15.1367 5.41753 16.1945 3.67795C17.1583 2.14994 18.8744 -0.177337 19.3446 0.0107255Z" fill="#4FAB56"/>
<path d="M15.3014 9.41361C15.1604 9.0845 16.5473 8.21471 17.9108 7.81508C19.6974 7.2744 21.7426 7.39194 21.8366 7.76807C21.9306 8.1677 19.956 8.87293 18.5925 9.20204C17.3936 9.48414 15.4425 9.76623 15.3014 9.41361Z" fill="#4FAB56"/>
</svg>
