<svg width="17" height="20" viewBox="0 0 17 20" fill="none" xmlns="http://www.w3.org/2000/svg">
<path d="M10.8802 11.2042C10.2339 12.2523 9.18591 13.7719 7.56148 15.4138C5.48291 17.4924 1.71005 20.5316 0.452422 19.9203C-0.333592 19.536 0.0681484 17.8068 0.434955 16.1998C0.609625 15.4138 0.679493 15.4837 1.51791 13.1955C2.39126 10.785 2.53099 10.1213 3.31701 9.07328C3.73622 8.49687 4.12049 8.00779 4.8541 7.50125C5.06371 7.36151 5.43051 7.08204 5.95452 6.85497C6.09426 6.80257 7.92829 6.01655 9.23831 6.40083C10.6706 6.82003 11.6488 8.61913 11.0898 10.7326L10.8802 11.2042Z" fill="#E87E24"/>
<g opacity="0.56">
<g opacity="0.56">
<path opacity="0.56" d="M8.08543 9.28295C7.91076 9.10828 7.59636 8.82881 7.17715 8.6192C6.75794 8.4096 6.39113 8.33973 6.16406 8.32227" stroke="#603913" stroke-miterlimit="10" stroke-linecap="round"/>
</g>
</g>
<g opacity="0.56">
<g opacity="0.56">
<path opacity="0.56" d="M6.94994 9.42278C6.86261 9.33545 6.7054 9.19571 6.4958 9.09091C6.2862 8.98611 6.11153 8.95117 5.98926 8.95117" stroke="#603913" stroke-miterlimit="10" stroke-linecap="round"/>
</g>
</g>
<g opacity="0.56">
<g opacity="0.56">
<path opacity="0.56" d="M3.33457 18.1734C3.2123 18.0162 3.02017 17.7891 2.77563 17.597C2.53109 17.3874 2.32149 17.3001 2.19922 17.2651" stroke="#603913" stroke-miterlimit="10" stroke-linecap="round"/>
</g>
</g>
<g opacity="0.56">
<g opacity="0.56">
<path opacity="0.56" d="M2.86323 18.4881C2.8283 18.4008 2.74096 18.2261 2.54882 18.0864C2.40909 17.9816 2.25189 17.9292 2.16455 17.9292" stroke="#603913" stroke-miterlimit="10" stroke-linecap="round"/>
</g>
</g>
<path d="M10.1296 0.427389C10.4614 0.462323 10.7409 1.82475 10.6186 3.02997C10.4789 4.602 9.67543 6.10416 9.30862 6.03429C8.92435 5.94696 8.99422 4.18279 9.16889 3.0125C9.34356 1.99942 9.76276 0.409922 10.1296 0.427389Z" fill="#4FAB56"/>
<path d="M14.3735 0.00796933C14.688 0.130238 14.2163 1.77213 13.4653 3.13456C12.4871 4.89872 10.8801 6.41835 10.5483 6.24368C10.2164 6.05155 11.247 4.02538 12.033 2.73282C12.7491 1.59746 14.0242 -0.131767 14.3735 0.00796933Z" fill="#4FAB56"/>
<path d="M11.3692 6.99474C11.2644 6.75021 12.2949 6.10393 13.308 5.80699C14.6355 5.40525 16.1551 5.49258 16.225 5.77205C16.2949 6.06899 14.8277 6.593 13.8146 6.83754C12.9238 7.04714 11.474 7.25675 11.3692 6.99474Z" fill="#4FAB56"/>
</svg>
