<svg width="158" height="123" viewBox="0 0 158 123" fill="none" xmlns="http://www.w3.org/2000/svg">
<path d="M70.3417 70.3223C75.9787 73.6917 84.0543 79.072 92.5716 87.0455C103.457 97.2416 119.078 115.394 115.332 120.598C112.964 123.879 103.492 121.215 94.7098 118.763C90.3804 117.546 90.8399 117.299 78.4173 112.465C65.3585 107.385 61.7536 106.45 56.1343 102.446C53.0949 100.276 50.4619 98.353 47.935 94.8778C47.1928 93.8547 45.8498 92.1082 44.7366 89.6739C44.4538 89.0388 40.7076 80.5361 43.2169 74.9794C45.9205 68.9993 56.2757 65.63 67.7617 69.1581L70.3417 70.3223Z" fill="#BDBDBD"/>
<path d="M4.37637 76.4088C4.41171 74.5037 12.558 72.5279 19.9267 72.7749C29.4867 73.0924 39.0113 77.1674 38.7109 79.2489C38.3928 81.401 27.5605 81.6127 20.4569 80.96C14.219 80.3603 4.3587 78.508 4.37637 76.4088Z" fill="#BDBDBD"/>
<path d="M0.0293323 52.47C0.630142 50.6354 10.7909 52.7523 19.3436 56.6332C30.4586 61.6607 40.4072 70.3045 39.4177 72.1743C38.3928 74.0972 25.6344 68.9462 17.5235 64.8183C10.3668 61.1667 -0.64216 54.4987 0.0293323 52.47Z" fill="#BDBDBD"/>
<path d="M43.6233 67.3594C42.1566 67.9768 37.8626 62.4201 35.5654 56.7222C32.5614 49.3133 32.4553 40.6695 34.1694 40.1932C35.9365 39.6992 39.7711 47.902 41.6619 53.547C43.3406 58.5039 45.249 66.6714 43.6233 67.3594Z" fill="#BDBDBD"/>
<path opacity="0.56" d="M54.8621 83.1836C53.7135 83.6246 51.9464 84.489 50.197 86.059C48.4122 87.6819 47.3697 89.393 46.8042 90.4867" stroke="#333333" stroke-width="0.25" stroke-miterlimit="10" stroke-linecap="round"/>
<path opacity="0.56" d="M51.646 88.6699C51.2042 88.8992 50.5151 89.3226 49.8259 90.1164C49.1191 90.9279 48.7127 91.7746 48.5006 92.3391" stroke="#333333" stroke-width="0.25" stroke-miterlimit="10" stroke-linecap="round"/>
<path opacity="0.56" d="M109.43 107.334C108.988 107.563 108.299 107.987 107.61 108.781C106.903 109.592 106.496 110.439 106.284 111.003" stroke="#333333" stroke-width="0.25" stroke-miterlimit="10" stroke-linecap="round"/>
<path opacity="0.56" d="M109.819 108.691C109.5 108.85 109.006 109.15 108.529 109.644C108.051 110.156 107.786 110.685 107.645 111.02" stroke="#333333" stroke-width="0.25" stroke-miterlimit="10" stroke-linecap="round"/>
<path d="M110.545 53.5227C112.384 57.5239 114.809 63.5619 116.495 71.2015C118.647 80.9683 120.4 96.9306 116.355 98.3873C113.801 99.3036 109.573 94.2383 105.647 89.5514C103.715 87.2363 104.062 87.2739 99.0263 79.8895C93.7321 72.1272 92.0933 70.243 90.5047 65.8974C89.647 63.5448 88.9203 61.4829 88.8411 58.6028C88.8187 57.7555 88.7385 56.2804 89.0462 54.512C89.1307 54.0536 90.284 47.931 93.7791 45.81C97.5423 43.5286 104.546 45.593 109.56 51.9004L110.545 53.5227Z" fill="#BDBDBD"/>
<path d="M71.5264 31.6519C72.178 30.7253 77.4343 32.9598 81.5146 35.9852C86.8092 39.9087 90.8382 45.6732 89.9785 46.5824C89.0854 47.5194 82.8967 43.3558 79.1006 40.2346C75.7761 37.4807 70.8205 32.6812 71.5264 31.6519Z" fill="#BDBDBD"/>
<path d="M77.5946 16.9519C78.5592 16.2667 83.687 21.4434 87.2949 26.8626C91.9891 33.8972 94.7922 42.2898 93.5922 42.8358C92.354 43.3943 86.7566 35.6332 83.486 30.2675C80.6034 25.5284 76.5239 17.7068 77.5946 16.9519Z" fill="#BDBDBD"/>
<path d="M97.4709 41.7217C96.3594 41.425 95.7331 36.628 96.3704 32.6081C97.1888 27.3736 100.209 22.7175 101.42 23.195C102.67 23.6858 102.073 29.6982 101.208 33.5165C100.459 36.8772 98.7043 42.0487 97.4709 41.7217Z" fill="#BDBDBD"/>
<path opacity="0.56" d="M97.1074 54.7632C96.305 54.5715 95 54.3792 93.4372 54.5839C91.8347 54.8044 90.6092 55.3551 89.8817 55.7455" stroke="#333333" stroke-width="0.25" stroke-miterlimit="10" stroke-linecap="round"/>
<path opacity="0.56" d="M93.2482 56.5778C92.917 56.537 92.3753 56.5097 91.6931 56.6873C90.9945 56.8679 90.4486 57.182 90.1173 57.4137" stroke="#333333" stroke-width="0.25" stroke-miterlimit="10" stroke-linecap="round"/>
<path opacity="0.56" d="M118.122 88.8141C117.791 88.7733 117.25 88.7461 116.567 88.9236C115.869 89.1043 115.323 89.4184 114.992 89.6501" stroke="#333333" stroke-width="0.25" stroke-miterlimit="10" stroke-linecap="round"/>
<path opacity="0.56" d="M117.822 89.713C117.586 89.6802 117.199 89.6584 116.748 89.7505C116.29 89.8525 115.942 90.0446 115.737 90.1763" stroke="#333333" stroke-width="0.25" stroke-miterlimit="10" stroke-linecap="round"/>
<path d="M155.52 79.44H148.56V86.24H143.4V79.44H136.48V74.56H143.4V67.76H148.56V74.56H155.52V79.44Z" fill="#BDBDBD"/>
</svg>
