<svg width="40" height="40" viewBox="0 0 40 40" fill="none" xmlns="http://www.w3.org/2000/svg">
<path d="M32.5 6.25H7.5C6.80964 6.25 6.25 6.80964 6.25 7.5V32.5C6.25 33.1904 6.80964 33.75 7.5 33.75H32.5C33.1904 33.75 33.75 33.1904 33.75 32.5V7.5C33.75 6.80964 33.1904 6.25 32.5 6.25Z" stroke="#333333" stroke-width="2" stroke-linecap="round" stroke-linejoin="round"/>
<path d="M27.5 3.75V8.75" stroke="#333333" stroke-width="2" stroke-linecap="round" stroke-linejoin="round"/>
<path d="M12.5 3.75V8.75" stroke="#333333" stroke-width="2" stroke-linecap="round" stroke-linejoin="round"/>
<path d="M6.25 13.75H33.75" stroke="#333333" stroke-width="2" stroke-linecap="round" stroke-linejoin="round"/>
<path d="M14.375 19.999H18.75L16.25 23.124C16.6611 23.124 17.0658 23.2254 17.4283 23.4191C17.7909 23.6129 18.1 23.893 18.3285 24.2348C18.5569 24.5765 18.6975 24.9693 18.7379 25.3784C18.7783 25.7875 18.7172 26.2002 18.56 26.58C18.4028 26.9599 18.1544 27.295 17.8367 27.5559C17.5191 27.8168 17.142 27.9954 16.7388 28.0758C16.3357 28.1561 15.919 28.1359 15.5256 28.0168C15.1321 27.8976 14.7742 27.6834 14.4833 27.3929" stroke="#333333" stroke-width="2" stroke-linecap="round" stroke-linejoin="round"/>
<path d="M22.5 21.875L25 20V28.125" stroke="#333333" stroke-width="2" stroke-linecap="round" stroke-linejoin="round"/>
</svg>
