<svg width="12" height="34" viewBox="0 0 12 34" fill="none" xmlns="http://www.w3.org/2000/svg">
<path d="M7.06253 12.4043C6.30431 12.4043 4.73766 12.6407 4.30439 13.1823C3.87113 13.7238 3.42557 14.5005 3.64528 15.8187L5.55837 30.2888C5.55837 31.2637 5.775 32.0219 6.20827 32.5635C6.64154 33.1051 6.94084 33.175 7.38024 33.175C7.81965 33.175 7.92293 33.1051 8.46451 32.5635C8.89778 32.0219 9.22273 31.2637 9.22273 30.2888L10.5409 15.2205C10.5409 14.354 10.3243 13.7041 9.78272 13.1625C9.24114 12.6209 8.25905 12.4043 7.06253 12.4043Z" fill="#FF6D03"/>
<path d="M0.393797 5.49338C0.721441 4.96766 2.55625 5.42767 3.93236 6.41341C5.70164 7.66202 6.81563 9.89636 6.42245 10.4221C6.02928 10.9478 3.93236 9.69921 2.68731 8.64775C1.63885 7.79344 0.0661525 6.08483 0.393797 5.49338Z" fill="#009444"/>
<path d="M6.61923 0.00235014C7.14674 -0.0816892 7.93801 2.10334 8.20176 4.12028C8.46552 6.80954 7.76217 9.66688 7.23466 9.66688C6.61923 9.66688 6.17963 6.7255 6.09171 4.70855C6.00379 2.94373 6.09172 0.0863895 6.61923 0.00235014Z" fill="#009444"/>
<path d="M11.2214 5.74767C10.932 5.53528 9.91927 6.38483 9.38879 7.39368C8.66541 8.66802 8.52074 10.3671 8.90654 10.5264C9.29234 10.7388 10.2086 9.35828 10.6426 8.34944C11.0767 7.49988 11.5589 6.01315 11.2214 5.74767Z" fill="#009444"/>
</svg>
