<svg width="10" height="30" viewBox="0 0 10 30" fill="none" xmlns="http://www.w3.org/2000/svg">
<path d="M6.07041 11.2173C5.38475 11.2173 3.96803 11.431 3.57623 11.9208C3.18442 12.4106 2.7815 13.1129 2.98019 14.3049L4.71019 27.3903C4.71019 28.2718 4.90609 28.9575 5.2979 29.4472C5.6897 29.937 5.96036 30.0002 6.35771 30.0002C6.75506 30.0002 6.84846 29.937 7.33822 29.4472C7.73002 28.9575 8.02388 28.2718 8.02388 27.3903L9.21593 13.764C9.21593 12.9804 9.02003 12.3927 8.53027 11.9029C8.04052 11.4132 7.15242 11.2173 6.07041 11.2173Z" fill="#FF6D03"/>
<path d="M0.0398484 4.96696C0.336137 4.49155 1.99535 4.90754 3.23977 5.79894C4.83972 6.92806 5.8471 8.94857 5.49156 9.42399C5.13601 9.8994 3.23977 8.77029 2.11387 7.81946C1.16575 7.04691 -0.25644 5.50181 0.0398484 4.96696Z" fill="#009444"/>
<path d="M5.66939 0.00212523C6.14642 -0.0738715 6.86196 1.90204 7.10047 3.72597C7.33898 6.15786 6.70295 8.74175 6.22592 8.74175C5.66939 8.74175 5.27186 6.08186 5.19236 4.25794C5.11285 2.66201 5.19236 0.078122 5.66939 0.00212523Z" fill="#009444"/>
<path d="M9.83131 5.19521C9.56965 5.00315 8.65384 5.7714 8.17413 6.6837C7.51998 7.83608 7.38915 9.37259 7.73803 9.51663C8.08691 9.7087 8.9155 8.46029 9.30799 7.54799C9.70048 6.77973 10.1366 5.43529 9.83131 5.19521Z" fill="#009444"/>
</svg>
