<svg width="32" height="32" viewBox="0 0 32 32" fill="none" xmlns="http://www.w3.org/2000/svg">
<path d="M21.1239 17.9264C19.8988 19.6032 17.9123 22.0346 14.8331 24.6616C10.8931 27.9873 3.74146 32.8501 1.35758 31.872C-0.132336 31.2572 0.629178 28.4904 1.32447 25.9193C1.65557 24.6616 1.78801 24.7734 3.37725 21.1124C5.03272 17.2557 5.2976 16.1937 6.78752 14.5168C7.58214 13.5946 8.31055 12.8121 9.70114 12.0016C10.0985 11.778 10.7937 11.3309 11.787 10.9676C12.0519 10.8837 15.5284 9.6261 18.0116 10.2409C20.7266 10.9117 22.5807 13.7902 21.5212 17.1718L21.1239 17.9264Z" fill="#FF6D03"/>
<g opacity="0.56">
<g opacity="0.56">
<path opacity="0.56" d="M15.8261 14.8535C15.495 14.574 14.899 14.1269 14.1044 13.7915C13.3098 13.4561 12.6145 13.3444 12.1841 13.3164" stroke="#603913" stroke-miterlimit="10" stroke-linecap="round"/>
</g>
</g>
<g opacity="0.56">
<g opacity="0.56">
<path opacity="0.56" d="M13.6743 15.0768C13.5087 14.9371 13.2107 14.7135 12.8134 14.5458C12.4161 14.3782 12.085 14.3223 11.8533 14.3223" stroke="#603913" stroke-miterlimit="10" stroke-linecap="round"/>
</g>
</g>
<g opacity="0.56">
<g opacity="0.56">
<path opacity="0.56" d="M6.82045 29.0782C6.58868 28.8267 6.22448 28.4634 5.76095 28.156C5.29741 27.8206 4.9001 27.6809 4.66833 27.625" stroke="#603913" stroke-miterlimit="10" stroke-linecap="round"/>
</g>
</g>
<g opacity="0.56">
<g opacity="0.56">
<path opacity="0.56" d="M5.92677 29.5818C5.86056 29.4421 5.69501 29.1626 5.33081 28.939C5.06594 28.7713 4.76796 28.6875 4.60242 28.6875" stroke="#603913" stroke-miterlimit="10" stroke-linecap="round"/>
</g>
</g>
<path d="M19.7003 0.683822C20.3293 0.739716 20.8591 2.91959 20.6273 4.84795C20.3624 7.36319 18.8394 9.76664 18.1441 9.65485C17.4157 9.51512 17.5481 6.69246 17.8792 4.82C18.2103 3.19906 19.005 0.655875 19.7003 0.683822Z" fill="#006F26"/>
<path d="M27.7455 0.0127509C28.3414 0.208381 27.4475 2.83541 26.0238 5.01529C24.1697 7.83795 21.1236 10.2693 20.4945 9.98988C19.8655 9.68246 21.8189 6.44059 23.3088 4.3725C24.6663 2.55594 27.0833 -0.210826 27.7455 0.0127509Z" fill="#006F26"/>
<path d="M22.051 11.1912C21.8523 10.7999 23.8058 9.76589 25.7261 9.29079C28.2424 8.64801 31.1229 8.78774 31.2554 9.2349C31.3878 9.71 28.6066 10.5484 26.6863 10.9397C24.9977 11.275 22.2496 11.6104 22.051 11.1912Z" fill="#006F26"/>
</svg>
