<svg width="6" height="17" viewBox="0 0 6 17" fill="none" xmlns="http://www.w3.org/2000/svg">
<path d="M3.58853 6.48242C3.22285 6.48242 2.46727 6.59643 2.2583 6.85763C2.04934 7.11883 1.83445 7.49339 1.94042 8.12916L2.86309 15.108C2.86309 15.5782 2.96757 15.9439 3.17653 16.2051C3.38549 16.4663 3.52984 16.5 3.74176 16.5C3.95369 16.5 4.0035 16.4663 4.2647 16.2051C4.47366 15.9439 4.63039 15.5782 4.63039 15.108L5.26615 7.84067C5.26615 7.42275 5.16167 7.10931 4.90046 6.8481C4.63926 6.5869 4.16561 6.48242 3.58853 6.48242Z" fill="#FF6D03"/>
<path d="M0.372205 3.14905C0.530225 2.89549 1.41514 3.11735 2.07883 3.59277C2.93214 4.19496 3.46941 5.27257 3.27978 5.52613C3.09016 5.77968 2.07883 5.17749 1.47835 4.67038C0.972683 4.25835 0.214184 3.4343 0.372205 3.14905Z" fill="#009444"/>
<path d="M3.3747 0.501133C3.62911 0.460602 4.01074 1.51442 4.13794 2.48718C4.26515 3.78419 3.92593 5.16227 3.67152 5.16227C3.3747 5.16227 3.16268 3.74366 3.12028 2.7709C3.07788 1.91974 3.12028 0.541665 3.3747 0.501133Z" fill="#009444"/>
<path d="M5.59426 3.27071C5.45471 3.16828 4.96628 3.57801 4.71043 4.06457C4.36155 4.67918 4.29177 5.49865 4.47784 5.57547C4.66391 5.67791 5.10583 5.01209 5.31516 4.52553C5.52448 4.11579 5.75707 3.39876 5.59426 3.27071Z" fill="#009444"/>
</svg>
