<svg width="157" height="105" viewBox="0 0 157 105" fill="none" xmlns="http://www.w3.org/2000/svg">
<path d="M70.3956 53.1514C76.0326 56.5208 84.1082 61.9011 92.6256 69.8746C103.511 80.0707 119.132 98.2227 115.386 103.427C113.018 106.708 103.546 104.044 94.7637 101.592C90.4344 100.375 90.8938 100.128 78.4712 95.2944C65.4124 90.2139 61.8076 89.279 56.1882 85.2746C53.1489 83.1049 50.5159 81.1821 47.989 77.7069C47.2468 76.6838 45.9038 74.9373 44.7905 72.503C44.5078 71.8679 40.7616 63.3652 43.2708 57.8085C45.9745 51.8284 56.3296 48.4591 67.8157 51.9872L70.3956 53.1514Z" fill="#FF6D03"/>
<path d="M4.43032 59.2369C4.46566 57.3318 12.6119 55.3561 19.9807 55.603C29.5406 55.9205 39.0652 59.9955 38.7648 62.077C38.4467 64.2292 27.6145 64.4408 20.5108 63.7882C14.273 63.1884 4.41265 61.3361 4.43032 59.2369Z" fill="#006F26"/>
<path d="M0.0832874 35.2991C0.684097 33.4645 10.8448 35.5814 19.3975 39.4623C30.5125 44.4898 40.4612 53.1336 39.4716 55.0035C38.4467 56.9263 25.6884 51.7753 17.5774 47.6474C10.4207 43.9958 -0.588205 37.3278 0.0832874 35.2991Z" fill="#006F26"/>
<path d="M43.6773 50.1875C42.2106 50.8049 37.9166 45.2482 35.6194 39.5504C32.6153 32.1414 32.5093 23.4976 34.2234 23.0213C35.9905 22.5274 39.825 30.7302 41.7158 36.3751C43.3945 41.3321 45.303 49.4996 43.6773 50.1875Z" fill="#006F26"/>
<path opacity="0.56" d="M54.9161 66.0112C53.7675 66.4522 52.0004 67.3166 50.251 68.8866C48.4662 70.5095 47.4236 72.2207 46.8582 73.3144" stroke="#603913" stroke-width="0.25" stroke-miterlimit="10" stroke-linecap="round"/>
<path opacity="0.56" d="M51.7 71.4976C51.2582 71.7269 50.569 72.1503 49.8799 72.9441C49.173 73.7555 48.7666 74.6023 48.5546 75.1667" stroke="#603913" stroke-width="0.25" stroke-miterlimit="10" stroke-linecap="round"/>
<path opacity="0.56" d="M109.484 90.1611C109.042 90.3905 108.353 90.8138 107.664 91.6077C106.957 92.4191 106.55 93.2659 106.338 93.8304" stroke="#603913" stroke-width="0.25" stroke-miterlimit="10" stroke-linecap="round"/>
<path opacity="0.56" d="M109.872 91.519C109.554 91.6778 109.06 91.9777 108.583 92.4716C108.105 92.9832 107.84 93.5124 107.699 93.8476" stroke="#603913" stroke-width="0.25" stroke-miterlimit="10" stroke-linecap="round"/>
<path d="M115.779 53.5227C117.618 57.5239 120.043 63.5619 121.729 71.2015C123.881 80.9683 125.634 96.9306 121.589 98.3873C119.035 99.3036 114.808 94.2383 110.882 89.5514C108.949 87.2363 109.297 87.2739 104.261 79.8895C98.9666 72.1272 97.3278 70.243 95.7392 65.8974C94.8815 63.5448 94.1548 61.4829 94.0756 58.6028C94.0532 57.7555 93.973 56.2804 94.2807 54.512C94.3652 54.0536 95.5185 47.931 99.0136 45.81C102.777 43.5286 109.781 45.593 114.794 51.9004L115.779 53.5227Z" fill="#FF6D03"/>
<path d="M76.7609 31.6519C77.4125 30.7253 82.6688 32.9598 86.7491 35.9852C92.0437 39.9087 96.0727 45.6732 95.213 46.5824C94.3199 47.5194 88.1312 43.3558 84.3351 40.2346C81.0105 37.4807 76.055 32.6812 76.7609 31.6519Z" fill="#006F26"/>
<path d="M82.8291 16.9519C83.7937 16.2667 88.9215 21.4434 92.5294 26.8626C97.2236 33.8972 100.027 42.2898 98.8267 42.8358C97.5885 43.3943 91.9911 35.6332 88.7205 30.2675C85.8379 25.5284 81.7584 17.7068 82.8291 16.9519Z" fill="#006F26"/>
<path d="M102.705 41.7217C101.594 41.425 100.968 36.628 101.605 32.6081C102.423 27.3736 105.443 22.7175 106.655 23.195C107.905 23.6858 107.308 29.6982 106.442 33.5165C105.694 36.8772 103.939 42.0487 102.705 41.7217Z" fill="#006F26"/>
<path opacity="0.56" d="M102.342 54.7628C101.54 54.571 100.235 54.3787 98.6717 54.5834C97.0692 54.8039 95.8437 55.3547 95.1162 55.745" stroke="#603913" stroke-width="0.25" stroke-miterlimit="10" stroke-linecap="round"/>
<path opacity="0.56" d="M98.4827 56.5768C98.1515 56.536 97.6098 56.5088 96.9276 56.6863C96.229 56.867 95.6831 57.181 95.3518 57.4128" stroke="#603913" stroke-width="0.25" stroke-miterlimit="10" stroke-linecap="round"/>
<path opacity="0.56" d="M123.357 88.8136C123.026 88.7729 122.484 88.7456 121.802 88.9232C121.103 89.1038 120.557 89.4179 120.226 89.6496" stroke="#603913" stroke-width="0.25" stroke-miterlimit="10" stroke-linecap="round"/>
<path opacity="0.56" d="M123.057 89.7121C122.821 89.6792 122.433 89.6574 121.982 89.7496C121.524 89.8515 121.177 90.0436 120.972 90.1753" stroke="#603913" stroke-width="0.25" stroke-miterlimit="10" stroke-linecap="round"/>
</svg>
