<svg width="40" height="40" viewBox="0 0 40 40" fill="none" xmlns="http://www.w3.org/2000/svg">
<path d="M20 11.25V13.75" stroke="#333333" stroke-width="2" stroke-linecap="round" stroke-linejoin="round"/>
<path d="M20 26.25V28.75" stroke="#333333" stroke-width="2" stroke-linecap="round" stroke-linejoin="round"/>
<path d="M20 35C28.2843 35 35 28.2843 35 20C35 11.7157 28.2843 5 20 5C11.7157 5 5 11.7157 5 20C5 28.2843 11.7157 35 20 35Z" stroke="#333333" stroke-width="2" stroke-linecap="round" stroke-linejoin="round"/>
<path d="M16.25 26.25H21.875C22.7038 26.25 23.4987 25.9208 24.0847 25.3347C24.6708 24.7487 25 23.9538 25 23.125C25 22.2962 24.6708 21.5013 24.0847 20.9153C23.4987 20.3292 22.7038 20 21.875 20H18.125C17.2962 20 16.5013 19.6708 15.9153 19.0847C15.3292 18.4987 15 17.7038 15 16.875C15 16.0462 15.3292 15.2513 15.9153 14.6653C16.5013 14.0792 17.2962 13.75 18.125 13.75H23.75" stroke="#333333" stroke-width="2" stroke-linecap="round" stroke-linejoin="round"/>
</svg>
