<svg width="16" height="20" viewBox="0 0 16 20" fill="none" xmlns="http://www.w3.org/2000/svg">
<path d="M10.3361 11.1438C9.7221 12.1394 8.7265 13.583 7.18331 15.1428C5.2087 17.1174 1.62452 20.0047 0.429796 19.4239C-0.316908 19.0589 0.0647401 17.4161 0.413202 15.8895C0.579136 15.1428 0.64551 15.2092 1.44199 13.0354C2.27166 10.7456 2.40441 10.115 3.15111 9.1194C3.54936 8.57182 3.91441 8.10721 4.61133 7.626C4.81045 7.49325 5.15892 7.22776 5.65672 7.01204C5.78947 6.96226 7.53177 6.21556 8.77628 6.58061C10.1369 6.97885 11.0662 8.68798 10.5352 10.6958L10.3361 11.1438Z" fill="#FF6D03"/>
<g opacity="0.56">
<g opacity="0.56">
<path opacity="0.56" d="M7.68123 9.31889C7.5153 9.15295 7.21662 8.88746 6.81838 8.68834C6.42013 8.48922 6.07167 8.42284 5.85596 8.40625" stroke="#603913" stroke-miterlimit="10" stroke-linecap="round"/>
</g>
</g>
<g opacity="0.56">
<g opacity="0.56">
<path opacity="0.56" d="M6.60282 9.45095C6.51986 9.36799 6.37052 9.23524 6.17139 9.13568C5.97227 9.03612 5.80634 9.00293 5.69019 9.00293" stroke="#603913" stroke-miterlimit="10" stroke-linecap="round"/>
</g>
</g>
<g opacity="0.56">
<g opacity="0.56">
<path opacity="0.56" d="M3.16768 17.7642C3.05153 17.6149 2.869 17.3992 2.63669 17.2166C2.40439 17.0175 2.20527 16.9346 2.08911 16.9014" stroke="#603913" stroke-miterlimit="10" stroke-linecap="round"/>
</g>
</g>
<g opacity="0.56">
<g opacity="0.56">
<path opacity="0.56" d="M2.71964 18.0632C2.68646 17.9802 2.60349 17.8143 2.42096 17.6816C2.28822 17.582 2.13888 17.5322 2.05591 17.5322" stroke="#603913" stroke-miterlimit="10" stroke-linecap="round"/>
</g>
</g>
<path d="M9.62259 0.905409C9.93786 0.938596 10.2034 2.23288 10.0872 3.37783C9.95446 4.87123 9.19116 6.29827 8.8427 6.23189C8.47764 6.14892 8.54402 4.47299 8.70995 3.36123C8.87589 2.39882 9.27413 0.888816 9.62259 0.905409Z" fill="#4FAB56"/>
<path d="M13.6546 0.507571C13.9533 0.623725 13.5053 2.1835 12.7918 3.47779C11.8625 5.15372 10.3359 6.59735 10.0207 6.43142C9.70539 6.24889 10.6844 4.32405 11.4311 3.09614C12.1114 2.01757 13.3228 0.374824 13.6546 0.507571Z" fill="#4FAB56"/>
<path d="M10.8007 7.14482C10.7011 6.91251 11.6802 6.29855 12.6426 6.01646C13.9037 5.63482 15.3473 5.71778 15.4137 5.98328C15.48 6.26537 14.0862 6.76317 13.1238 6.99548C12.2775 7.1946 10.9003 7.39372 10.8007 7.14482Z" fill="#4FAB56"/>
</svg>
