<svg width="17" height="17" viewBox="0 0 17 17" fill="none" xmlns="http://www.w3.org/2000/svg">
<path d="M13.9998 4L2.99976 4.00001" stroke="#E1000A" stroke-linecap="round" stroke-linejoin="round"/>
<path d="M7 7V11" stroke="#E1000A" stroke-linecap="round" stroke-linejoin="round"/>
<path d="M10 7V11" stroke="#E1000A" stroke-linecap="round" stroke-linejoin="round"/>
<path d="M13 4V13.5C13 13.6326 12.9473 13.7598 12.8536 13.8536C12.7598 13.9473 12.6326 14 12.5 14H4.5C4.36739 14 4.24021 13.9473 4.14645 13.8536C4.05268 13.7598 4 13.6326 4 13.5V4" stroke="#E1000A" stroke-linecap="round" stroke-linejoin="round"/>
<path d="M11 4V3C11 2.73478 10.8946 2.48043 10.7071 2.29289C10.5196 2.10536 10.2652 2 10 2H7C6.73478 2 6.48043 2.10536 6.29289 2.29289C6.10536 2.48043 6 2.73478 6 3V4" stroke="#E1000A" stroke-linecap="round" stroke-linejoin="round"/>
</svg>
