<svg width="57" height="56" viewBox="0 0 57 56" fill="none" xmlns="http://www.w3.org/2000/svg">
<path d="M28.5 49C40.098 49 49.5 39.598 49.5 28C49.5 16.402 40.098 7 28.5 7C16.902 7 7.5 16.402 7.5 28C7.5 39.598 16.902 49 28.5 49Z" stroke="#FF6D03" stroke-linecap="round" stroke-linejoin="round"/>
<path fill-rule="evenodd" clip-rule="evenodd" d="M29.5 18C29.5 17.4477 29.0523 17 28.5 17C27.9477 17 27.5 17.4477 27.5 18V33C27.5 33.5523 27.9477 34 28.5 34C29.0523 34 29.5 33.5523 29.5 33L29.5 18ZM29.5 37C29.5 36.4477 29.0523 36 28.5 36C27.9477 36 27.5 36.4477 27.5 37V38C27.5 38.5523 27.9477 39 28.5 39C29.0523 39 29.5 38.5523 29.5 38V37Z" fill="#FF6D03"/>
</svg>
