<svg width="60" height="60" viewBox="0 0 60 60" fill="none" xmlns="http://www.w3.org/2000/svg">
<rect width="60" height="60" rx="30" fill="white"/>
<path d="M13.3367 30.0034C13.3386 38.2023 19.3007 45.1834 27.3983 46.4684V34.82H23.17V30.0034H27.4033V26.3367C27.2141 24.5993 27.8075 22.8677 29.0227 21.6116C30.2379 20.3555 31.9489 19.7051 33.6917 19.8367C34.9426 19.8569 36.1903 19.9683 37.425 20.17V24.2684H35.3183C34.5931 24.1734 33.8639 24.4129 33.3363 24.9195C32.8086 25.4261 32.5396 26.1448 32.605 26.8734V30.0034H37.2233L36.485 34.8217H32.605V46.4684C41.3625 45.0844 47.5035 37.0863 46.5792 28.2685C45.6549 19.4506 37.9888 12.8999 29.1347 13.362C20.2806 13.8241 13.3381 21.1372 13.3367 30.0034Z" fill="#304D95"/>
</svg>
