<svg width="51" height="39" viewBox="0 0 51 39" fill="none" xmlns="http://www.w3.org/2000/svg">
<path d="M24.3513 20.9469C26.3028 22.1133 29.0984 23.9759 32.047 26.7362C35.8153 30.2659 41.2231 36.5499 39.9262 38.3514C39.1065 39.4873 35.8276 38.5652 32.7872 37.7163C31.2885 37.2949 31.4475 37.2094 27.147 35.5362C22.6262 33.7774 21.3783 33.4537 19.4329 32.0675C18.3807 31.3163 17.4692 30.6507 16.5944 29.4476C16.3375 29.0934 15.8726 28.4888 15.4872 27.6461C15.3893 27.4262 14.0924 24.4827 14.9611 22.5591C15.8971 20.4888 19.4819 19.3224 23.4582 20.5438L24.3513 20.9469Z" fill="#E87E24"/>
<path d="M1.51499 23.0543C1.52723 22.3948 4.34735 21.7108 6.89831 21.7963C10.2078 21.9063 13.5051 23.3169 13.4011 24.0375C13.291 24.7826 9.54103 24.8559 7.08183 24.6299C4.92239 24.4223 1.50887 23.7811 1.51499 23.0543Z" fill="#397E44"/>
<path d="M0.0101544 14.7668C0.218146 14.1317 3.73566 14.8645 6.69648 16.2081C10.5443 17.9485 13.9884 20.9409 13.6459 21.5882C13.291 22.2539 8.87428 20.4706 6.06639 19.0416C3.58884 17.7775 -0.222307 15.4691 0.0101544 14.7668Z" fill="#397E44"/>
<path d="M15.1018 19.9217C14.5941 20.1355 13.1075 18.2118 12.3123 16.2393C11.2723 13.6744 11.2356 10.682 11.829 10.5171C12.4407 10.3461 13.7682 13.1858 14.4228 15.14C15.0039 16.8561 15.6646 19.6835 15.1018 19.9217Z" fill="#397E44"/>
<path opacity="0.56" d="M18.9925 25.4004C18.5949 25.5531 17.9831 25.8523 17.3775 26.3958C16.7597 26.9576 16.3987 27.55 16.203 27.9286" stroke="#603913" stroke-width="0.25" stroke-miterlimit="10" stroke-linecap="round"/>
<path opacity="0.56" d="M17.8792 27.2988C17.7263 27.3782 17.4877 27.5248 17.2491 27.7996C17.0045 28.0805 16.8638 28.3736 16.7903 28.5691" stroke="#603913" stroke-width="0.25" stroke-miterlimit="10" stroke-linecap="round"/>
<path opacity="0.56" d="M37.8832 33.7598C37.7302 33.8392 37.4917 33.9857 37.2531 34.2605C37.0084 34.5414 36.8677 34.8346 36.7943 35.03" stroke="#603913" stroke-width="0.25" stroke-miterlimit="10" stroke-linecap="round"/>
<path opacity="0.56" d="M38.0178 34.2305C37.9077 34.2854 37.7364 34.3892 37.5712 34.5602C37.406 34.7373 37.3143 34.9205 37.2653 35.0366" stroke="#603913" stroke-width="0.25" stroke-miterlimit="10" stroke-linecap="round"/>
<path d="M38.2692 15.1312C38.9059 16.5164 39.7454 18.6067 40.3289 21.2514C41.074 24.6325 41.6809 30.1584 40.2805 30.6627C39.3964 30.9799 37.933 29.2264 36.5737 27.6038C35.9047 26.8024 36.0251 26.8154 34.2817 24.259C32.4489 21.5718 31.8816 20.9195 31.3316 19.4152C31.0347 18.6007 30.7831 17.8869 30.7557 16.8899C30.748 16.5966 30.7202 16.0859 30.8267 15.4737C30.856 15.315 31.2552 13.1955 32.4652 12.4612C33.7679 11.6714 36.1926 12.3861 37.9282 14.5696L38.2692 15.1312Z" fill="#E87E24"/>
<path d="M24.8134 7.68856C25.0591 7.30056 26.8783 7.93358 28.2688 8.92528C30.0731 10.2113 31.3994 12.2669 31.0805 12.6574C30.7493 13.0602 28.6332 11.7208 27.3447 10.6793C26.2166 9.75933 24.5468 8.1188 24.8134 7.68856Z" fill="#397E44"/>
<path d="M27.0518 2.48861C27.4 2.19316 29.1048 3.89775 30.2748 5.75697C31.7974 8.16994 32.637 11.1676 32.2089 11.4213C31.7672 11.6813 29.9412 9.03687 28.8882 7.18322C27.9602 5.54576 26.6653 2.8144 27.0518 2.48861Z" fill="#397E44"/>
<path d="M33.6106 11.0612C33.241 11.0035 33.1069 9.39545 33.3859 8.00265C33.7452 6.18952 34.8367 4.48749 35.237 4.60284C35.65 4.7212 35.3528 6.79045 35.0002 8.12349C34.6943 9.29629 34.0206 11.1244 33.6106 11.0612Z" fill="#397E44"/>
<path opacity="0.56" d="M33.6174 15.56C33.3396 15.4936 32.8878 15.427 32.3468 15.4979C31.7921 15.5742 31.3678 15.7649 31.1159 15.9" stroke="#603913" stroke-width="0.25" stroke-miterlimit="10" stroke-linecap="round"/>
<path opacity="0.56" d="M32.2814 16.1884C32.1667 16.1743 31.9792 16.1648 31.743 16.2263C31.5012 16.2888 31.3122 16.3976 31.1975 16.4778" stroke="#603913" stroke-width="0.25" stroke-miterlimit="10" stroke-linecap="round"/>
<path opacity="0.56" d="M40.8925 27.3485C40.7778 27.3344 40.5903 27.325 40.3541 27.3865C40.1123 27.449 39.9233 27.5577 39.8086 27.638" stroke="#603913" stroke-width="0.25" stroke-miterlimit="10" stroke-linecap="round"/>
<path opacity="0.56" d="M40.7885 27.6604C40.7068 27.649 40.5727 27.6415 40.4165 27.6734C40.258 27.7086 40.1378 27.7752 40.0667 27.8208" stroke="#603913" stroke-width="0.25" stroke-miterlimit="10" stroke-linecap="round"/>
</svg>
