<svg width="67" height="49" viewBox="0 0 67 49" fill="none" xmlns="http://www.w3.org/2000/svg">
<rect x="0.318604" y="0.0313721" width="66.6814" height="48.1119" rx="24.0559" fill="#FF6D03"/>
<path d="M23.6484 18.8832V22.9847H29.9082V18.8832C29.9082 18.2972 30.0384 17.8578 30.2988 17.5648C30.5658 17.2719 30.9141 17.1254 31.3438 17.1254C31.78 17.1254 32.1315 17.2719 32.3984 17.5648C32.6719 17.8513 32.8086 18.2907 32.8086 18.8832V30.1625C32.8086 30.7549 32.6719 31.1976 32.3984 31.4906C32.125 31.7836 31.7734 31.9301 31.3438 31.9301C30.9076 31.9301 30.5593 31.7836 30.2988 31.4906C30.0384 31.1911 29.9082 30.7484 29.9082 30.1625V25.348H23.6484V30.1625C23.6484 30.7549 23.5117 31.1976 23.2383 31.4906C22.9649 31.7836 22.6133 31.9301 22.1836 31.9301C21.7474 31.9301 21.3991 31.7836 21.1387 31.4906C20.8783 31.1911 20.7481 30.7484 20.7481 30.1625V18.8832C20.7481 18.2972 20.875 17.8578 21.1289 17.5648C21.3893 17.2719 21.7409 17.1254 22.1836 17.1254C22.6198 17.1254 22.9714 17.2719 23.2383 17.5648C23.5117 17.8513 23.6484 18.2907 23.6484 18.8832ZM39.4043 22.6039V30.309C39.4043 30.8428 39.2774 31.2465 39.0234 31.5199C38.7695 31.7933 38.4473 31.9301 38.0567 31.9301C37.666 31.9301 37.347 31.7901 37.0996 31.5101C36.8587 31.2302 36.7383 30.8298 36.7383 30.309V22.682C36.7383 22.1547 36.8587 21.7575 37.0996 21.4906C37.347 21.2237 37.666 21.0902 38.0567 21.0902C38.4473 21.0902 38.7695 21.2237 39.0234 21.4906C39.2774 21.7575 39.4043 22.1286 39.4043 22.6039ZM38.0859 19.85C37.7149 19.85 37.3958 19.736 37.1289 19.5082C36.8685 19.2803 36.7383 18.958 36.7383 18.5414C36.7383 18.1638 36.8718 17.8545 37.1387 17.6136C37.4121 17.3663 37.7279 17.2426 38.0859 17.2426C38.431 17.2426 38.737 17.3532 39.0039 17.5746C39.2708 17.7959 39.4043 18.1182 39.4043 18.5414C39.4043 18.9515 39.2741 19.2738 39.0137 19.5082C38.7533 19.736 38.444 19.85 38.0859 19.85ZM44.0469 25.4847L43.7344 20.807C43.6758 19.8955 43.6465 19.2413 43.6465 18.8441C43.6465 18.3038 43.7865 17.8838 44.0664 17.5844C44.3529 17.2784 44.7272 17.1254 45.1895 17.1254C45.7494 17.1254 46.1237 17.3207 46.3125 17.7113C46.5013 18.0954 46.5957 18.6521 46.5957 19.3812C46.5957 19.8109 46.5729 20.2471 46.5274 20.6898L46.1074 25.5043C46.0619 26.0772 45.9642 26.5166 45.8145 26.8226C45.6647 27.1286 45.4173 27.2816 45.0723 27.2816C44.7207 27.2816 44.4766 27.1351 44.3399 26.8422C44.2031 26.5427 44.1055 26.0902 44.0469 25.4847ZM45.1309 31.9105C44.7337 31.9105 44.3854 31.7836 44.0859 31.5297C43.793 31.2692 43.6465 30.9079 43.6465 30.4457C43.6465 30.042 43.7865 29.7002 44.0664 29.4203C44.3529 29.1338 44.7012 28.9906 45.1113 28.9906C45.5215 28.9906 45.8698 29.1338 46.1563 29.4203C46.4492 29.7002 46.5957 30.042 46.5957 30.4457C46.5957 30.9014 46.4492 31.2595 46.1563 31.5199C45.8633 31.7803 45.5215 31.9105 45.1309 31.9105Z" fill="#304D95"/>
</svg>
