<svg width="198" height="61" viewBox="0 0 198 61" fill="none" xmlns="http://www.w3.org/2000/svg">
<path d="M148.537 12.8381C148.643 12.296 149.168 11.9423 149.71 12.0481L152.117 12.5179L144.755 50.2458C144.572 51.1815 143.666 51.7921 142.73 51.6095C141.794 51.4269 141.183 50.5203 141.366 49.5845L148.537 12.8381Z" fill="white"/>
<path fill-rule="evenodd" clip-rule="evenodd" d="M196.887 21.957L151.985 13.1948L147.409 36.6463L192.31 45.4085C192.853 45.5143 193.378 45.1606 193.483 44.6185L197.677 23.13C197.783 22.5879 197.429 22.0628 196.887 21.957ZM163.52 28.3623L161.232 27.9158L160.567 31.3214C160.472 31.8083 160.282 32.1546 159.998 32.3603C159.713 32.566 159.391 32.6338 159.032 32.5638C158.656 32.4905 158.378 32.3083 158.196 32.0172C158.015 31.7207 157.971 31.3317 158.065 30.8503L159.875 21.5772C159.98 21.041 160.18 20.6827 160.478 20.5022C160.775 20.3216 161.198 20.285 161.748 20.3923L164.953 21.0177C165.901 21.2026 166.616 21.416 167.099 21.6579C167.577 21.8931 167.967 22.205 168.27 22.5934C168.578 22.983 168.782 23.4261 168.883 23.9229C168.984 24.4196 168.979 24.9552 168.867 25.5297C168.628 26.7552 168.059 27.6097 167.161 28.0933C166.265 28.5714 165.051 28.6611 163.52 28.3623ZM163.99 22.7295L162.308 22.4012L161.59 26.0776L163.273 26.4059C163.862 26.5208 164.364 26.5564 164.78 26.5127C165.202 26.47 165.543 26.3321 165.804 26.0991C166.065 25.866 166.239 25.5279 166.325 25.0848C166.429 24.5541 166.353 24.0907 166.099 23.6946C165.809 23.269 165.106 22.9473 163.99 22.7295ZM172.882 31.9101L172.517 33.7811C172.429 34.2352 172.252 34.5558 171.989 34.7429C171.726 34.9245 171.427 34.9825 171.09 34.9168C170.759 34.8523 170.51 34.6843 170.342 34.4129C170.173 34.1416 170.133 33.7816 170.221 33.333L171.438 27.0962C171.634 26.0896 172.105 25.659 172.851 25.8046C173.232 25.879 173.484 26.0502 173.607 26.3183C173.729 26.5864 173.754 26.9519 173.681 27.4147C174.045 27.0088 174.394 26.7161 174.725 26.5367C175.063 26.3583 175.473 26.3162 175.955 26.4103C176.438 26.5044 176.883 26.7134 177.291 27.0373C177.7 27.3612 177.866 27.7174 177.79 28.1058C177.737 28.3794 177.594 28.5873 177.363 28.7295C177.138 28.8673 176.913 28.9144 176.689 28.8706C176.605 28.8542 176.41 28.765 176.104 28.6031C175.804 28.4367 175.531 28.3295 175.284 28.2813C174.948 28.2157 174.656 28.2496 174.409 28.3831C174.163 28.5111 173.948 28.7332 173.764 29.0494C173.58 29.3656 173.419 29.7546 173.283 30.2163C173.147 30.6726 173.014 31.2372 172.882 31.9101ZM186.537 35.1199C186.86 34.598 187.087 34.0033 187.217 33.3359C187.349 32.663 187.362 32.0267 187.258 31.4271C187.159 30.8286 186.948 30.2875 186.623 29.8039C186.298 29.3202 185.874 28.9137 185.35 28.5844C184.826 28.255 184.217 28.0225 183.521 27.8868C182.837 27.7532 182.19 27.7406 181.581 27.8489C180.973 27.9518 180.431 28.164 179.955 28.4857C179.479 28.8074 179.079 29.2292 178.756 29.7511C178.433 30.273 178.205 30.8731 178.073 31.5515C177.942 32.2244 177.925 32.8601 178.024 33.4587C178.129 34.0528 178.344 34.5944 178.667 35.0835C178.998 35.5683 179.419 35.9742 179.932 36.3014C180.444 36.6286 181.048 36.86 181.744 36.9957C182.445 37.1325 183.096 37.149 183.699 37.045C184.302 36.9356 184.846 36.7179 185.328 36.3919C185.811 36.0658 186.214 35.6419 186.537 35.1199ZM184.706 30.631C185.022 31.2208 185.091 31.9725 184.912 32.8861C184.736 33.7888 184.39 34.4568 183.875 34.8901C183.366 35.319 182.764 35.4656 182.069 35.3299C181.609 35.2401 181.23 35.047 180.933 34.7504C180.643 34.4495 180.447 34.0622 180.348 33.5884C180.254 33.1157 180.264 32.5867 180.378 32.0013C180.493 31.4105 180.687 30.9115 180.958 30.5045C181.23 30.0975 181.559 29.8152 181.944 29.6576C182.331 29.4946 182.749 29.4569 183.198 29.5444C183.893 29.6801 184.396 30.0423 184.706 30.631Z" fill="white"/>
<path d="M7.53787 17.388V44.7705H23.0751C24.3058 44.7705 25.2288 45.0781 25.8441 45.6935C26.4595 46.3088 26.7671 47.078 26.7671 48.001C26.7671 48.924 26.4595 49.6932 25.8441 50.3085C25.2288 50.9238 24.3058 51.2315 22.9213 51.2315H4.61502C2.92285 51.2315 1.69218 50.9238 1.07684 50.1547C0.307669 49.3855 0 48.1548 0 46.6165V17.388C0 15.8497 0.307669 14.619 1.07684 13.8498C1.84601 13.0806 2.61518 12.6191 3.84585 12.6191C4.92269 12.6191 5.99953 12.9268 6.61486 13.696C7.2302 14.7728 7.53787 15.8497 7.53787 17.388Z" fill="white"/>
<path d="M46.4578 47.8468C44.7656 49.0775 43.0734 50.1544 41.5351 50.7697C39.9967 51.385 38.1507 51.6927 36.1509 51.6927C34.3049 51.6927 32.7665 51.385 31.382 50.6159C29.9975 49.8467 28.9207 48.9237 28.3054 47.693C27.5362 46.4623 27.2285 45.2317 27.2285 43.6933C27.2285 41.8473 27.8439 40.1551 29.0745 38.7706C30.3052 37.3861 31.9974 36.4631 34.151 36.0016C34.6126 35.8478 35.6894 35.694 37.5354 35.2325C39.2276 34.9248 40.7659 34.6171 41.9966 34.3094C43.2273 34.0018 44.6118 33.6941 46.1501 33.2326C45.9963 31.3866 45.6886 30.0021 45.0733 29.2329C44.4579 28.3099 43.0734 28.0023 40.9197 28.0023C39.0737 28.0023 37.8431 28.3099 36.9201 28.7714C35.9971 29.2329 35.2279 30.0021 34.6126 31.0789C33.9972 32.0019 33.5357 32.7711 33.228 33.0788C32.9204 33.3864 32.4589 33.5403 31.5359 33.5403C30.7667 33.5403 29.9975 33.2326 29.536 32.7711C28.9207 32.3096 28.613 31.6943 28.613 30.7713C28.613 29.5406 29.0745 28.3099 29.9975 27.2331C30.9205 26.0024 32.305 25.0794 34.151 24.3102C35.9971 23.5411 38.3046 23.2334 41.0736 23.2334C44.1503 23.2334 46.6116 23.5411 48.3038 24.3102C49.996 25.0794 51.3805 26.1562 51.9958 27.6946C52.765 29.2329 53.0726 31.3866 53.0726 34.0018C53.0726 35.694 53.0726 37.0785 53.0726 38.1553C53.0726 39.2321 53.0726 40.6166 53.0726 42.0011C53.0726 43.3857 53.2265 44.7702 53.688 46.1547C54.1495 47.5392 54.3033 48.4622 54.3033 48.9237C54.3033 49.6929 53.9956 50.3082 53.2265 50.9235C52.4573 51.5389 51.6881 51.6927 50.7651 51.6927C49.996 51.6927 49.3806 51.385 48.6115 50.6159C47.9961 50.0005 47.2269 49.0775 46.4578 47.8468ZM45.9963 37.6938C44.9194 38.0015 43.5349 38.463 41.5351 38.9245C39.5352 39.386 38.1507 39.6936 37.5354 39.8475C36.7662 40.0013 35.9971 40.4628 35.3817 41.0781C34.7664 41.6935 34.3049 42.4627 34.3049 43.5395C34.3049 44.6163 34.7664 45.5393 35.5356 46.3085C36.3047 47.0777 37.3816 47.3853 38.7661 47.3853C40.1506 47.3853 41.3813 47.0777 42.6119 46.4623C43.8426 45.847 44.6118 45.0778 45.2271 44.1548C45.8424 43.078 46.1501 41.3858 46.1501 38.9245V37.6938H45.9963Z" fill="white"/>
<path d="M63.0721 16.7723V27.5407C64.4566 26.1562 65.6873 25.0793 67.0718 24.464C68.4563 23.6948 70.1485 23.3871 72.1483 23.3871C74.4558 23.3871 76.4557 24.0025 78.3017 25.0793C79.9939 26.1561 81.3784 27.8483 82.4552 29.8482C83.3782 32.0019 83.8397 34.4632 83.8397 37.386C83.8397 39.5397 83.532 41.3857 83.0705 43.2317C82.4552 45.0777 81.686 46.6161 80.763 47.8468C79.6862 49.0774 78.4555 50.1543 77.071 50.9234C75.5327 51.6926 73.9943 52.0003 72.1483 52.0003C71.0715 52.0003 69.9947 51.8464 69.0716 51.6926C68.1486 51.3849 67.3795 51.0773 66.6103 50.6158C65.995 50.1543 65.3796 49.6928 64.9181 49.3851C64.6105 48.6159 63.8413 48.0006 63.0721 47.0776V47.6929C63.0721 49.0774 62.7645 50.0004 62.1491 50.6158C61.5338 51.3849 60.7646 51.6926 59.8416 51.6926C58.9186 51.6926 57.9956 51.3849 57.5341 50.6158C56.9188 50.0004 56.6111 48.9236 56.6111 47.6929V17.0799C56.6111 15.6954 56.9188 14.6186 57.5341 13.8494C58.1494 13.0803 58.9186 12.7726 59.9954 12.7726C61.0723 12.7726 61.8414 13.0803 62.4568 13.8494C62.9183 14.6186 63.0721 15.5416 63.0721 16.7723ZM63.5336 37.6937C63.5336 40.4627 64.149 42.6164 65.3796 44.1547C66.6103 45.6931 68.3025 46.4622 70.4562 46.4622C72.1483 46.4622 73.6867 45.6931 75.0712 44.1547C76.3019 42.6164 76.9172 40.4627 76.9172 37.5399C76.9172 35.6939 76.6095 34.1555 76.148 32.771C75.6865 31.3865 74.9173 30.4635 73.8405 29.6943C72.9175 28.9252 71.6868 28.6175 70.4562 28.6175C69.0716 28.6175 67.9948 28.9252 66.918 29.6943C65.8411 30.4635 65.072 31.5403 64.4566 32.9249C63.8413 34.1555 63.5336 35.6939 63.5336 37.6937Z" fill="white"/>
<path d="M92.7618 16.7723V27.5407C94.1463 26.1562 95.377 25.0793 96.7615 24.464C98.146 23.6948 99.8382 23.3871 101.838 23.3871C104.146 23.3871 106.145 24.0025 107.991 25.0793C109.684 26.1561 111.068 27.8483 112.145 29.8482C113.068 32.0019 113.529 34.4632 113.529 37.386C113.529 39.5397 113.222 41.3857 112.76 43.2317C112.299 45.0777 111.376 46.6161 110.453 47.8468C109.376 49.0774 108.145 50.1543 106.761 50.9234C105.222 51.6926 103.684 52.0003 101.992 52.0003C100.915 52.0003 99.8382 51.8464 98.9152 51.6926C97.9922 51.3849 97.223 51.0773 96.4538 50.6158C95.8385 50.1543 95.2232 49.6928 94.7617 49.3851C94.3002 48.9236 93.6848 48.3083 92.9157 47.3853V48.0006C92.9157 49.3851 92.608 50.3081 91.9926 50.9234C91.3773 51.5388 90.6081 52.0003 89.5313 52.0003C88.6083 52.0003 87.6853 51.6926 87.2238 50.9234C86.6084 50.3081 86.3008 49.2313 86.3008 48.0006V17.0799C86.3008 15.6954 86.6084 14.6186 87.2238 13.8494C87.8391 13.0803 88.6083 12.7726 89.6851 12.7726C90.762 12.7726 91.5311 13.0803 92.1465 13.8494C92.4541 14.6186 92.7618 15.5416 92.7618 16.7723ZM93.0695 37.6937C93.0695 40.4627 93.6848 42.6164 94.9155 44.1547C96.1462 45.6931 97.8383 46.4622 99.992 46.4622C101.684 46.4622 103.223 45.6931 104.607 44.1547C105.838 42.6164 106.453 40.4627 106.453 37.5399C106.453 35.6939 106.145 34.1555 105.684 32.771C105.222 31.3865 104.453 30.4635 103.376 29.6943C102.453 28.9252 101.223 28.6175 99.992 28.6175C98.6075 28.6175 97.5307 28.9252 96.4538 29.6943C95.377 30.4635 94.6078 31.5403 93.9925 32.9249C93.3771 34.1555 93.0695 35.6939 93.0695 37.6937Z" fill="white"/>
<path d="M119.991 23.2334C118.914 23.2334 118.145 23.5411 117.529 24.3102C116.914 25.0794 116.606 26.0024 116.606 27.3869V47.3853C116.606 48.7698 116.914 49.8467 117.529 50.6159C118.145 51.385 119.068 51.6927 119.991 51.6927C121.067 51.6927 121.837 51.385 122.606 50.6159C123.221 49.8467 123.683 48.7698 123.683 47.3853V27.2331C123.683 26.0024 123.375 25.0794 122.606 24.3102C121.837 23.5411 120.914 23.2334 119.991 23.2334Z" fill="white"/>
<path d="M128.451 23.849H129.221V19.6954C129.221 18.6186 129.221 17.6956 129.374 17.0803C129.374 16.4649 129.528 15.8496 129.836 15.3881C130.144 14.9266 130.451 14.4651 131.067 14.1574C131.528 13.8497 132.143 13.6959 132.759 13.6959C133.682 13.6959 134.451 14.0036 135.22 14.7728C135.682 15.2343 135.989 15.6958 136.143 16.4649C136.297 17.0803 136.297 18.0033 136.297 19.2339V24.0028H138.912C139.835 24.0028 140.604 24.3105 141.22 24.772C141.681 25.2335 141.989 25.8488 141.989 26.618C141.989 27.541 141.681 28.1563 140.912 28.6178C140.143 28.9255 139.066 29.2332 137.681 29.2332H136.451V42.1552C136.451 43.2321 136.451 44.1551 136.605 44.6166C136.758 45.2319 136.912 45.6934 137.22 46.0011C137.528 46.3087 138.143 46.6164 138.912 46.6164C139.374 46.6164 139.835 46.6164 140.604 46.4626C141.373 46.3087 141.835 46.3087 142.296 46.3087C142.912 46.3087 143.373 46.4626 143.835 46.9241C144.296 47.3856 144.45 48.0009 144.45 48.6162C144.45 49.6931 143.835 50.6161 142.604 51.2314C141.373 51.8468 139.527 52.1544 137.22 52.1544C135.066 52.1544 133.374 51.8468 132.297 51.0776C131.22 50.3084 130.451 49.3854 130.144 48.0009C129.836 46.7702 129.682 44.9242 129.682 42.7705V29.2332H128.759C127.682 29.2332 126.913 28.9255 126.452 28.464C125.99 28.0025 125.682 27.3871 125.682 26.618C125.682 25.8488 125.99 25.2335 126.452 24.772C126.605 24.1566 127.375 23.849 128.451 23.849Z" fill="white"/>
<path d="M103.069 7.69578C103.838 6.46511 108.145 7.54195 111.376 9.84946C115.529 12.7723 118.145 18.0027 117.222 19.2333C116.299 20.464 111.376 17.5412 108.453 15.0798C105.992 13.08 102.3 9.08029 103.069 7.69578Z" fill="white"/>
<path d="M118.145 0.00430193C119.068 -0.149532 120.452 3.85016 120.914 7.54217C121.375 12.4649 120.144 17.6952 119.221 17.6952C118.145 17.6952 117.375 12.311 117.222 8.61901C117.068 5.38849 117.222 0.158136 118.145 0.00430193Z" fill="white"/>
<path d="M129.682 5.38831C128.759 4.77297 125.529 7.23432 123.837 10.1572C121.529 13.8492 121.068 18.7719 122.298 19.2334C123.529 19.8487 126.452 15.849 127.836 12.9262C129.221 10.4648 130.759 6.15748 129.682 5.38831Z" fill="white"/>
</svg>
