<svg width="163" height="40" viewBox="0 0 163 40" fill="none" xmlns="http://www.w3.org/2000/svg">
<path d="M124.968 2.11516C125.108 1.58092 125.654 1.26166 126.189 1.40207L127.802 1.82618L120.54 29.5347C120.353 30.2474 119.624 30.6733 118.912 30.486C118.199 30.2987 117.773 29.5691 117.96 28.8564L124.968 2.11516Z" fill="white"/>
<path fill-rule="evenodd" clip-rule="evenodd" d="M161.61 11.2708L127.66 2.34045L122.984 20.1962L156.933 29.1265C157.467 29.267 158.014 28.9478 158.154 28.4136L162.324 12.4925C162.464 11.9583 162.144 11.4113 161.61 11.2708ZM135.805 14.6087L134.064 14.1507L133.385 16.7436C133.288 17.1143 133.124 17.3718 132.895 17.5163C132.666 17.6608 132.414 17.6971 132.141 17.6252C131.855 17.55 131.649 17.3957 131.523 17.1622C131.399 16.9246 131.384 16.6225 131.48 16.256L133.329 9.19598C133.436 8.78779 133.609 8.52148 133.847 8.39706C134.084 8.27264 134.413 8.26543 134.831 8.37544L137.27 9.01698C137.991 9.20669 138.532 9.40676 138.892 9.61721C139.248 9.82237 139.534 10.0822 139.748 10.3968C139.966 10.7124 140.102 11.0643 140.156 11.4523C140.209 11.8404 140.179 12.2531 140.064 12.6904C139.82 13.6234 139.34 14.254 138.624 14.5823C137.91 14.9064 136.97 14.9152 135.805 14.6087ZM136.444 10.289L135.164 9.95223L134.43 12.7512L135.711 13.088C136.159 13.2059 136.544 13.2583 136.867 13.2452C137.194 13.2333 137.464 13.144 137.676 12.9772C137.889 12.8105 138.039 12.5585 138.127 12.2211C138.233 11.817 138.198 11.456 138.021 11.1379C137.819 10.7954 137.293 10.5124 136.444 10.289ZM142.845 17.8095L142.472 19.234C142.382 19.5797 142.23 19.8182 142.018 19.9493C141.807 20.0763 141.573 20.1062 141.317 20.0388C141.065 19.9726 140.881 19.8307 140.765 19.6131C140.649 19.3955 140.635 19.1159 140.725 18.7744L141.968 14.026C142.169 13.2596 142.553 12.9511 143.121 13.1004C143.411 13.1767 143.597 13.3213 143.678 13.5341C143.759 13.7468 143.76 14.0299 143.681 14.3831C143.982 14.0882 144.265 13.8799 144.529 13.758C144.798 13.6373 145.116 13.6252 145.483 13.7217C145.85 13.8183 146.183 14.0015 146.482 14.2716C146.78 14.5416 146.891 14.8245 146.814 15.1202C146.759 15.3285 146.639 15.4817 146.454 15.5798C146.274 15.675 146.098 15.7001 145.928 15.6552C145.864 15.6383 145.718 15.5599 145.49 15.4198C145.267 15.2767 145.062 15.1804 144.874 15.131C144.618 15.0637 144.392 15.0753 144.195 15.1659C143.999 15.2524 143.822 15.413 143.665 15.6476C143.507 15.8823 143.365 16.1742 143.237 16.5235C143.11 16.8685 142.979 17.2972 142.845 17.8095ZM153.21 20.9631C153.484 20.5768 153.688 20.1295 153.821 19.6214C153.955 19.109 153.997 18.6191 153.946 18.1516C153.899 17.6852 153.763 17.2575 153.536 16.8685C153.31 16.4794 153.003 16.1449 152.615 15.8649C152.228 15.5849 151.77 15.3753 151.24 15.2362C150.72 15.0992 150.222 15.0573 149.747 15.1106C149.274 15.1596 148.846 15.2963 148.463 15.5207C148.08 15.7451 147.752 16.0504 147.477 16.4368C147.203 16.8231 146.998 17.2746 146.863 17.791C146.728 18.3034 146.685 18.7927 146.731 19.2591C146.783 19.7224 146.922 20.1507 147.147 20.5439C147.378 20.9341 147.683 21.268 148.062 21.5458C148.441 21.8235 148.895 22.032 149.424 22.1712C149.957 22.3115 150.459 22.3566 150.928 22.3064C151.399 22.252 151.828 22.1112 152.216 21.8838C152.604 21.6564 152.935 21.3495 153.21 20.9631ZM152.019 17.411C152.233 17.8814 152.249 18.4644 152.067 19.16C151.887 19.8472 151.588 20.3451 151.169 20.6536C150.756 20.959 150.285 21.0421 149.756 20.9029C149.406 20.8108 149.124 20.6431 148.909 20.3997C148.7 20.1532 148.569 19.8449 148.515 19.4746C148.466 19.1055 148.5 18.6981 148.617 18.2524C148.734 17.8026 148.908 17.4275 149.137 17.1271C149.366 16.8268 149.633 16.6255 149.938 16.5232C150.245 16.4167 150.568 16.4084 150.91 16.4982C151.439 16.6374 151.809 16.9417 152.019 17.411Z" fill="white"/>
<path d="M5.81964 9.09959V30.2673H17.8152C18.7654 30.2673 19.478 30.5051 19.9531 30.9808C20.4281 31.4565 20.6657 32.0511 20.6657 32.7646C20.6657 33.4781 20.4281 34.0727 19.9531 34.5484C19.478 35.024 18.7654 35.2619 17.6965 35.2619H3.56305C2.2566 35.2619 1.30645 35.024 0.831378 34.4294C0.237537 33.8349 0 32.8835 0 31.6943V9.09959C0 7.91039 0.237537 6.95904 0.831378 6.36445C1.42522 5.76985 2.01906 5.41309 2.96921 5.41309C3.80058 5.41309 4.63196 5.65093 5.10703 6.24553C5.58211 7.07796 5.81964 7.91039 5.81964 9.09959Z" fill="white"/>
<path d="M37.7952 32.6454C36.4888 33.5968 35.1823 34.4292 33.9947 34.9049C32.807 35.3806 31.3818 35.6184 29.8378 35.6184C28.4126 35.6184 27.2249 35.3806 26.156 34.786C25.087 34.1914 24.2557 33.4778 23.7806 32.5265C23.1868 31.5751 22.9492 30.6238 22.9492 29.4346C22.9492 28.0076 23.4243 26.6994 24.3744 25.6292C25.3246 24.5589 26.631 23.8454 28.2938 23.4886C28.6501 23.3697 29.4815 23.2508 30.9067 22.894C32.2131 22.6562 33.4008 22.4183 34.351 22.1805C35.3011 21.9426 36.37 21.7048 37.5577 21.3481C37.4389 19.921 37.2014 18.8507 36.7263 18.2561C36.2513 17.5426 35.1823 17.3048 33.5196 17.3048C32.0944 17.3048 31.1442 17.5426 30.4316 17.8994C29.719 18.2561 29.1252 18.8507 28.6501 19.6832C28.175 20.3967 27.8187 20.9913 27.5812 21.2291C27.3436 21.467 26.9873 21.5859 26.2747 21.5859C25.6809 21.5859 25.087 21.3481 24.7307 20.9913C24.2557 20.6345 24.0181 20.1589 24.0181 19.4453C24.0181 18.494 24.3744 17.5426 25.087 16.7102C25.7997 15.7588 26.8686 15.0453 28.2938 14.4507C29.719 13.8561 31.5005 13.6183 33.6384 13.6183C36.0137 13.6183 37.914 13.8561 39.2205 14.4507C40.5269 15.0453 41.5958 15.8778 42.0709 17.067C42.6647 18.2561 42.9023 19.921 42.9023 21.9427C42.9023 23.2508 42.9023 24.321 42.9023 25.1535C42.9023 25.9859 42.9023 27.0562 42.9023 28.1265C42.9023 29.1967 43.021 30.267 43.3774 31.3373C43.7337 32.4076 43.8524 33.1211 43.8524 33.4778C43.8524 34.0724 43.6149 34.5481 43.021 35.0238C42.4272 35.4995 41.8334 35.6184 41.1208 35.6184C40.5269 35.6184 40.0518 35.3806 39.458 34.786C38.9829 34.3103 38.3891 33.5968 37.7952 32.6454ZM37.4389 24.7967C36.6076 25.0346 35.5386 25.3913 33.9947 25.7481C32.4507 26.1048 31.3818 26.3427 30.9067 26.4616C30.3128 26.5805 29.719 26.9373 29.2439 27.4129C28.7689 27.8886 28.4126 28.4832 28.4126 29.3157C28.4126 30.1481 28.7689 30.8616 29.3627 31.4562C29.9565 32.0508 30.7879 32.2886 31.8568 32.2886C32.9257 32.2886 33.8759 32.0508 34.826 31.5751C35.7762 31.0995 36.37 30.5049 36.8451 29.7913C37.3202 28.9589 37.5577 27.6508 37.5577 25.7481V24.7967H37.4389Z" fill="white"/>
<path d="M52.0676 8.6239V16.9483C53.1365 15.878 54.0867 15.0456 55.1556 14.5699C56.2245 13.9753 57.5309 13.7374 59.0749 13.7374C60.8565 13.7374 62.4004 14.2131 63.8257 15.0455C65.1321 15.878 66.201 17.1861 67.0324 18.7321C67.745 20.3969 68.1013 22.2996 68.1013 24.5591C68.1013 26.224 67.8638 27.651 67.5075 29.0781C67.0324 30.5051 66.4386 31.6943 65.7259 32.6456C64.8946 33.597 63.9444 34.4294 62.8755 35.024C61.6878 35.6186 60.5001 35.8565 59.0749 35.8565C58.2436 35.8565 57.4122 35.7375 56.6996 35.6186C55.987 35.3808 55.3931 35.1429 54.7993 34.7862C54.3242 34.4294 53.8491 34.0727 53.4928 33.8348C53.2553 33.2402 52.6614 32.7646 52.0676 32.051V32.5267C52.0676 33.597 51.8301 34.3105 51.355 34.7862C50.8799 35.3808 50.2861 35.6186 49.5735 35.6186C48.8609 35.6186 48.1483 35.3808 47.792 34.7862C47.3169 34.3105 47.0793 33.4781 47.0793 32.5267V8.86173C47.0793 7.79146 47.3169 6.95902 47.792 6.36442C48.267 5.76983 48.8609 5.53198 49.6922 5.53198C50.5236 5.53198 51.1175 5.76983 51.5925 6.36442C51.9488 6.95902 52.0676 7.67254 52.0676 8.6239ZM52.4239 24.7969C52.4239 26.9375 52.899 28.6024 53.8491 29.7916C54.7993 30.9808 56.1057 31.5754 57.7685 31.5754C59.0749 31.5754 60.2626 30.9808 61.3315 29.7916C62.2817 28.6024 62.7567 26.9375 62.7567 24.678C62.7567 23.251 62.5192 22.0618 62.1629 20.9915C61.8066 19.9212 61.2128 19.2077 60.3814 18.6131C59.6688 18.0185 58.7186 17.7807 57.7685 17.7807C56.6996 17.7807 55.8682 18.0185 55.0368 18.6131C54.2054 19.2077 53.6116 20.0402 53.1365 21.1104C52.6615 22.0618 52.4239 23.251 52.4239 24.7969Z" fill="white"/>
<path d="M76.4353 8.6239V16.9483C77.5042 15.878 78.4543 15.0456 79.5233 14.5699C80.5922 13.9753 81.8986 13.7374 83.4426 13.7374C85.2241 13.7374 86.7681 14.2131 88.1933 15.0455C89.4998 15.878 90.5687 17.1861 91.4001 18.7321C92.1127 20.3969 92.469 22.2996 92.469 24.5591C92.469 26.224 92.2315 27.651 91.8752 29.0781C91.5189 30.5051 90.8062 31.6943 90.0936 32.6456C89.2623 33.597 88.3121 34.4294 87.2432 35.024C86.0555 35.6186 84.8678 35.8565 83.5614 35.8565C82.73 35.8565 81.8986 35.7375 81.186 35.6186C80.4734 35.3808 79.8796 35.1429 79.2857 34.7862C78.8106 34.4294 78.3356 34.0727 77.9793 33.8348C77.623 33.4781 77.1479 33.0024 76.5541 32.2889V32.7646C76.5541 33.8348 76.3165 34.5483 75.8415 35.024C75.3664 35.4997 74.7725 35.8565 73.9412 35.8565C73.2285 35.8565 72.5159 35.6186 72.1596 35.024C71.6846 34.5483 71.447 33.7159 71.447 32.7646V8.86173C71.447 7.79146 71.6846 6.95902 72.1596 6.36442C72.6347 5.76983 73.2286 5.53198 74.0599 5.53198C74.8913 5.53198 75.4851 5.76983 75.9602 6.36442C76.1978 6.95902 76.4353 7.67254 76.4353 8.6239ZM76.6728 24.7969C76.6728 26.9375 77.1479 28.6024 78.098 29.7916C79.0482 30.9808 80.3546 31.5754 82.0174 31.5754C83.3238 31.5754 84.5115 30.9808 85.5804 29.7916C86.5306 28.6024 87.0057 26.9375 87.0057 24.678C87.0057 23.251 86.7681 22.0618 86.4118 20.9915C86.0555 19.9212 85.4617 19.2077 84.6303 18.6131C83.9177 18.0185 82.9675 17.7807 82.0174 17.7807C80.9485 17.7807 80.1171 18.0185 79.2857 18.6131C78.4543 19.2077 77.8605 20.0402 77.3854 21.1104C76.9104 22.0618 76.6728 23.251 76.6728 24.7969Z" fill="white"/>
<path d="M107.362 14.0942H107.956V10.8833C107.956 10.0509 107.956 9.33739 108.075 8.86171C108.075 8.38603 108.193 7.91035 108.431 7.5536C108.668 7.19684 108.906 6.84008 109.381 6.60224C109.737 6.3644 110.212 6.24548 110.687 6.24548C111.4 6.24548 111.994 6.48332 112.588 7.07792C112.944 7.43468 113.182 7.79143 113.3 8.38603C113.419 8.86171 113.419 9.57523 113.419 10.5266V14.2131H115.438C116.151 14.2131 116.745 14.4509 117.22 14.8077C117.576 15.1644 117.814 15.6401 117.814 16.2347C117.814 16.9482 117.576 17.4239 116.982 17.7807C116.388 18.0185 115.557 18.2564 114.488 18.2564H113.538V28.2456C113.538 29.078 113.538 29.7915 113.657 30.1483C113.775 30.624 113.894 30.9807 114.132 31.2186C114.369 31.4564 114.844 31.6943 115.438 31.6943C115.794 31.6943 116.114 31.6943 116.745 31.0929C117.078 30.8745 117.8 30.8745 118.041 30.8745C118.282 30.8745 118.882 31.0929 119.239 31.4497C119.595 31.8064 119.714 32.2821 119.714 32.7578C119.714 33.5902 119.239 34.3037 118.289 34.7794C117.338 35.2551 115.913 35.9754 114.132 35.9754C112.469 35.9754 111.163 35.7375 110.331 35.1429C109.5 34.5483 108.906 33.8348 108.668 32.7645C108.431 31.8132 108.312 30.3861 108.312 28.7213V18.2564H107.599C106.768 18.2564 106.174 18.0185 105.818 17.6618C105.462 17.305 105.224 16.8293 105.224 16.2347C105.224 15.6401 105.462 15.1644 105.818 14.8077C105.937 14.332 106.531 14.0942 107.362 14.0942Z" fill="white"/>
<path d="M98.9026 13.6184C98.0712 13.6184 96.9955 13.8562 96.5205 14.4508C96.0454 15.0454 95.8079 15.759 95.8079 16.8292L97.2533 33.2536C97.2533 34.3239 97.4908 35.1563 97.9659 35.7509C98.4409 36.3455 98.7691 36.4223 99.2509 36.4223C99.7327 36.4223 99.846 36.3455 100.44 35.7509C100.915 35.1563 101.271 34.3239 101.271 33.2536L102.383 16.6434C102.383 15.692 101.997 15.0454 101.403 14.4508C100.81 13.8562 99.6152 13.6184 98.9026 13.6184Z" fill="white"/>
<path d="M91.5906 6.03042C91.9498 5.45323 93.9617 5.95827 95.4705 7.0405C97.4105 8.41132 98.632 10.8644 98.2009 11.4416C97.7698 12.0188 95.4705 10.6479 94.1054 9.49355C92.9557 8.55562 91.2313 6.67976 91.5906 6.03042Z" fill="white"/>
<path d="M98.4166 0.00258018C98.9951 -0.0896854 99.8627 2.30922 100.152 4.5236C100.441 7.4761 99.6699 10.6131 99.0915 10.6131C98.4166 10.6131 97.9346 7.38383 97.8382 5.16945C97.7418 3.23188 97.8382 0.0948458 98.4166 0.00258018Z" fill="white"/>
<path d="M103.463 6.3074C103.146 6.07422 102.035 7.00693 101.454 8.11453C100.66 9.51361 100.502 11.379 100.925 11.5539C101.348 11.7871 102.353 10.2714 102.828 9.16384C103.304 8.23113 103.833 6.59887 103.463 6.3074Z" fill="white"/>
</svg>
