<svg width="131" height="32" viewBox="0 0 131 32" fill="none" xmlns="http://www.w3.org/2000/svg">
<path d="M100.053 1.88553C100.193 1.35134 100.739 1.03195 101.274 1.17217L102.372 1.46038L96.5533 23.6275C96.4036 24.1978 95.8199 24.5388 95.2496 24.3891C94.6793 24.2394 94.3383 23.6558 94.488 23.0854L100.053 1.88553Z" fill="#304D95"/>
<path fill-rule="evenodd" clip-rule="evenodd" d="M129.26 8.95834L102.263 1.87238L98.5119 16.1649L125.508 23.2509C126.043 23.3911 126.589 23.0717 126.73 22.5375L129.973 10.1795C130.113 9.64526 129.794 9.09855 129.26 8.95834ZM108.783 11.689L107.388 11.323L106.844 13.3985C106.766 13.6953 106.635 13.9015 106.451 14.0172C106.267 14.1329 106.066 14.162 105.847 14.1046C105.618 14.0445 105.453 13.921 105.353 13.7342C105.253 13.5441 105.241 13.3023 105.318 13.0089L106.802 7.35736C106.888 7.03061 107.026 6.8174 107.216 6.71773C107.407 6.61806 107.67 6.61219 108.005 6.70011L109.958 7.21282C110.535 7.36443 110.968 7.5244 111.257 7.69273C111.542 7.85683 111.771 8.06473 111.942 8.31642C112.117 8.56902 112.226 8.85061 112.269 9.16118C112.311 9.47176 112.287 9.80209 112.195 10.1522C111.999 10.8991 111.614 11.404 111.041 11.6669C110.469 11.9266 109.716 11.9339 108.783 11.689ZM109.296 8.23122L108.271 7.96209L107.682 10.2027L108.708 10.4718C109.067 10.566 109.375 10.6078 109.634 10.5973C109.896 10.5876 110.112 10.516 110.282 10.3825C110.452 10.249 110.573 10.0472 110.644 9.77714C110.729 9.45372 110.7 9.16475 110.559 8.91023C110.397 8.63609 109.976 8.40975 109.296 8.23122ZM114.421 14.2487L114.122 15.389C114.049 15.6657 113.928 15.8566 113.758 15.9617C113.588 16.0634 113.401 16.0873 113.196 16.0335C112.994 15.9806 112.847 15.8671 112.754 15.6929C112.661 15.5188 112.65 15.295 112.722 15.0216L113.72 11.2206C113.881 10.6071 114.188 10.36 114.643 10.4794C114.875 10.5404 115.024 10.656 115.089 10.8263C115.154 10.9966 115.155 11.2231 115.091 11.5059C115.332 11.2698 115.559 11.1029 115.771 11.0053C115.986 10.9085 116.241 10.8988 116.535 10.9759C116.829 11.0531 117.095 11.1997 117.335 11.4157C117.574 11.6317 117.662 11.8581 117.6 12.0949C117.556 12.2616 117.46 12.3842 117.312 12.4629C117.168 12.5391 117.027 12.5592 116.89 12.5233C116.839 12.5099 116.722 12.4471 116.54 12.3351C116.362 12.2206 116.197 12.1436 116.047 12.1041C115.842 12.0503 115.66 12.0597 115.502 12.1323C115.345 12.2016 115.204 12.3301 115.078 12.518C114.952 12.7059 114.838 12.9396 114.735 13.2192C114.633 13.4954 114.529 13.8386 114.421 14.2487ZM122.721 16.7695C122.941 16.4602 123.105 16.1021 123.212 15.6954C123.319 15.2853 123.353 14.8931 123.312 14.5189C123.275 14.1457 123.166 13.8033 122.984 13.492C122.803 13.1807 122.557 12.913 122.247 12.6891C121.937 12.4651 121.57 12.2975 121.146 12.1862C120.729 12.0768 120.33 12.0434 119.95 12.0862C119.571 12.1256 119.228 12.2352 118.921 12.4149C118.615 12.5946 118.351 12.8391 118.131 13.1484C117.911 13.4578 117.747 13.8192 117.639 14.2326C117.531 14.6427 117.496 15.0344 117.533 15.4077C117.574 15.7785 117.685 16.1213 117.866 16.436C118.051 16.7482 118.295 17.0154 118.598 17.2376C118.901 17.4597 119.265 17.6265 119.689 17.7377C120.116 17.8498 120.518 17.8858 120.894 17.8454C121.27 17.8018 121.614 17.6889 121.925 17.5067C122.236 17.3246 122.501 17.0789 122.721 16.7695ZM121.769 13.9267C121.94 14.3032 121.953 14.7698 121.807 15.3267C121.662 15.8768 121.423 16.2754 121.087 16.5224C120.756 16.767 120.379 16.8337 119.955 16.7224C119.675 16.6489 119.449 16.5147 119.277 16.3199C119.11 16.1227 119.005 15.876 118.962 15.5796C118.923 15.2842 118.95 14.9581 119.043 14.6013C119.138 14.2412 119.277 13.9409 119.461 13.7005C119.644 13.46 119.858 13.2988 120.103 13.2168C120.348 13.1315 120.607 13.1247 120.881 13.1965C121.305 13.3077 121.601 13.5512 121.769 13.9267Z" fill="#304D95"/>
<path d="M4.66165 7.27963V24.2138H14.2703C15.0314 24.2138 15.6022 24.404 15.9828 24.7846C16.3633 25.1651 16.5536 25.6408 16.5536 26.2116C16.5536 26.7824 16.3633 27.2581 15.9828 27.6387C15.6022 28.0192 15.0314 28.2095 14.1752 28.2095H2.85407C1.80758 28.2095 1.04649 28.0192 0.66595 27.5435C0.190272 27.0678 0 26.3068 0 25.3554V7.27963C0 6.32828 0.190272 5.56719 0.66595 5.09152C1.14163 4.61584 1.61731 4.33043 2.37839 4.33043C3.04434 4.33043 3.71029 4.5207 4.09083 4.99638C4.47137 5.66233 4.66165 6.32828 4.66165 7.27963Z" fill="#304D95"/>
<path d="M30.2748 26.1163C29.2283 26.8774 28.1818 27.5434 27.2304 27.9239C26.2791 28.3045 25.1374 28.4947 23.9007 28.4947C22.7591 28.4947 21.8077 28.3045 20.9515 27.8288C20.0953 27.3531 19.4293 26.7823 19.0488 26.0212C18.5731 25.2601 18.3828 24.499 18.3828 23.5477C18.3828 22.4061 18.7634 21.3596 19.5244 20.5033C20.2855 19.6471 21.332 19.0763 22.6639 18.7909C22.9493 18.6958 23.6153 18.6006 24.7569 18.3152C25.8034 18.125 26.7547 17.9347 27.5158 17.7444C28.2769 17.5541 29.1331 17.3639 30.0845 17.0785C29.9894 15.9368 29.7991 15.0806 29.4185 14.6049C29.038 14.0341 28.1818 13.8439 26.8499 13.8439C25.7083 13.8439 24.9472 14.0341 24.3764 14.3195C23.8055 14.6049 23.3299 15.0806 22.9493 15.7466C22.5688 16.3174 22.2834 16.7931 22.0931 16.9833C21.9028 17.1736 21.6174 17.2687 21.0466 17.2687C20.5709 17.2687 20.0953 17.0785 19.8098 16.7931C19.4293 16.5077 19.239 16.1271 19.239 15.5563C19.239 14.7952 19.5244 14.0341 20.0953 13.3682C20.6661 12.6071 21.5223 12.0363 22.6639 11.5606C23.8055 11.0849 25.2326 10.8947 26.945 10.8947C28.8477 10.8947 30.3699 11.0849 31.4164 11.5606C32.4629 12.0363 33.3191 12.7022 33.6997 13.6536C34.1753 14.6049 34.3656 15.9368 34.3656 17.5541C34.3656 18.6006 34.3656 19.4569 34.3656 20.1228C34.3656 20.7888 34.3656 21.645 34.3656 22.5012C34.3656 23.3574 34.4607 24.2136 34.7461 25.0699C35.0316 25.9261 35.1267 26.4969 35.1267 26.7823C35.1267 27.258 34.9364 27.6385 34.4607 28.0191C33.9851 28.3996 33.5094 28.4947 32.9386 28.4947C32.4629 28.4947 32.0823 28.3045 31.6067 27.8288C31.2261 27.4482 30.7504 26.8774 30.2748 26.1163ZM29.9894 19.8374C29.3234 20.0277 28.4672 20.3131 27.2304 20.5985C25.9937 20.8839 25.1374 21.0742 24.7569 21.1693C24.2812 21.2644 23.8055 21.5498 23.425 21.9304C23.0445 22.3109 22.7591 22.7866 22.7591 23.4525C22.7591 24.1185 23.0445 24.6893 23.5201 25.165C23.9958 25.6407 24.6618 25.8309 25.518 25.8309C26.3742 25.8309 27.1353 25.6407 27.8964 25.2601C28.6575 24.8796 29.1331 24.4039 29.5137 23.8331C29.8942 23.1671 30.0845 22.1207 30.0845 20.5985V19.8374H29.9894Z" fill="#304D95"/>
<path d="M41.7071 6.89911V13.5586C42.5633 12.7024 43.3244 12.0364 44.1806 11.6559C45.0369 11.1802 46.0834 10.9899 47.3201 10.9899C48.7472 10.9899 49.9839 11.3705 51.1255 12.0364C52.172 12.7024 53.0283 13.7489 53.6942 14.9856C54.265 16.3175 54.5504 17.8397 54.5504 19.6473C54.5504 20.9792 54.3602 22.1208 54.0747 23.2624C53.6942 24.4041 53.2185 25.3554 52.6477 26.1165C51.9818 26.8776 51.2207 27.5435 50.3645 28.0192C49.4131 28.4949 48.4617 28.6852 47.3201 28.6852C46.6542 28.6852 45.9882 28.59 45.4174 28.4949C44.8466 28.3046 44.3709 28.1144 43.8952 27.8289C43.5147 27.5435 43.1342 27.2581 42.8487 27.0679C42.6585 26.5922 42.1828 26.2116 41.7071 25.6408V26.0214C41.7071 26.8776 41.5169 27.4484 41.1363 27.8289C40.7558 28.3046 40.2801 28.4949 39.7093 28.4949C39.1385 28.4949 38.5676 28.3046 38.2822 27.8289C37.9017 27.4484 37.7114 26.7825 37.7114 26.0214V7.08938C37.7114 6.23316 37.9017 5.56721 38.2822 5.09154C38.6628 4.61586 39.1385 4.42558 39.8044 4.42558C40.4704 4.42558 40.946 4.61586 41.3266 5.09154C41.612 5.56721 41.7071 6.13803 41.7071 6.89911ZM41.9925 19.8376C41.9925 21.55 42.3731 22.8819 43.1342 23.8332C43.8952 24.7846 44.9417 25.2603 46.2736 25.2603C47.3201 25.2603 48.2715 24.7846 49.1277 23.8332C49.8888 22.8819 50.2693 21.55 50.2693 19.7424C50.2693 18.6008 50.0791 17.6494 49.7936 16.7932C49.5082 15.937 49.0326 15.3662 48.3666 14.8905C47.7958 14.4148 47.0347 14.2246 46.2736 14.2246C45.4174 14.2246 44.7515 14.4148 44.0855 14.8905C43.4196 15.3662 42.9439 16.0321 42.5633 16.8884C42.1828 17.6494 41.9925 18.6008 41.9925 19.8376Z" fill="#304D95"/>
<path d="M61.2262 6.89905V13.5585C62.0824 12.7023 62.8435 12.0364 63.6997 11.6558C64.5559 11.1802 65.6024 10.9899 66.8392 10.9899C68.2662 10.9899 69.503 11.3704 70.6446 12.0364C71.6911 12.7023 72.5473 13.7488 73.2133 14.9856C73.7841 16.3175 74.0695 17.8396 74.0695 19.6472C74.0695 20.9791 73.8792 22.1207 73.5938 23.2624C73.3084 24.404 72.7376 25.3554 72.1668 26.1164C71.5008 26.8775 70.7397 27.5435 69.8835 28.0192C68.9321 28.4948 67.9808 28.6851 66.9343 28.6851C66.2684 28.6851 65.6024 28.59 65.0316 28.4948C64.4608 28.3046 63.9851 28.1143 63.5094 27.8289C63.1289 27.5435 62.7483 27.2581 62.4629 27.0678C62.1775 26.7824 61.797 26.4018 61.3213 25.831V26.2116C61.3213 27.0678 61.131 27.6386 60.7505 28.0192C60.3699 28.3997 59.8943 28.6851 59.2283 28.6851C58.6575 28.6851 58.0867 28.4948 57.8013 28.0192C57.4207 27.6386 57.2305 26.9727 57.2305 26.2116V7.08932C57.2305 6.2331 57.4207 5.56715 57.8013 5.09148C58.1818 4.6158 58.6575 4.42552 59.3235 4.42552C59.9894 4.42552 60.4651 4.6158 60.8456 5.09148C61.0359 5.56715 61.2262 6.13797 61.2262 6.89905ZM61.4164 19.8375C61.4164 21.5499 61.797 22.8818 62.5581 23.8332C63.3191 24.7845 64.3656 25.2602 65.6975 25.2602C66.744 25.2602 67.6954 24.7845 68.5516 23.8332C69.3127 22.8818 69.6932 21.5499 69.6932 19.7424C69.6932 18.6007 69.503 17.6494 69.2176 16.7932C68.9321 15.9369 68.4565 15.3661 67.7905 14.8904C67.2197 14.4148 66.4586 14.2245 65.6975 14.2245C64.8413 14.2245 64.1754 14.4148 63.5094 14.8904C62.8435 15.3661 62.3678 16.0321 61.9872 16.8883C61.6067 17.6494 61.4164 18.6007 61.4164 19.8375Z" fill="#304D95"/>
<path d="M85.9991 11.2753H86.4747V8.70667C86.4747 8.04072 86.4747 7.46991 86.5699 7.08936C86.5699 6.70882 86.665 6.32828 86.8553 6.04287C87.0456 5.75747 87.2358 5.47206 87.6164 5.28179C87.9018 5.09151 88.2823 4.99638 88.6629 4.99638C89.2337 4.99638 89.7094 5.18665 90.185 5.66233C90.4704 5.94774 90.6607 6.23314 90.7558 6.70882C90.851 7.08936 90.851 7.66018 90.851 8.42126V11.3705H92.4683C93.0391 11.3705 93.5148 11.5607 93.8953 11.8461C94.1807 12.1316 94.371 12.5121 94.371 12.9878C94.371 13.5586 94.1807 13.9391 93.705 14.2245C93.2294 14.4148 92.5634 14.6051 91.7072 14.6051H90.9461V22.5965C90.9461 23.2624 90.9461 23.8332 91.0413 24.1186C91.1364 24.4992 91.2315 24.7846 91.4218 24.9749C91.6121 25.1651 91.9926 25.3554 92.4683 25.3554C92.7537 25.3554 93.0096 25.3554 93.5148 24.8743C93.7814 24.6996 94.3603 24.6996 94.5533 24.6996C94.7463 24.6996 95.2272 24.8743 95.5126 25.1597C95.798 25.4452 95.8932 25.8257 95.8932 26.2062C95.8932 26.8722 95.5126 27.443 94.7515 27.8235C93.9904 28.2041 92.8488 28.7803 91.4218 28.7803C90.0899 28.7803 89.0434 28.59 88.3775 28.1143C87.7115 27.6387 87.2358 27.0678 87.0456 26.2116C86.8553 25.4505 86.7602 24.3089 86.7602 22.977V14.6051H86.1893C85.5234 14.6051 85.0477 14.4148 84.7623 14.1294C84.4769 13.844 84.2866 13.4634 84.2866 12.9878C84.2866 12.5121 84.4769 12.1316 84.7623 11.8461C84.8574 11.4656 85.3331 11.2753 85.9991 11.2753Z" fill="#304D95"/>
<path d="M79.2231 10.8947C78.5571 10.8947 77.6955 11.085 77.315 11.5607C76.9344 12.0364 76.7441 12.6072 76.7441 13.4634L77.9019 26.6029C77.9019 27.4591 78.0922 28.1251 78.4728 28.6007C78.8533 29.0764 79.1162 29.1378 79.5021 29.1378C79.888 29.1378 79.9788 29.0764 80.4544 28.6007C80.835 28.1251 81.1204 27.4591 81.1204 26.6029L82.0107 13.3147C82.0107 12.5536 81.702 12.0364 81.2263 11.5607C80.7506 11.085 79.7939 10.8947 79.2231 10.8947Z" fill="#304D95"/>
<path d="M73.3659 4.82436C73.6536 4.36261 75.2652 4.76664 76.4738 5.63243C78.0278 6.72909 79.0062 8.69153 78.6609 9.15328C78.3155 9.61503 76.4738 8.51837 75.3803 7.59487C74.4594 6.84452 73.0781 5.34383 73.3659 4.82436Z" fill="#304D95"/>
<path d="M78.8336 0.00206415C79.297 -0.0717483 79.9919 1.84738 80.2236 3.61888C80.4552 5.98088 79.8375 8.4905 79.3742 8.4905C78.8336 8.4905 78.4475 5.90706 78.3703 4.13556C78.2931 2.5855 78.3703 0.0758766 78.8336 0.00206415Z" fill="#304D95"/>
<path d="M82.8759 5.04595C82.6217 4.85941 81.7322 5.60558 81.2663 6.49166C80.631 7.61092 80.5039 9.10326 80.8428 9.24317C81.1816 9.42971 81.9864 8.21718 82.3676 7.3311C82.7488 6.58493 83.1724 5.27913 82.8759 5.04595Z" fill="#304D95"/>
</svg>
