<svg width="165" height="35" viewBox="0 0 165 35" fill="none" xmlns="http://www.w3.org/2000/svg">
<path d="M4.95145 11.4216V29.4085H15.1575C15.9659 29.4085 16.5722 29.6106 16.9764 30.0148C17.3806 30.419 17.5827 30.9243 17.5827 31.5306C17.5827 32.1369 17.3806 32.6421 16.9764 33.0463C16.5722 33.4505 15.9659 33.6526 15.0565 33.6526H3.0315C1.91995 33.6526 1.11155 33.4505 0.707351 32.9453C0.202101 32.44 0 31.6316 0 30.6211V11.4216C0 10.4111 0.202101 9.60272 0.707351 9.09747C1.2126 8.59222 1.71785 8.28906 2.52625 8.28906C3.2336 8.28906 3.94095 8.49117 4.34515 8.99642C4.74935 9.70377 4.95145 10.4111 4.95145 11.4216Z" fill="#304D95"/>
<path d="M30.517 31.4297C29.4054 32.2381 28.2939 32.9455 27.2834 33.3497C26.2729 33.7539 25.0603 33.956 23.7466 33.956C22.534 33.956 21.5235 33.7539 20.6141 33.2486C19.7046 32.7434 18.9973 32.1371 18.5931 31.3287C18.0878 30.5203 17.8857 29.7119 17.8857 28.7014C17.8857 27.4888 18.2899 26.3772 19.0983 25.4678C19.9067 24.5583 21.0183 23.952 22.433 23.6489C22.7361 23.5478 23.4435 23.4468 24.6561 23.1436C25.7676 22.9415 26.7781 22.7394 27.5865 22.5373C28.3949 22.3352 29.3044 22.1331 30.3149 21.83C30.2138 20.6174 30.0117 19.7079 29.6075 19.2027C29.2033 18.5964 28.2939 18.3943 26.8792 18.3943C25.6666 18.3943 24.8582 18.5964 24.2519 18.8995C23.6456 19.2027 23.1403 19.7079 22.7361 20.4153C22.3319 21.0216 22.0288 21.5268 21.8267 21.7289C21.6246 21.931 21.3214 22.0321 20.7151 22.0321C20.2099 22.0321 19.7046 21.83 19.4015 21.5268C18.9973 21.2237 18.7952 20.8195 18.7952 20.2132C18.7952 19.4048 19.0983 18.5964 19.7046 17.889C20.3109 17.0806 21.2204 16.4743 22.433 15.9691C23.6456 15.4638 25.1613 15.2617 26.9802 15.2617C29.0012 15.2617 30.618 15.4638 31.7296 15.9691C32.8412 16.4743 33.7506 17.1817 34.1548 18.1922C34.66 19.2027 34.8622 20.6174 34.8622 22.3352C34.8622 23.4468 34.8622 24.3562 34.8622 25.0636C34.8622 25.7709 34.8622 26.6804 34.8622 27.5898C34.8622 28.4993 34.9632 29.4087 35.2664 30.3182C35.5695 31.2276 35.6706 31.8339 35.6706 32.1371C35.6706 32.6423 35.4684 33.0465 34.9632 33.4507C34.4579 33.8549 33.9527 33.956 33.3464 33.956C32.8411 33.956 32.4369 33.7539 31.9317 33.2486C31.5275 32.8444 31.0222 32.2381 30.517 31.4297ZM30.2138 24.7604C29.5065 24.9625 28.597 25.2657 27.2834 25.5688C25.9697 25.872 25.0603 26.0741 24.6561 26.1751C24.1508 26.2762 23.6456 26.5793 23.2414 26.9835C22.8372 27.3877 22.534 27.893 22.534 28.6003C22.534 29.3077 22.8372 29.914 23.3424 30.4192C23.8477 30.9245 24.555 31.1266 25.4645 31.1266C26.3739 31.1266 27.1823 30.9245 27.9907 30.5203C28.7991 30.1161 29.3044 29.6108 29.7086 29.0045C30.1128 28.2972 30.3149 27.1856 30.3149 25.5688V24.7604H30.2138Z" fill="#304D95"/>
<path d="M41.4306 11.017V18.0905C42.3401 17.181 43.1485 16.4737 44.0579 16.0695C44.9674 15.5642 46.0789 15.3621 47.3926 15.3621C48.9083 15.3621 50.222 15.7663 51.4346 16.4737C52.5461 17.181 53.4556 18.2926 54.1629 19.6062C54.7692 21.0209 55.0724 22.6377 55.0724 24.5577C55.0724 25.9724 54.8703 27.185 54.5671 28.3976C54.1629 29.6102 53.6577 30.6207 53.0514 31.4291C52.344 32.2375 51.5356 32.9448 50.6262 33.4501C49.6157 33.9553 48.6052 34.1574 47.3926 34.1574C46.6852 34.1574 45.9779 34.0564 45.3716 33.9553C44.7653 33.7532 44.26 33.5511 43.7548 33.248C43.3506 32.9448 42.9464 32.6417 42.6432 32.4396C42.4411 31.9343 41.9359 31.5301 41.4306 30.9238V31.328C41.4306 32.2375 41.2285 32.8438 40.8243 33.248C40.4201 33.7532 39.9149 33.9553 39.3086 33.9553C38.7023 33.9553 38.096 33.7532 37.7928 33.248C37.3886 32.8438 37.1865 32.1364 37.1865 31.328V11.2191C37.1865 10.3096 37.3886 9.60225 37.7928 9.097C38.197 8.59175 38.7023 8.38965 39.4096 8.38965C40.117 8.38965 40.6222 8.59175 41.0264 9.097C41.3296 9.60225 41.4306 10.2086 41.4306 11.017ZM41.7338 24.7598C41.7338 26.5787 42.138 27.9934 42.9464 29.0039C43.7548 30.0144 44.8663 30.5196 46.281 30.5196C47.3926 30.5196 48.4031 30.0144 49.3125 29.0039C50.1209 27.9934 50.5251 26.5787 50.5251 24.6587C50.5251 23.4461 50.323 22.4356 50.0199 21.5262C49.7167 20.6167 49.2115 20.0104 48.5041 19.5052C47.8978 18.9999 47.0894 18.7978 46.281 18.7978C45.3716 18.7978 44.6642 18.9999 43.9569 19.5052C43.2495 20.0104 42.7443 20.7178 42.3401 21.6272C41.9359 22.4356 41.7338 23.4461 41.7338 24.7598Z" fill="#304D95"/>
<path d="M60.9331 11.017V18.0905C61.8425 17.181 62.6509 16.4737 63.5604 16.0695C64.4698 15.5642 65.5814 15.3621 66.895 15.3621C68.4108 15.3621 69.7244 15.7663 70.937 16.4737C72.0486 17.181 72.958 18.2926 73.6654 19.6062C74.2717 21.0209 74.5748 22.6377 74.5748 24.5577C74.5748 25.9724 74.3727 27.185 74.0696 28.3976C73.7664 29.6102 73.1601 30.6207 72.5538 31.4291C71.8465 32.2375 71.0381 32.9448 70.1286 33.4501C69.1181 33.9553 68.1076 34.1574 66.9961 34.1574C66.2887 34.1574 65.5814 34.0564 64.9751 33.9553C64.3688 33.7532 63.8635 33.5511 63.3583 33.248C62.9541 32.9448 62.5499 32.6417 62.2467 32.4396C61.9436 32.1364 61.5394 31.7322 61.0341 31.1259V31.5301C61.0341 32.4396 60.832 33.0459 60.4278 33.4501C60.0236 33.8543 59.5184 34.1574 58.811 34.1574C58.2047 34.1574 57.5984 33.9553 57.2953 33.4501C56.8911 33.0459 56.689 32.3385 56.689 31.5301V11.2191C56.689 10.3096 56.8911 9.60225 57.2953 9.097C57.6995 8.59175 58.2047 8.38965 58.9121 8.38965C59.6194 8.38965 60.1247 8.59175 60.5289 9.097C60.731 9.60225 60.9331 10.2086 60.9331 11.017ZM61.1352 24.7598C61.1352 26.5787 61.5394 27.9934 62.3478 29.0039C63.1562 30.0144 64.2677 30.5196 65.6824 30.5196C66.794 30.5196 67.8045 30.0144 68.7139 29.0039C69.5223 27.9934 69.9265 26.5787 69.9265 24.6587C69.9265 23.4461 69.7244 22.4356 69.4213 21.5262C69.1181 20.6167 68.6129 20.0104 67.9055 19.5052C67.2992 18.9999 66.4908 18.7978 65.6824 18.7978C64.773 18.7978 64.0656 18.9999 63.3583 19.5052C62.6509 20.0104 62.1457 20.7178 61.7415 21.6272C61.3373 22.4356 61.1352 23.4461 61.1352 24.7598Z" fill="#304D95"/>
<path d="M78.819 15.2617C78.1117 15.2617 77.6064 15.4638 77.2022 15.9691C76.798 16.4743 76.5959 17.0806 76.5959 17.9901V31.1266C76.5959 32.036 76.798 32.7434 77.2022 33.2486C77.6064 33.7539 78.2127 33.956 78.819 33.956C79.5264 33.956 80.0316 33.7539 80.5369 33.2486C80.9411 32.7434 81.2442 32.036 81.2442 31.1266V17.889C81.2442 17.0806 81.0421 16.4743 80.5369 15.9691C80.0316 15.4638 79.4253 15.2617 78.819 15.2617Z" fill="#304D95"/>
<path d="M84.3768 15.6654H84.882V12.937C84.882 12.2297 84.882 11.6234 84.9831 11.2192C84.9831 10.815 85.0841 10.4108 85.2862 10.1076C85.4883 9.80449 85.6904 9.50134 86.0946 9.29924C86.3978 9.09714 86.802 8.99609 87.2062 8.99609C87.8125 8.99609 88.3177 9.19819 88.823 9.70344C89.1261 10.0066 89.3282 10.3097 89.4293 10.815C89.5303 11.2192 89.5303 11.8255 89.5303 12.6339V15.7664H91.2482C91.8545 15.7664 92.3597 15.9685 92.7639 16.2717C93.0671 16.5748 93.2692 16.979 93.2692 17.4843C93.2692 18.0906 93.0671 18.4948 92.5618 18.7979C92.0566 19 91.3492 19.2021 90.4398 19.2021H89.6314V27.6903C89.6314 28.3977 89.6314 29.004 89.7324 29.3071C89.8335 29.7113 89.9345 30.0145 90.1366 30.2166C90.3387 30.4187 90.7429 30.6208 91.2482 30.6208C91.5513 30.6208 91.8545 30.6208 92.3597 30.5197C92.865 30.4187 93.1681 30.4187 93.4713 30.4187C93.8755 30.4187 94.1786 30.5197 94.4818 30.8229C94.7849 31.126 94.886 31.5302 94.886 31.9344C94.886 32.6418 94.4818 33.2481 93.6734 33.6523C92.865 34.0565 91.6524 34.2586 90.1366 34.2586C88.7219 34.2586 87.6104 34.0565 86.903 33.5512C86.1957 33.046 85.6904 32.4397 85.4883 31.5302C85.2862 30.7218 85.1852 29.5092 85.1852 28.0945V19.2021H84.5789C83.8715 19.2021 83.3663 19 83.0631 18.6969C82.76 18.3937 82.5579 17.9895 82.5579 17.4843C82.5579 16.979 82.76 16.5748 83.0631 16.2717C83.1642 15.8675 83.6694 15.6654 84.3768 15.6654Z" fill="#304D95"/>
<path d="M67.7035 5.055C68.2087 4.2466 71.0381 4.95396 73.1602 6.46971C75.8885 8.38966 77.6064 11.8254 77.0001 12.6338C76.3938 13.4422 73.1602 11.5222 71.2402 9.9054C69.6234 8.59175 67.1982 5.96446 67.7035 5.055Z" fill="#304D95"/>
<path d="M77.6065 0.00282584C78.2128 -0.0982242 79.1223 2.52908 79.4254 4.95428C79.7286 8.18788 78.9202 11.6236 78.3139 11.6236C77.6065 11.6236 77.1013 8.08683 77.0002 5.66163C76.8992 3.53958 77.0002 0.103876 77.6065 0.00282584Z" fill="#304D95"/>
<path d="M85.1853 3.53903C84.579 3.13483 82.4569 4.75163 81.3454 6.67158C79.8296 9.09678 79.5265 12.3304 80.3349 12.6335C81.1433 13.0377 83.0632 10.4104 83.9727 8.49048C84.8821 6.87368 85.8926 4.04428 85.1853 3.53903Z" fill="#304D95"/>
<rect x="103" y="9" width="62" height="24" rx="5" fill="#FFD834"/>
<path d="M119.528 23.2H115.628L114.884 25H112.892L116.636 16.6H118.556L122.312 25H120.272L119.528 23.2ZM118.916 21.724L117.584 18.508L116.252 21.724H118.916ZM129.569 16.096V25H127.781V24.256C127.317 24.816 126.645 25.096 125.765 25.096C125.157 25.096 124.605 24.96 124.109 24.688C123.621 24.416 123.237 24.028 122.957 23.524C122.677 23.02 122.537 22.436 122.537 21.772C122.537 21.108 122.677 20.524 122.957 20.02C123.237 19.516 123.621 19.128 124.109 18.856C124.605 18.584 125.157 18.448 125.765 18.448C126.589 18.448 127.233 18.708 127.697 19.228V16.096H129.569ZM126.089 23.56C126.561 23.56 126.953 23.4 127.265 23.08C127.577 22.752 127.733 22.316 127.733 21.772C127.733 21.228 127.577 20.796 127.265 20.476C126.953 20.148 126.561 19.984 126.089 19.984C125.609 19.984 125.213 20.148 124.901 20.476C124.589 20.796 124.433 21.228 124.433 21.772C124.433 22.316 124.589 22.752 124.901 23.08C125.213 23.4 125.609 23.56 126.089 23.56ZM139.57 18.448C140.378 18.448 141.018 18.688 141.49 19.168C141.97 19.64 142.21 20.352 142.21 21.304V25H140.338V21.592C140.338 21.08 140.23 20.7 140.014 20.452C139.806 20.196 139.506 20.068 139.114 20.068C138.674 20.068 138.326 20.212 138.07 20.5C137.814 20.78 137.686 21.2 137.686 21.76V25H135.814V21.592C135.814 20.576 135.406 20.068 134.59 20.068C134.158 20.068 133.814 20.212 133.558 20.5C133.302 20.78 133.174 21.2 133.174 21.76V25H131.302V18.544H133.09V19.288C133.33 19.016 133.622 18.808 133.965 18.664C134.318 18.52 134.702 18.448 135.118 18.448C135.574 18.448 135.986 18.54 136.354 18.724C136.722 18.9 137.018 19.16 137.242 19.504C137.506 19.168 137.838 18.908 138.238 18.724C138.646 18.54 139.09 18.448 139.57 18.448ZM143.887 18.544H145.759V25H143.887V18.544ZM144.823 17.644C144.479 17.644 144.199 17.544 143.983 17.344C143.767 17.144 143.659 16.896 143.659 16.6C143.659 16.304 143.767 16.056 143.983 15.856C144.199 15.656 144.479 15.556 144.823 15.556C145.167 15.556 145.447 15.652 145.663 15.844C145.879 16.036 145.987 16.276 145.987 16.564C145.987 16.876 145.879 17.136 145.663 17.344C145.447 17.544 145.167 17.644 144.823 17.644ZM151.421 18.448C152.221 18.448 152.865 18.688 153.353 19.168C153.849 19.648 154.097 20.36 154.097 21.304V25H152.225V21.592C152.225 21.08 152.113 20.7 151.889 20.452C151.665 20.196 151.341 20.068 150.917 20.068C150.445 20.068 150.069 20.216 149.789 20.512C149.509 20.8 149.369 21.232 149.369 21.808V25H147.497V18.544H149.285V19.3C149.533 19.028 149.841 18.82 150.209 18.676C150.577 18.524 150.981 18.448 151.421 18.448Z" fill="#304D95"/>
</svg>
