<svg width="46" height="28" viewBox="0 0 46 28" fill="none" xmlns="http://www.w3.org/2000/svg">
<path d="M18.774 9.2V19H17.78V11.16L13.93 17.754H13.44L9.59 11.202V19H8.596V9.2H9.45L13.706 16.466L17.92 9.2H18.774ZM25.3331 11.58C26.2944 11.58 27.0318 11.8227 27.5451 12.308C28.0584 12.784 28.3151 13.4933 28.3151 14.436V19H27.3631V17.852C27.1391 18.2347 26.8078 18.5333 26.3691 18.748C25.9398 18.9627 25.4264 19.07 24.8291 19.07C24.0078 19.07 23.3544 18.874 22.8691 18.482C22.3838 18.09 22.1411 17.572 22.1411 16.928C22.1411 16.3027 22.3651 15.7987 22.8131 15.416C23.2704 15.0333 23.9938 14.842 24.9831 14.842H27.3211V14.394C27.3211 13.7593 27.1438 13.2787 26.7891 12.952C26.4344 12.616 25.9164 12.448 25.2351 12.448C24.7684 12.448 24.3204 12.5273 23.8911 12.686C23.4618 12.8353 23.0931 13.0453 22.7851 13.316L22.3371 12.574C22.7104 12.2567 23.1584 12.014 23.6811 11.846C24.2038 11.6687 24.7544 11.58 25.3331 11.58ZM24.9831 18.286C25.5431 18.286 26.0238 18.16 26.4251 17.908C26.8264 17.6467 27.1251 17.2733 27.3211 16.788V15.584H25.0111C23.7511 15.584 23.1211 16.0227 23.1211 16.9C23.1211 17.3293 23.2844 17.67 23.6111 17.922C23.9378 18.1647 24.3951 18.286 24.9831 18.286ZM36.7049 19L34.3669 15.92L32.0149 19H30.8949L33.8069 15.22L31.0349 11.636H32.1549L34.3669 14.52L36.5789 11.636H37.6709L34.8989 15.22L37.8389 19H36.7049Z" fill="#333333"/>
<rect x="0.5" y="0.5" width="45" height="27" rx="13.5" stroke="#333333"/>
</svg>
