<svg width="24" height="24" viewBox="0 0 24 24" fill="none" xmlns="http://www.w3.org/2000/svg">
<path d="M8.25 15C10.9424 15 13.125 12.8174 13.125 10.125C13.125 7.43261 10.9424 5.25 8.25 5.25C5.55761 5.25 3.375 7.43261 3.375 10.125C3.375 12.8174 5.55761 15 8.25 15Z" stroke="#304D95" stroke-width="2" stroke-miterlimit="10"/>
<path d="M14.5698 5.43158C15.2403 5.24266 15.9436 5.19962 16.6321 5.30537C17.3207 5.41111 17.9786 5.66318 18.5615 6.04459C19.1444 6.42601 19.6389 6.92791 20.0115 7.5165C20.3841 8.10509 20.6263 8.7667 20.7217 9.45676C20.8171 10.1468 20.7635 10.8493 20.5645 11.5169C20.3655 12.1845 20.0258 12.8018 19.5682 13.327C19.1107 13.8523 18.5458 14.2734 17.9118 14.562C17.2777 14.8505 16.5892 14.9999 15.8926 15" stroke="#304D95" stroke-width="2" stroke-linecap="round" stroke-linejoin="round"/>
<path d="M1.49976 18.5059C2.26113 17.4229 3.2719 16.539 4.44674 15.9288C5.62158 15.3186 6.92598 15.0001 8.24983 15C9.57369 14.9999 10.8781 15.3184 12.053 15.9285C13.2279 16.5386 14.2387 17.4225 15.0002 18.5054" stroke="#304D95" stroke-width="2" stroke-linecap="round" stroke-linejoin="round"/>
<path d="M15.8926 15C17.2166 14.999 18.5213 15.3171 19.6962 15.9273C20.8712 16.5375 21.8819 17.4218 22.6426 18.5054" stroke="#304D95" stroke-width="2" stroke-linecap="round" stroke-linejoin="round"/>
</svg>
