<svg width="24" height="24" viewBox="0 0 24 24" fill="none" xmlns="http://www.w3.org/2000/svg">
<path d="M22.5673 11.4173L20.25 12.576L17.25 6.83078L19.5909 5.66034C19.7667 5.57241 19.9701 5.55706 20.1572 5.61759C20.3443 5.67813 20.5001 5.80971 20.5911 5.98401L22.8967 10.3994C22.9428 10.4876 22.9708 10.5842 22.9792 10.6835C22.9876 10.7827 22.9761 10.8826 22.9454 10.9774C22.9148 11.0722 22.8655 11.1599 22.8006 11.2354C22.7357 11.3109 22.6564 11.3728 22.5673 11.4173V11.4173Z" stroke="#304D95" stroke-width="2" stroke-linecap="round" stroke-linejoin="round"/>
<path d="M3.74994 12.4755L1.43266 11.3168C1.34357 11.2723 1.26425 11.2105 1.19932 11.1349C1.13439 11.0594 1.08516 10.9717 1.0545 10.8769C1.02383 10.7822 1.01235 10.6822 1.02072 10.583C1.02909 10.4837 1.05714 10.3872 1.10325 10.2989L3.40883 5.88353C3.49985 5.70923 3.65567 5.57764 3.84275 5.51711C4.02982 5.45657 4.23319 5.47192 4.40906 5.55985L6.74994 6.73029L3.74994 12.4755Z" stroke="#304D95" stroke-width="2" stroke-linecap="round" stroke-linejoin="round"/>
<path d="M20.25 12.576L18.75 14.3308L15.3003 17.7805C15.2087 17.8721 15.095 17.9384 14.9701 17.973C14.8453 18.0075 14.7137 18.0092 14.588 17.9778L9.15458 16.6194C9.05266 16.5939 8.95724 16.5473 8.87448 16.4826L3.75 12.4755" stroke="#304D95" stroke-width="2" stroke-linecap="round" stroke-linejoin="round"/>
<path d="M18.75 14.3308L14.625 11.3308L13.425 12.2308C12.9058 12.6202 12.2742 12.8308 11.625 12.8308C10.9759 12.8308 10.3443 12.6202 9.82504 12.2308L9.31685 11.8496C9.23088 11.7852 9.15978 11.703 9.10834 11.6086C9.05691 11.5143 9.02635 11.41 9.01873 11.3028C9.01112 11.1956 9.02662 11.088 9.06419 10.9874C9.10177 10.8867 9.16053 10.7953 9.23652 10.7193L12.9054 7.05045C12.975 6.98081 13.0577 6.92556 13.1487 6.88787C13.2397 6.85018 13.3372 6.83078 13.4357 6.83078H17.25" stroke="#304D95" stroke-width="2" stroke-linecap="round" stroke-linejoin="round"/>
<path d="M6.80396 6.73029L11.6152 5.32765C11.7871 5.27755 11.9712 5.29057 12.1343 5.36437L15.3751 6.83077" stroke="#304D95" stroke-width="2" stroke-linecap="round" stroke-linejoin="round"/>
<path d="M10.5 19.9558L7.67443 19.2494C7.55977 19.2207 7.4535 19.1654 7.3643 19.0878L5.25 17.25" stroke="#304D95" stroke-width="2" stroke-linecap="round" stroke-linejoin="round"/>
</svg>
