<svg width="40" height="41" viewBox="0 0 40 41" fill="none" xmlns="http://www.w3.org/2000/svg">
<path d="M20 21.75C22.7614 21.75 25 19.5114 25 16.75C25 13.9886 22.7614 11.75 20 11.75C17.2386 11.75 15 13.9886 15 16.75C15 19.5114 17.2386 21.75 20 21.75Z" stroke="#333333" stroke-width="2" stroke-linecap="round" stroke-linejoin="round"/>
<path d="M32.5 16.75C32.5 28 20 36.75 20 36.75C20 36.75 7.5 28 7.5 16.75C7.5 13.4348 8.81696 10.2554 11.1612 7.91117C13.5054 5.56696 16.6848 4.25 20 4.25C23.3152 4.25 26.4946 5.56696 28.8388 7.91117C31.183 10.2554 32.5 13.4348 32.5 16.75V16.75Z" stroke="#333333" stroke-width="2" stroke-linecap="round" stroke-linejoin="round"/>
</svg>
