<svg width="20" height="20" viewBox="0 0 20 20" fill="none" xmlns="http://www.w3.org/2000/svg">
<path d="M16.875 3.75H3.125C2.77982 3.75 2.5 4.02982 2.5 4.375V15.625C2.5 15.9702 2.77982 16.25 3.125 16.25H16.875C17.2202 16.25 17.5 15.9702 17.5 15.625V4.375C17.5 4.02982 17.2202 3.75 16.875 3.75Z" stroke="#304D95" stroke-width="1.5" stroke-linecap="round" stroke-linejoin="round"/>
<path d="M2.5 13.1249L6.43305 9.19185C6.49108 9.13381 6.55998 9.08777 6.63581 9.05636C6.71164 9.02496 6.79291 9.00879 6.87499 9.00879C6.95706 9.00879 7.03834 9.02496 7.11417 9.05636C7.18999 9.08777 7.25889 9.13381 7.31693 9.19185L10.808 12.683C10.8661 12.741 10.935 12.787 11.0108 12.8184C11.0866 12.8499 11.1679 12.866 11.25 12.866C11.3321 12.866 11.4133 12.8499 11.4892 12.8184C11.565 12.787 11.6339 12.741 11.6919 12.683L13.308 11.0668C13.3661 11.0088 13.435 10.9628 13.5108 10.9314C13.5866 10.9 13.6679 10.8838 13.75 10.8838C13.8321 10.8838 13.9133 10.9 13.9892 10.9314C14.065 10.9628 14.1339 11.0088 14.1919 11.0668L17.5 14.3749" stroke="#304D95" stroke-width="1.5" stroke-linecap="round" stroke-linejoin="round"/>
<path d="M12.375 7.8125C12.375 7.91605 12.2911 8 12.1875 8C12.0839 8 12 7.91605 12 7.8125C12 7.70895 12.0839 7.625 12.1875 7.625C12.2911 7.625 12.375 7.70895 12.375 7.8125Z" fill="#304D95" stroke="#304D95" stroke-width="1.5"/>
</svg>
