<svg width="24" height="25" viewBox="0 0 24 25" fill="none" xmlns="http://www.w3.org/2000/svg">
<path d="M9 10.9141H16.5" stroke="#304D95" stroke-width="2" stroke-linecap="round" stroke-linejoin="round"/>
<path d="M9 13.9141H16.5" stroke="#304D95" stroke-width="2" stroke-linecap="round" stroke-linejoin="round"/>
<path d="M3 19.1641C3.39782 19.1641 3.77936 19.006 4.06066 18.7247C4.34196 18.4434 4.5 18.0619 4.5 17.6641V6.41406C4.5 6.21515 4.57902 6.02438 4.71967 5.88373C4.86032 5.74308 5.05109 5.66406 5.25 5.66406H20.25C20.4489 5.66406 20.6397 5.74308 20.7803 5.88373C20.921 6.02438 21 6.21515 21 6.41406V17.6641C21 18.0619 20.842 18.4434 20.5607 18.7247C20.2794 19.006 19.8978 19.1641 19.5 19.1641H3Z" stroke="#304D95" stroke-width="2" stroke-linecap="round" stroke-linejoin="round"/>
<path d="M3 19.1641C2.60218 19.1641 2.22064 19.006 1.93934 18.7247C1.65804 18.4434 1.5 18.0619 1.5 17.6641V8.66406" stroke="#304D95" stroke-width="2" stroke-linecap="round" stroke-linejoin="round"/>
</svg>
