<svg width="237" height="282" viewBox="0 0 237 282" fill="none" xmlns="http://www.w3.org/2000/svg">
<g clip-path="url(#clip0_8588_80367)">
<path d="M92.372 147.58V153.992C92.4158 154.511 92.3527 155.034 92.1865 155.527C92.0204 156.021 91.7547 156.475 91.406 156.862C90.6057 157.542 89.5694 157.879 88.522 157.8C87.8437 157.803 87.1688 157.704 86.52 157.506C85.952 157.355 85.4255 157.077 84.98 156.694L85.624 155.658C85.9984 155.973 86.4314 156.211 86.898 156.358C87.4068 156.534 87.9415 156.624 88.48 156.624C88.8246 156.653 89.1715 156.614 89.5007 156.508C89.8299 156.402 90.1349 156.232 90.398 156.008C90.6243 155.754 90.7968 155.457 90.9051 155.135C91.0134 154.812 91.0552 154.471 91.028 154.132V153.544C90.713 153.925 90.3091 154.223 89.852 154.412C89.3758 154.602 88.8669 154.698 88.354 154.692C87.6833 154.701 87.0203 154.547 86.422 154.244C85.8667 153.949 85.4022 153.509 85.078 152.97C84.7465 152.401 84.5771 151.752 84.588 151.094C84.5757 150.44 84.7454 149.795 85.078 149.232C85.3967 148.689 85.8627 148.247 86.422 147.958C87.0203 147.655 87.6833 147.501 88.354 147.51C88.8877 147.505 89.4167 147.61 89.908 147.818C90.3778 148.011 90.7883 148.325 91.098 148.728V147.58H92.372ZM88.508 153.516C88.9609 153.524 89.4085 153.418 89.81 153.208C90.1884 153.016 90.5041 152.719 90.72 152.354C90.9462 151.973 91.0625 151.537 91.056 151.094C91.0691 150.77 91.012 150.448 90.8888 150.148C90.7656 149.848 90.5791 149.579 90.342 149.358C89.8268 148.924 89.1747 148.686 88.501 148.686C87.8273 148.686 87.1753 148.924 86.66 149.358C86.423 149.579 86.2365 149.848 86.1132 150.148C85.99 150.448 85.933 150.77 85.946 151.094C85.9394 151.535 86.0505 151.97 86.268 152.354C86.489 152.715 86.8034 153.01 87.178 153.208C87.5895 153.418 88.0462 153.524 88.508 153.516ZM97.228 148.826C97.4605 148.398 97.8234 148.054 98.264 147.846C98.7864 147.608 99.3563 147.493 99.93 147.51V148.812C99.8277 148.801 99.7249 148.797 99.622 148.798C99.3049 148.781 98.9878 148.831 98.6912 148.944C98.3946 149.058 98.1251 149.232 97.9 149.456C97.46 149.967 97.2387 150.631 97.284 151.304V155H95.94V147.58H97.228V148.826ZM105.275 147.51C106.127 147.451 106.969 147.722 107.627 148.266C107.917 148.561 108.141 148.915 108.284 149.304C108.426 149.692 108.484 150.107 108.453 150.52V155H107.179V154.02C106.943 154.375 106.607 154.653 106.213 154.818C105.746 155.006 105.246 155.096 104.743 155.084C104.026 155.119 103.319 154.907 102.741 154.482C102.511 154.29 102.326 154.05 102.198 153.779C102.069 153.508 102.002 153.213 101.999 152.913C101.996 152.614 102.059 152.317 102.182 152.044C102.305 151.771 102.487 151.528 102.713 151.332C103.377 150.876 104.178 150.663 104.981 150.73H107.109V150.464C107.125 150.219 107.089 149.974 107.002 149.744C106.915 149.515 106.779 149.307 106.605 149.134C106.186 148.798 105.656 148.633 105.121 148.672C104.682 148.672 104.246 148.748 103.833 148.896C103.445 149.018 103.084 149.213 102.769 149.47L102.209 148.462C102.616 148.141 103.082 147.904 103.581 147.762C104.129 147.591 104.701 147.506 105.275 147.51ZM104.967 154.048C105.433 154.06 105.893 153.944 106.297 153.712C106.667 153.482 106.952 153.138 107.109 152.732V151.696H105.037C103.898 151.696 103.329 152.079 103.329 152.844C103.323 153.015 103.359 153.186 103.435 153.34C103.511 153.494 103.623 153.626 103.763 153.726C104.119 153.96 104.542 154.073 104.967 154.048ZM115.874 147.51C116.548 147.499 117.214 147.663 117.806 147.986C118.366 148.294 118.828 148.756 119.136 149.316C119.472 149.919 119.641 150.6 119.626 151.29C119.639 151.984 119.47 152.67 119.136 153.278C118.828 153.838 118.366 154.3 117.806 154.608C117.214 154.931 116.548 155.095 115.874 155.084C115.367 155.089 114.866 154.984 114.404 154.776C113.965 154.571 113.581 154.263 113.284 153.88V157.716H111.94V147.58H113.228V148.756C113.517 148.353 113.909 148.034 114.362 147.832C114.836 147.614 115.352 147.504 115.874 147.51ZM115.762 153.908C116.208 153.916 116.648 153.805 117.036 153.586C117.414 153.367 117.724 153.047 117.932 152.662C118.161 152.241 118.277 151.769 118.268 151.29C118.278 150.816 118.162 150.347 117.932 149.932C117.729 149.543 117.418 149.222 117.036 149.008C116.648 148.789 116.208 148.678 115.762 148.686C115.315 148.681 114.875 148.797 114.488 149.022C114.113 149.239 113.803 149.553 113.592 149.932C113.371 150.35 113.26 150.817 113.27 151.29C113.261 151.767 113.372 152.239 113.592 152.662C113.8 153.047 114.11 153.367 114.488 153.586C114.877 153.803 115.317 153.914 115.762 153.908ZM126.445 147.51C126.855 147.489 127.265 147.551 127.65 147.693C128.035 147.835 128.387 148.054 128.685 148.336C128.982 148.656 129.21 149.034 129.354 149.446C129.499 149.857 129.557 150.295 129.525 150.73V155H128.181V150.884C128.225 150.296 128.039 149.714 127.663 149.26C127.468 149.07 127.235 148.924 126.979 148.83C126.723 148.736 126.451 148.696 126.179 148.714C125.863 148.697 125.547 148.746 125.251 148.856C124.955 148.967 124.684 149.138 124.457 149.358C124.235 149.604 124.065 149.891 123.957 150.204C123.849 150.517 123.804 150.848 123.827 151.178V155H122.483V144.612H123.827V148.63C124.116 148.268 124.492 147.984 124.919 147.804C125.402 147.603 125.922 147.503 126.445 147.51ZM133.012 147.58H134.356V155H133.012V147.58ZM133.684 146.152C133.44 146.158 133.203 146.068 133.026 145.9C132.865 145.736 132.774 145.514 132.774 145.284C132.774 145.054 132.865 144.832 133.026 144.668C133.112 144.581 133.214 144.513 133.328 144.467C133.441 144.421 133.562 144.399 133.684 144.402C133.803 144.398 133.921 144.418 134.032 144.461C134.143 144.505 134.244 144.57 134.328 144.654C134.414 144.728 134.483 144.821 134.529 144.925C134.575 145.029 134.597 145.142 134.594 145.256C134.596 145.375 134.573 145.494 134.528 145.604C134.482 145.714 134.415 145.814 134.33 145.898C134.245 145.982 134.144 146.047 134.033 146.091C133.922 146.135 133.803 146.155 133.684 146.152ZM141.156 155.084C140.449 155.096 139.75 154.927 139.126 154.594C138.551 154.28 138.072 153.815 137.74 153.25C137.399 152.654 137.225 151.977 137.236 151.29C137.224 150.608 137.398 149.935 137.74 149.344C138.066 148.774 138.547 148.309 139.126 148C139.75 147.667 140.449 147.498 141.156 147.51C141.777 147.498 142.392 147.637 142.948 147.916C143.468 148.175 143.897 148.585 144.18 149.092L143.158 149.75C142.944 149.412 142.645 149.137 142.29 148.952C141.934 148.772 141.541 148.681 141.142 148.686C140.683 148.679 140.23 148.79 139.826 149.008C139.442 149.225 139.127 149.545 138.916 149.932C138.695 150.35 138.585 150.817 138.594 151.29C138.585 151.772 138.695 152.248 138.916 152.676C139.13 153.057 139.445 153.372 139.826 153.586C140.23 153.804 140.683 153.915 141.142 153.908C141.541 153.913 141.934 153.822 142.29 153.642C142.645 153.457 142.944 153.182 143.158 152.844L144.18 153.488C143.895 153.997 143.467 154.411 142.948 154.678C142.392 154.957 141.777 155.096 141.156 155.084ZM149.048 155.084C148.456 155.086 147.868 155.006 147.298 154.846C146.824 154.72 146.378 154.506 145.982 154.216L146.542 153.152C146.905 153.402 147.307 153.592 147.732 153.712C148.191 153.851 148.667 153.922 149.146 153.922C150.322 153.922 150.91 153.586 150.91 152.914C150.914 152.813 150.895 152.712 150.854 152.62C150.812 152.528 150.75 152.446 150.672 152.382C150.496 152.243 150.29 152.147 150.07 152.102C149.837 152.037 149.501 151.967 149.062 151.892C148.565 151.821 148.073 151.713 147.592 151.57C147.223 151.451 146.89 151.239 146.626 150.954C146.338 150.616 146.193 150.179 146.22 149.736C146.213 149.419 146.286 149.105 146.433 148.823C146.58 148.542 146.796 148.302 147.06 148.126C147.726 147.685 148.516 147.469 149.314 147.51C149.814 147.511 150.312 147.572 150.798 147.692C151.228 147.787 151.64 147.952 152.016 148.182L151.442 149.246C150.801 148.844 150.056 148.64 149.3 148.658C148.849 148.631 148.398 148.727 147.998 148.938C147.863 149.01 147.751 149.117 147.672 149.247C147.593 149.378 147.551 149.527 147.55 149.68C147.545 149.789 147.565 149.897 147.609 149.996C147.653 150.096 147.719 150.184 147.802 150.254C147.982 150.4 148.193 150.505 148.418 150.562C148.67 150.627 149.02 150.702 149.468 150.786C149.956 150.863 150.438 150.975 150.91 151.122C151.275 151.228 151.604 151.432 151.862 151.71C152.14 152.036 152.281 152.458 152.254 152.886C152.26 153.206 152.183 153.523 152.031 153.805C151.879 154.087 151.657 154.325 151.386 154.496C150.684 154.924 149.869 155.129 149.048 155.084Z" fill="white"/>
<path d="M163.128 98.1724C163.6 97.1354 164.036 96.1347 164.454 95.1705C171.919 77.832 180.475 50.5781 175.661 47.7581C171.048 44.9745 153.52 65.3694 144.819 89.0574C144.147 90.8586 143.511 92.7143 142.93 94.5883C149.306 98.9 156.789 99.1912 163.128 98.1724Z" fill="#387F44"/>
<path d="M141.35 100.119C137.463 115.22 136.845 129.847 140.369 131.339C144.183 132.867 152.557 119.55 159.132 106.523C153.808 107.509 148.427 108.159 143.021 108.47L141.35 100.119Z" fill="#387F44"/>
<path d="M142.912 94.57C142.331 96.4075 141.822 98.2633 141.332 100.119L143.003 108.452C148.409 108.14 153.79 107.49 159.114 106.505C160.549 103.649 161.911 100.81 163.11 98.1541C156.789 99.1912 149.306 98.9 142.912 94.57Z" fill="#266130"/>
<path d="M101.244 92.86C99.737 90.6222 98.1386 88.4207 96.4675 86.31C84.7337 71.3187 67.3511 58.8925 63.7547 62.1492C60.1401 65.5514 70.5847 84.7638 79.4847 98.0632C83.8801 99.264 90.9457 99.0275 101.244 92.86Z" fill="#387F44"/>
<path d="M102.352 107.415L104.478 97.9541C103.46 96.2441 102.371 94.5519 101.244 92.8599C90.9456 99.0275 83.8799 99.264 79.484 98.0632C80.3921 99.4278 81.3003 100.738 82.1722 101.975C82.8079 102.885 83.48 103.812 84.1702 104.74C94.0334 110.726 102.352 107.415 102.352 107.415Z" fill="#266130"/>
<path d="M121.606 91.4226C129.689 91.1497 131.85 86.292 132.377 82.7988C132.413 81.7072 132.45 80.5974 132.45 79.4876C132.431 79.3239 132.413 79.2329 132.413 79.2329L132.45 79.2511C132.528 73.1704 132.188 67.0916 131.432 61.0576C128.781 39.0976 119.299 15.8466 113.995 16.6107C108.056 17.5932 107.456 48.1037 108.855 66.643C109.291 72.6468 110.036 79.4694 111.035 86.183C113.469 89.0028 116.956 91.5863 121.606 91.4226Z" fill="#387F44"/>
<path d="M122.278 120.15C125.366 120.168 128.653 112.109 130.633 100.41L113.705 100.865C116.102 111.872 119.099 120.187 122.278 120.15Z" fill="#387F44"/>
<path d="M121.606 91.4226C116.938 91.5681 113.469 89.0026 111.053 86.1826C111.797 91.2768 112.687 96.2983 113.686 100.865L130.615 100.41C131.578 94.5774 132.161 88.6885 132.359 82.7804C131.868 86.31 129.689 91.1679 121.606 91.4226Z" fill="#266130"/>
<path d="M132.45 79.4876V79.2511L132.413 79.2329C132.43 79.317 132.443 79.402 132.45 79.4876Z" fill="#266130"/>
<path d="M200.981 200.766C200.573 200.692 200.209 200.464 199.964 200.129C199.725 199.792 199.627 199.375 199.692 198.967C199.756 198.559 199.978 198.193 200.309 197.946C200.475 197.825 200.663 197.739 200.863 197.692C201.063 197.645 201.27 197.638 201.472 197.673C203.367 198.051 205.213 198.643 206.975 199.438C203.143 176.841 196.549 153.372 185.324 134.378C181.857 130.684 177.777 127.618 173.264 125.317C171.189 124.245 168.985 123.444 166.706 122.934C166.297 122.865 165.932 122.636 165.69 122.299C165.449 121.962 165.351 121.543 165.417 121.133C165.448 120.929 165.521 120.733 165.63 120.558C165.74 120.383 165.883 120.232 166.053 120.114C166.219 119.994 166.407 119.908 166.607 119.861C166.806 119.814 167.013 119.807 167.215 119.841C167.524 119.895 172.646 120.787 179.203 125.135C165.689 106.923 146.69 94.6792 120.062 94.6792C83.2987 94.6792 60.703 118.003 46.8441 148.205C49.8072 147.278 52.8664 146.692 55.9623 146.458C56.1651 146.436 56.3701 146.461 56.5617 146.531C56.7569 146.587 56.9369 146.687 57.0885 146.822C57.254 146.952 57.385 147.12 57.4699 147.313C57.5624 147.501 57.6179 147.705 57.6334 147.914C57.6543 148.123 57.6294 148.334 57.5607 148.532C57.497 148.724 57.3985 148.903 57.2701 149.06C57.143 149.221 56.9817 149.351 56.7978 149.442C56.6158 149.532 56.4188 149.588 56.2166 149.606C52.4016 149.899 48.6533 150.77 45.1 152.189C30.0605 187.394 26.21 230.694 25.3924 257.311C27.4545 256.835 29.5491 256.513 31.6589 256.347C31.8617 256.325 32.0667 256.35 32.2583 256.42C32.4502 256.484 32.6287 256.583 32.785 256.711C32.946 256.838 33.0764 257 33.1665 257.184C33.2589 257.372 33.3144 257.575 33.3299 257.784C33.3508 257.993 33.3261 258.204 33.2573 258.403C33.1945 258.6 33.089 258.78 32.9485 258.931C32.8214 259.092 32.6601 259.222 32.4762 259.313C32.2943 259.403 32.0972 259.458 31.895 259.476C29.6707 259.656 27.4653 260.022 25.3016 260.568C24.9928 273.686 25.4106 281.982 25.4106 281.982L211.553 281.927C212.839 255.601 211.506 229.212 207.575 203.149C207.567 203.142 207.559 203.137 207.549 203.134C207.54 203.131 207.53 203.13 207.52 203.131C205.453 202.059 203.255 201.264 200.981 200.766Z" fill="#E77E25"/>
<path d="M57.6334 147.859C57.5962 147.445 57.4011 147.06 57.0885 146.786C56.9323 146.651 56.7503 146.549 56.5536 146.487C56.3569 146.424 56.1495 146.402 55.9441 146.422C52.8484 146.657 49.7894 147.242 46.826 148.168C46.2266 149.478 45.6272 150.806 45.0641 152.153C48.6171 150.734 52.3652 149.862 56.18 149.569C56.5942 149.532 56.9781 149.336 57.2516 149.023C57.3915 148.865 57.4977 148.681 57.5633 148.481C57.629 148.28 57.6529 148.069 57.6334 147.859Z" fill="#C85C28"/>
<path d="M165.417 121.114C165.383 121.317 165.389 121.524 165.436 121.724C165.482 121.924 165.568 122.113 165.689 122.279C165.807 122.448 165.958 122.592 166.132 122.702C166.307 122.811 166.502 122.884 166.706 122.916C168.986 123.423 171.19 124.224 173.264 125.299C177.777 127.6 181.857 130.665 185.324 134.359C183.443 131.166 181.394 128.075 179.185 125.099C172.628 120.751 167.506 119.859 167.197 119.805C166.998 119.774 166.794 119.78 166.597 119.823C166.4 119.87 166.215 119.956 166.053 120.077C165.887 120.201 165.745 120.356 165.635 120.532C165.525 120.71 165.451 120.908 165.417 121.114Z" fill="#C85C28"/>
<path d="M39.9056 282L195.587 281.964C195.587 281.964 206.176 125.317 119.063 125.317C31.9317 125.317 39.9056 282 39.9056 282Z" fill="#C85C28"/>
<path d="M46.9894 282L188.521 281.964C188.521 281.964 198.148 133.322 118.954 133.322C39.7421 133.322 46.9894 282 46.9894 282Z" fill="#892E00"/>
<path d="M201.49 197.655C201.082 197.589 200.664 197.688 200.327 197.928C200.162 198.048 200.022 198.2 199.916 198.375C199.811 198.55 199.74 198.744 199.71 198.946C199.677 199.149 199.683 199.356 199.73 199.556C199.777 199.755 199.862 199.944 199.982 200.111C200.1 200.28 200.251 200.424 200.425 200.534C200.6 200.643 200.795 200.716 200.999 200.748C203.279 201.255 205.483 202.056 207.556 203.131C207.575 203.131 207.593 203.149 207.611 203.149C207.411 201.894 207.211 200.657 206.993 199.401C205.225 198.629 203.38 198.043 201.49 197.655Z" fill="#C85C28"/>
<path d="M33.33 257.803C33.3121 257.6 33.2567 257.403 33.1665 257.22C33.0762 257.036 32.9458 256.874 32.785 256.747C32.6244 256.62 32.4472 256.516 32.2583 256.438C32.0645 256.378 31.8615 256.353 31.6589 256.365C29.5493 256.533 27.4548 256.855 25.3924 257.33C25.3561 258.439 25.3198 259.531 25.3016 260.586C27.4637 260.032 29.6698 259.667 31.895 259.495C32.0972 259.477 32.2943 259.421 32.4763 259.331C32.6604 259.241 32.8218 259.11 32.9485 258.949C33.0763 258.792 33.1748 258.613 33.2391 258.421C33.3211 258.226 33.3524 258.013 33.33 257.803Z" fill="#C85C28"/>
<path d="M120.342 123.907C123.038 123.911 125.675 123.116 127.919 121.621C130.163 120.126 131.913 118 132.947 115.51C133.982 113.02 134.255 110.28 133.732 107.635C133.208 104.99 131.912 102.56 130.007 100.652C128.103 98.7442 125.675 97.4442 123.031 96.9166C120.387 96.389 117.646 96.6576 115.154 97.6883C112.663 98.719 110.534 100.466 109.035 102.707C107.537 104.948 106.737 107.584 106.737 110.28C106.736 112.068 107.086 113.839 107.769 115.491C108.452 117.144 109.454 118.646 110.717 119.911C111.981 121.177 113.481 122.181 115.132 122.866C116.784 123.552 118.554 123.905 120.342 123.907Z" fill="#83381B"/>
<path d="M120.56 122.961C123.108 122.965 125.601 122.213 127.722 120.8C129.843 119.387 131.497 117.377 132.475 115.024C133.454 112.67 133.712 110.08 133.217 107.58C132.722 105.08 131.497 102.783 129.697 100.979C127.896 99.1755 125.601 97.9467 123.102 97.448C120.602 96.9492 118.011 97.2031 115.656 98.1774C113.301 99.1518 111.289 100.803 109.872 102.921C108.456 105.04 107.7 107.531 107.7 110.08C107.697 113.493 109.051 116.768 111.462 119.184C113.874 121.599 117.147 122.958 120.56 122.961Z" fill="#C85C28"/>
<path d="M121.759 98.9819V108.879H131.64C131.371 106.349 130.243 103.987 128.446 102.187C126.648 100.386 124.289 99.2554 121.759 98.9819Z" fill="#99D9EC"/>
<path d="M131.64 111.281H121.759V121.178C124.286 120.898 126.643 119.765 128.439 117.966C130.236 116.167 131.365 113.809 131.64 111.281Z" fill="#99D9EC"/>
<path d="M119.361 121.178V111.281H109.48C109.749 113.811 110.876 116.173 112.674 117.973C114.472 119.774 116.831 120.905 119.361 121.178Z" fill="#99D9EC"/>
<path d="M109.48 108.879H119.361V98.9819C116.829 99.2492 114.466 100.378 112.667 102.18C110.868 103.982 109.743 106.347 109.48 108.879Z" fill="#99D9EC"/>
<path d="M124.12 111.281L121.759 116.739V121.178C121.995 121.16 122.231 121.105 122.467 121.069L125.973 111.281H124.12Z" fill="#CDEBF2"/>
<path d="M123.702 99.364L121.759 100.601V108.879H123.139L127.444 101.311C126.336 100.423 125.065 99.7613 123.702 99.364Z" fill="#CDEBF2"/>
<path d="M119.361 115.52V111.281H109.48C109.703 113.312 110.477 115.244 111.719 116.867C112.961 118.49 114.624 119.742 116.527 120.487L119.361 115.52Z" fill="#CDEBF2"/>
<path d="M128.152 101.911L125.155 108.861H126.826L129.006 102.784C128.733 102.475 128.443 102.184 128.152 101.911Z" fill="#CDEBF2"/>
<path d="M109.48 108.879H119.361V102.13L109.552 108.352C109.519 108.526 109.495 108.702 109.48 108.879Z" fill="#CDEBF2"/>
<path d="M121.758 98.9818C124.285 99.2612 126.642 100.394 128.438 102.194C130.235 103.993 131.364 106.351 131.64 108.879H121.758V98.9818ZM121.468 98.6362V109.17H131.985L131.948 108.843C131.659 106.248 130.497 103.828 128.652 101.98C126.808 100.132 124.39 98.9662 121.795 98.673L121.468 98.6362Z" fill="#83381B"/>
<path d="M131.64 111.281C131.364 113.809 130.235 116.167 128.438 117.966C126.642 119.765 124.285 120.898 121.758 121.178V111.281H131.64ZM131.985 110.99H121.468V121.524L121.795 121.487C124.39 121.194 126.808 120.028 128.652 118.18C130.497 116.332 131.659 113.912 131.948 111.317L131.985 110.99Z" fill="#83381B"/>
<path d="M119.361 111.281V121.178C116.834 120.898 114.477 119.766 112.681 117.966C110.884 116.167 109.755 113.809 109.48 111.281H119.361ZM119.652 110.99H109.135L109.171 111.317C109.46 113.912 110.622 116.332 112.467 118.18C114.312 120.028 116.73 121.194 119.325 121.487L119.652 121.524V110.99V110.99Z" fill="#83381B"/>
<path d="M119.361 98.9818V108.879H109.48C109.743 106.347 110.868 103.982 112.667 102.18C114.466 100.378 116.829 99.2491 119.361 98.9818ZM119.652 98.6362L119.325 98.6725C116.73 98.9656 114.312 100.132 112.467 101.98C110.622 103.827 109.46 106.247 109.171 108.842L109.135 109.17H119.652V98.6362Z" fill="#83381B"/>
<path d="M173.022 214.031C173.022 214.031 182.028 220.715 183.652 232.237L181.157 233.674L173.022 214.031Z" fill="#E5E5E5"/>
<path d="M145.686 211.502C142.477 211.445 139.315 212.276 136.55 213.904L157.038 211.848L145.686 211.502Z" fill="white"/>
<path d="M173.022 214.031C170.08 216.796 160.871 222.018 152.806 222.291C140.364 222.709 135.533 218.197 133.807 215.759C113.028 232.461 112.072 282.957 112.072 282.957L190.754 282.934C183.815 233.648 180.488 221.399 173.022 214.031Z" fill="white"/>
<path d="M152.806 222.345C160.871 222.073 167.101 219.707 173.022 214.031C165.194 209.647 160.271 211.975 160.271 211.975L157.111 211.884L136.622 213.958C135.629 214.468 134.686 215.071 133.807 215.759C135.514 218.124 140.382 222.764 152.806 222.345Z" fill="#E5E5E5"/>
<path d="M135.896 171.567C118.186 148.152 110.557 127.63 117.405 119.752C120.148 116.568 124.997 115.768 128.576 116.368C139.801 118.333 148.792 136.181 149.3 161.434" fill="white"/>
<path d="M136.877 164.29C125.651 149.735 120.983 135.945 125.507 129.795C125.652 129.559 127.886 126.702 130.865 126.884C140.183 127.503 144.706 157.577 145.123 160.669" fill="#E79EA3"/>
<path d="M152.715 161.506C152.861 156.958 154.532 116.914 167.845 114.385C173.24 113.348 178.98 118.788 181.595 123.264C188.352 134.908 182.104 154.611 164.176 170.894" fill="white"/>
<path d="M164.867 164.527C176.691 152.082 181.178 137.873 176.237 128.958C175.764 128.067 172.967 123.045 169.48 123.282C162.814 123.755 158.727 143.131 156.202 160.979" fill="#E79EA3"/>
<path d="M123.417 187.287C122.818 172.222 135.896 159.687 151.407 160.015C166.683 160.342 179.071 172.968 178.199 187.76" fill="white"/>
<path d="M161.616 215.632C159.472 216.524 148.719 220.617 137.386 215.214C135.842 214.468 122.709 207.991 121.874 195.929C121.57 192.239 122.434 188.548 124.344 185.376C133.426 170.913 168.59 171.022 177.037 185.522C179.979 190.598 178.998 196.22 178.798 197.439C177.636 204.425 172.55 208.755 170.461 210.538C167.77 212.648 164.791 214.363 161.616 215.632Z" fill="white"/>
<path d="M146.994 185.085C148.011 183.721 150.209 184.048 150.863 184.139C151.28 184.194 153.478 184.521 153.987 185.831C154.55 187.323 152.588 189.634 150.354 189.779C149.312 189.808 148.298 189.437 147.521 188.742C147.02 188.29 146.694 187.676 146.598 187.009C146.502 186.341 146.642 185.661 146.994 185.085Z" fill="#333333"/>
<path d="M148.52 185.267C149.083 185.267 150.663 185.322 150.718 185.54C150.772 185.831 149.047 186.195 148.52 186.34V185.267Z" fill="#F1F2F2" stroke="#F1F2F2" stroke-width="0.0727" stroke-linecap="round" stroke-linejoin="round"/>
<path d="M166.374 183.157C166.52 181.137 165.448 179.445 163.995 179.3C162.542 179.209 161.198 180.701 161.053 182.72C160.907 184.739 161.979 186.431 163.432 186.577C164.921 186.723 166.229 185.176 166.374 183.157Z" fill="#333333"/>
<path d="M166.647 185.868C166.829 183.43 165.575 181.356 163.85 181.228C162.124 181.101 160.58 182.957 160.399 185.413C160.217 187.851 161.47 189.925 163.196 190.052C164.921 190.198 166.465 188.324 166.647 185.868Z" fill="white"/>
<path d="M135.242 183.157C135.097 181.137 136.168 179.445 137.621 179.3C139.056 179.209 140.419 180.701 140.564 182.72C140.709 184.739 139.637 186.431 138.184 186.577C136.695 186.723 135.387 185.176 135.242 183.157Z" fill="#333333"/>
<path d="M135.024 185.868C134.842 183.43 136.096 181.356 137.821 181.228C139.547 181.101 141.091 182.957 141.272 185.413C141.454 187.851 140.201 189.925 138.475 190.052C136.731 190.198 135.151 188.324 135.024 185.868Z" fill="white"/>
<path d="M142.053 192.308C147.847 193.072 153.718 193.06 159.509 192.272C160.164 192.276 160.813 192.146 161.416 191.89C162.019 191.633 162.563 191.255 163.014 190.78C163.2 194.001 162.227 197.183 160.271 199.749C159.143 201.117 157.729 202.222 156.13 202.988C155.531 203.315 148.865 206.554 143.506 202.842C142.038 201.857 140.865 200.493 140.11 198.894C139.712 197.939 139.414 196.945 139.22 195.929C138.873 194.168 138.732 192.373 138.802 190.58C139.257 191.123 139.828 191.558 140.473 191.853C140.947 192.148 141.495 192.306 142.053 192.308Z" fill="#2D1A13"/>
<path d="M160.362 199.677C159.687 200.586 158.886 201.395 157.983 202.078C155.665 203.755 152.869 204.641 150.009 204.607C147.766 204.816 145.514 204.306 143.579 203.152C142.278 202.311 141.22 201.144 140.509 199.768C142.158 198.603 144.004 197.746 145.958 197.239C149.071 196.392 152.355 196.411 155.458 197.293C157.221 197.792 158.881 198.599 160.362 199.677Z" fill="#E16569"/>
<path d="M143.96 201.368C144.432 200.24 147.647 199.731 147.774 199.731C150.808 199.258 151.916 200.477 155.131 200.386C155.469 200.335 155.814 200.399 156.112 200.568C156.62 200.95 155.93 201.969 155.222 202.587C153.46 204.043 149.3 204.516 146.648 203.661C145.541 203.242 143.543 202.351 143.96 201.368Z" fill="#DA5A65"/>
<path opacity="0.44" d="M146.376 201.605C146.649 201.277 147.448 201.368 148.61 201.459C149.011 201.548 149.418 201.609 149.827 201.641C150.954 201.641 151.407 201.077 152.152 201.314C152.207 201.314 152.752 201.496 152.752 201.787C152.752 202.205 151.498 202.678 150.336 202.769C149.446 202.824 149.591 202.587 148.011 202.442C147.121 202.387 146.522 202.387 146.34 202.06C146.31 201.985 146.298 201.904 146.304 201.823C146.308 201.745 146.333 201.67 146.376 201.605Z" fill="#F1F2F2"/>
<path d="M152.715 192.963H151.408V196.474H152.715V192.963Z" fill="white" stroke="white" stroke-width="0.218" stroke-linecap="round" stroke-linejoin="round"/>
<path d="M150.118 192.963H148.81V196.474H150.118L150.118 192.963Z" fill="white" stroke="white" stroke-width="0.218" stroke-linecap="round" stroke-linejoin="round"/>
<path opacity="0.56" d="M118.767 201.605C117.518 201.387 116.239 201.387 114.989 201.605C113.723 201.835 112.509 202.298 111.411 202.969" stroke="#603A16" stroke-width="0.1064" stroke-miterlimit="10" stroke-linecap="round"/>
<path opacity="0.56" d="M114.899 203.606C114.365 203.548 113.825 203.611 113.319 203.788C112.746 203.971 112.212 204.255 111.739 204.625" stroke="#603A16" stroke-width="0.1064" stroke-miterlimit="10" stroke-linecap="round"/>
<path d="M170.432 227.282C168.063 223.084 168.881 216.276 173.022 214.031L199.462 201.635C200.446 201.109 201.524 200.785 202.635 200.68C203.76 200.58 204.893 200.7 205.972 201.033C207.068 201.369 208.09 201.913 208.981 202.634C209.872 203.361 210.62 204.249 211.185 205.252C211.743 206.248 212.107 207.341 212.256 208.473C212.398 209.593 212.321 210.729 212.03 211.819C211.741 212.891 211.239 213.893 210.551 214.765C209.864 215.636 209.008 216.36 208.033 216.89L183.433 232.375C179.312 234.536 172.822 231.46 170.432 227.282Z" fill="white"/>
<path d="M200.658 214.571C202.79 214.571 204.518 212.843 204.518 210.711C204.518 208.579 202.79 206.85 200.658 206.85C198.526 206.85 196.797 208.579 196.797 210.711C196.797 212.843 198.526 214.571 200.658 214.571Z" fill="#E79EA3"/>
<path d="M202.605 205.681C203.681 205.681 204.553 204.809 204.553 203.733C204.553 202.658 203.681 201.786 202.605 201.786C201.53 201.786 200.658 202.658 200.658 203.733C200.658 204.809 201.53 205.681 202.605 205.681Z" fill="#E79EA3"/>
<path d="M206.983 208.547C208.059 208.547 208.93 207.675 208.93 206.599C208.93 205.524 208.059 204.652 206.983 204.652C205.908 204.652 205.036 205.524 205.036 206.599C205.036 207.675 205.908 208.547 206.983 208.547Z" fill="#E79EA3"/>
<path d="M208.489 213.579C209.565 213.579 210.436 212.707 210.436 211.631C210.436 210.556 209.565 209.684 208.489 209.684C207.414 209.684 206.542 210.556 206.542 211.631C206.542 212.707 207.414 213.579 208.489 213.579Z" fill="#E79EA3"/>
<path d="M173.952 215.006C177.981 218.627 181.903 226.818 183.234 230.256L207.683 216.326C209.302 215.341 210.57 213.872 211.308 212.126C212.046 210.38 212.217 208.447 211.796 206.599C211.796 206.599 214.414 212.874 207.769 217.056C201.124 221.239 182.318 233.674 182.318 233.674C180.676 226.999 177.842 220.674 173.952 215.006Z" fill="#E5E5E5"/>
<path d="M116.808 230.066L98.368 207.596C97.6112 206.784 97.027 205.827 96.6509 204.783C96.2748 203.739 96.1146 202.629 96.18 201.521C96.2481 200.395 96.5344 199.293 97.0232 198.276C97.5232 197.249 98.2139 196.327 99.0584 195.558C99.9117 194.786 100.902 194.18 101.978 193.772C103.051 193.369 104.192 193.177 105.338 193.205C106.467 193.23 107.58 193.474 108.616 193.925C109.636 194.376 110.557 195.025 111.324 195.835L132.486 215.957C135.705 219.396 134.328 226.114 130.753 229.347C127.164 232.554 120.034 233.42 116.808 230.066Z" fill="white"/>
<path d="M107.319 207.927C109.451 207.927 111.179 206.198 111.179 204.066C111.179 201.934 109.451 200.206 107.319 200.206C105.186 200.206 103.458 201.934 103.458 204.066C103.458 206.198 105.186 207.927 107.319 207.927Z" fill="#E79EA3"/>
<path d="M107.678 198.779C108.753 198.779 109.625 197.907 109.625 196.831C109.625 195.756 108.753 194.884 107.678 194.884C106.602 194.884 105.73 195.756 105.73 196.831C105.73 197.907 106.602 198.779 107.678 198.779Z" fill="#E79EA3"/>
<path d="M102.618 200.113C103.694 200.113 104.566 199.241 104.566 198.165C104.566 197.09 103.694 196.218 102.618 196.218C101.543 196.218 100.671 197.09 100.671 198.165C100.671 199.241 101.543 200.113 102.618 200.113Z" fill="#E79EA3"/>
<path d="M99.5982 204.41C100.674 204.41 101.546 203.538 101.546 202.463C101.546 201.387 100.674 200.515 99.5982 200.515C98.5226 200.515 97.6508 201.387 97.6508 202.463C97.6508 203.538 98.5226 204.41 99.5982 204.41Z" fill="#E79EA3"/>
<path d="M130.162 219.241C126.282 221.887 123.06 225.386 120.743 229.471L98.8784 207.172C97.6539 205.725 96.9154 203.93 96.7672 202.041C96.619 200.151 97.0687 198.263 98.0527 196.643C98.0527 196.643 93.5843 201.768 98.5653 207.837C103.546 213.906 120.941 235.019 120.941 235.019C123.022 229.24 126.148 223.891 130.162 219.241Z" fill="#E5E5E5"/>
<path d="M74 293.16C74 293.16 79.5762 234.169 75.3986 222.456C71.2209 210.742 67.57 205.139 66.8616 207.183C66.1532 209.227 59.1965 218.126 59.5416 231.884C59.8867 245.642 60.2316 293.16 61.9755 293.16H74Z" fill="#6B3D0B"/>
<path d="M71.91 293.16C71.91 293.16 77.4862 234.169 73.3086 222.456C69.1309 210.742 65.48 205.139 64.7716 207.183C64.0632 209.227 57.1065 218.126 57.4516 231.884C57.7967 245.642 58.1416 293.16 59.8855 293.16H71.91Z" fill="#936833"/>
<path d="M69.621 265.803C69.5302 262.085 69.4394 258.339 69.403 254.621C69.2759 243.545 69.4938 230.849 71.873 218.658C72.1818 219.481 72.5087 220.331 72.8357 221.208C70.8557 232.548 70.6379 244.289 70.765 254.594C70.8013 258.312 70.8922 262.031 70.983 265.749C71.2009 274.754 71.383 284.022 70.9466 293.186H69.5847C70.0206 284.05 69.839 274.78 69.621 265.803Z" fill="#6D471C"/>
<path d="M60.8479 214.833C61.8469 223.147 61.7742 231.725 61.7016 240.039L61.6652 243.28C61.5381 259.907 62.0103 276.799 62.4644 293.134H61.1022C60.6481 276.773 60.194 259.907 60.303 243.253L60.3393 239.987C60.5358 232.509 60.3418 225.026 59.7581 217.569C60.1032 216.639 60.4846 215.71 60.8479 214.833Z" fill="#6D471C"/>
<path d="M64.8258 262.562C64.1174 247.025 63.3908 230.93 65.8792 215.497C66.2607 213.08 66.7329 210.903 67.2234 208.83C67.5321 209.335 67.8773 209.919 68.2405 210.583C67.8591 212.284 67.514 214.036 67.2052 215.948C64.7713 231.089 65.4978 247.025 66.188 262.43C66.6421 272.523 67.1144 282.934 66.7148 293.16H65.3525C65.7339 282.988 65.28 272.628 64.8258 262.562Z" fill="#6D471C"/>
<path d="M115.736 214.829L112.253 216.432L107.051 216.581L113.611 213.248L115.736 214.829Z" fill="#47190B"/>
<path d="M16.623 218.162L112.964 198.454L115.089 200.035L115.736 214.829L113.611 213.248L107.051 216.581L113.611 214.502L115.736 216.082L116.79 235.638L20.011 257.935L17.886 256.354L15.778 227.848L18.598 226.827L15.509 226.171L16.623 218.162Z" fill="#6B3D0B"/>
<path d="M14.498 216.581L112.964 198.454L113.611 213.248L107.051 216.581L113.611 214.502L114.665 234.058L17.886 256.354L15.704 226.847L20.413 225.213L15.509 226.171L14.498 216.581Z" fill="#936833"/>
<g opacity="0.28">
<path opacity="0.28" d="M47.2976 240.535C52.8024 239.397 58.3484 238.252 63.8688 237.2C80.3074 234.039 99.2534 230.996 118.07 231.54C116.934 232.253 115.764 233.002 114.552 233.758C97.1163 233.626 79.5907 236.413 64.2985 239.369C58.7785 240.42 53.2733 241.559 47.7685 242.697C34.4371 245.45 20.7024 248.216 6.94675 249.967L6.55615 247.791C20.2701 246.047 34.0075 243.281 47.2976 240.535Z" fill="#6D471C"/>
</g>
<path d="M34.6146 223.79C34.7873 224.744 33.7049 225.433 31.3674 225.855C30.8886 225.942 30.2666 226.04 29.5016 226.15C28.5198 226.269 27.9024 226.352 27.6494 226.398L27.9194 227.893L28.2241 229.577C28.3825 230.375 28.4923 230.942 28.5533 231.28L30.7433 230.884C33.3548 230.412 34.7432 230.634 34.9086 231.552C34.9398 231.721 34.9176 231.896 34.845 232.052C34.7724 232.208 34.6531 232.338 34.5035 232.423C34.2148 232.627 33.8828 232.761 33.5335 232.814C33.3235 232.852 33.0163 232.89 32.6114 232.926C32.2059 232.964 31.8984 233 31.6885 233.038C31.1847 233.129 30.2889 233.328 29.001 233.634C29.0977 234.33 29.2021 234.987 29.3143 235.605C29.3908 236.029 29.5122 236.661 29.6785 237.502C29.8459 238.344 29.9677 238.976 30.0437 239.399C30.1115 239.751 30.0713 240.115 29.9284 240.444C29.8678 240.599 29.7674 240.736 29.6372 240.84C29.5071 240.944 29.3518 241.012 29.187 241.036C28.5694 241.148 28.115 240.759 27.8238 239.869C27.6508 239.337 27.5093 238.796 27.4003 238.247C27.307 237.814 27.2066 237.259 27.0991 236.581C26.9833 235.701 26.9037 235.142 26.8603 234.904L26.723 234.145C26.3698 234.199 26.0088 234.13 25.7002 233.95C25.5503 233.869 25.421 233.754 25.3221 233.615C25.2232 233.476 25.1574 233.317 25.1297 233.149C25.0959 232.996 25.0995 232.837 25.1403 232.686C25.181 232.534 25.2577 232.395 25.3637 232.28C25.5868 232.034 25.8875 231.871 26.2157 231.82C26.1705 231.235 26.0942 230.654 25.9872 230.077L25.37 226.66C24.2222 226.884 23.5743 226.587 23.4263 225.771C23.3926 225.617 23.3985 225.458 23.4435 225.307C23.4885 225.156 23.5711 225.019 23.6835 224.909C23.9195 224.669 24.226 224.51 24.5583 224.457C25.345 224.314 26.5299 224.133 28.113 223.911C29.6962 223.69 30.8811 223.508 31.6678 223.365C31.864 223.33 32.1498 223.268 32.525 223.179C32.9006 223.088 33.1857 223.026 33.3828 222.99C33.6553 222.938 33.9372 222.992 34.1711 223.141C34.2881 223.21 34.3885 223.304 34.4651 223.416C34.5417 223.528 34.5928 223.656 34.6146 223.79Z" fill="#FFD5B8"/>
<path d="M48.133 236.132C48.164 236.283 48.1527 236.441 48.1004 236.586C48.0481 236.732 47.9567 236.86 47.8363 236.957C47.5795 237.185 47.2644 237.336 46.9263 237.394C46.617 237.45 46.1544 237.514 45.5373 237.591C44.9207 237.665 44.4579 237.73 44.1491 237.787C43.0047 237.997 41.8824 238.314 40.7968 238.733C40.3569 238.915 39.9043 239.065 39.4427 239.182C39.209 239.222 38.9684 239.177 38.766 239.053C38.5635 238.929 38.413 238.736 38.3427 238.51C38.1831 238.057 38.0624 237.591 37.9819 237.117C37.9285 236.822 37.7627 236.025 37.4845 234.724C37.2759 233.732 37.1159 232.926 37.0045 232.307L36.3945 228.934C36.1007 227.416 35.9028 225.881 35.802 224.338C35.7472 223.072 36.0424 222.38 36.6876 222.263C36.8742 222.244 37.0623 222.282 37.2265 222.373C37.3907 222.464 37.5231 222.603 37.6059 222.771C37.8114 223.093 37.9505 223.452 38.0148 223.828C38.0348 223.939 38.1532 224.795 38.37 226.393C38.5868 227.992 38.8678 229.746 39.213 231.656C39.553 233.538 39.9119 235.161 40.2897 236.528C41.6554 236.099 43.0437 235.747 44.4484 235.471C46.7494 235.055 47.9776 235.275 48.133 236.132Z" fill="#FFD5B8"/>
<path d="M57.3549 224.598C57.8666 226.944 58.0168 229.355 57.8003 231.747C57.3819 234.565 55.9724 236.192 53.572 236.626C52.6283 236.852 51.6445 236.851 50.7011 236.623C49.2853 236.168 48.141 234.771 47.2682 232.432C46.6538 230.612 46.1925 228.744 45.8891 226.847C45.5683 225.303 45.3861 223.732 45.3448 222.155C45.3582 221.268 45.6033 220.781 46.0802 220.693C46.2669 220.66 46.4592 220.681 46.6343 220.753C46.8094 220.826 46.9598 220.948 47.0676 221.104C47.3138 221.405 47.4767 221.765 47.54 222.149C47.6342 222.67 47.7381 223.465 47.8517 224.533C47.9653 225.602 48.07 226.403 48.166 226.936C49.1348 232.293 50.6551 234.784 52.7268 234.409C55.3582 233.933 56.1715 230.919 55.1669 225.366C55.0857 224.917 54.9414 224.238 54.7342 223.331C54.527 222.425 54.3826 221.747 54.301 221.298C54.2123 220.839 54.208 220.367 54.2882 219.906C54.4026 219.335 54.6633 219.012 55.0704 218.938C55.8844 218.791 56.5393 220.087 57.035 222.828L57.3549 224.598Z" fill="#FFD5B8"/>
<path d="M69.2113 217.532C69.3839 218.487 68.3014 219.175 65.9639 219.597C65.4851 219.684 64.8631 219.782 64.0981 219.892C63.1163 220.011 62.4989 220.094 62.2459 220.141L62.5159 221.635L62.8206 223.319C62.979 224.117 63.0888 224.685 63.1499 225.022L65.3399 224.626C67.9515 224.154 69.3399 224.376 69.5052 225.294C69.5366 225.463 69.5144 225.638 69.4418 225.794C69.3692 225.95 69.2498 226.08 69.1001 226.165C68.8114 226.369 68.4794 226.503 68.1301 226.557C67.9202 226.595 67.6128 226.632 67.208 226.668C66.8025 226.706 66.495 226.742 66.2851 226.78C65.7813 226.872 64.8855 227.07 63.5977 227.376C63.6943 228.072 63.7987 228.729 63.9109 229.348C63.9875 229.771 64.1089 230.403 64.2752 231.244C64.4416 232.085 64.5633 232.718 64.6404 233.141C64.7081 233.493 64.6679 233.857 64.525 234.186C64.4645 234.341 64.364 234.478 64.2338 234.582C64.1037 234.686 63.9484 234.754 63.7836 234.779C63.166 234.89 62.7116 234.501 62.4204 233.611C62.2474 233.079 62.106 232.538 61.9969 231.989C61.9036 231.557 61.8032 231.001 61.6957 230.323C61.5799 229.443 61.5004 228.884 61.457 228.646L61.3197 227.887C60.9665 227.941 60.6054 227.872 60.2968 227.692C60.1469 227.611 60.0176 227.496 59.9187 227.357C59.8198 227.219 59.754 227.059 59.7263 226.891C59.6925 226.738 59.6962 226.579 59.7369 226.428C59.7776 226.277 59.8543 226.137 59.9603 226.022C60.1834 225.776 60.4841 225.613 60.8123 225.562C60.7671 224.978 60.6909 224.396 60.5839 223.82L59.9658 220.403C58.818 220.626 58.1701 220.33 58.0221 219.514C57.9884 219.36 57.9944 219.2 58.0394 219.049C58.0844 218.899 58.167 218.762 58.2794 218.651C58.5154 218.411 58.8219 218.253 59.1541 218.199C59.9408 218.057 61.1257 217.875 62.7089 217.654C64.2921 217.432 65.477 217.25 66.2636 217.108C66.4598 217.073 66.7456 217.01 67.1208 216.921C67.4964 216.83 67.7815 216.768 67.9786 216.732C68.2511 216.681 68.533 216.735 68.7669 216.884C68.884 216.953 68.9844 217.046 69.0612 217.159C69.138 217.271 69.1892 217.398 69.2113 217.532Z" fill="#FFD5B8"/>
<path d="M81.1927 215.365C81.3653 216.32 80.2829 217.008 77.9455 217.43C77.4665 217.517 76.8446 217.615 76.0797 217.725C75.0978 217.844 74.4805 217.927 74.2275 217.973L74.4975 219.468L74.8021 221.152C74.9606 221.95 75.0704 222.518 75.1314 222.855L77.3214 222.459C79.9329 221.987 81.3213 222.209 81.4867 223.127C81.518 223.296 81.4958 223.471 81.4232 223.627C81.3506 223.783 81.2312 223.913 81.0815 223.998C80.7928 224.202 80.4608 224.336 80.1115 224.389C79.9015 224.427 79.5943 224.465 79.1894 224.501C78.7839 224.539 78.4763 224.575 78.2664 224.613C77.7626 224.704 76.8668 224.903 75.579 225.209C75.6756 225.905 75.78 226.562 75.8922 227.18C75.9688 227.604 76.0903 228.236 76.2565 229.077C76.4239 229.919 76.5456 230.552 76.6217 230.974C76.6895 231.326 76.6493 231.69 76.5064 232.019C76.4458 232.174 76.3454 232.311 76.2152 232.415C76.085 232.519 75.9298 232.587 75.765 232.612C75.1472 232.723 74.6928 232.334 74.4018 231.444C74.2287 230.912 74.0873 230.371 73.9783 229.822C73.885 229.389 73.7846 228.834 73.677 228.156C73.5612 227.276 73.4817 226.717 73.4383 226.479L73.301 225.72C72.9478 225.774 72.5867 225.705 72.2782 225.525C72.1283 225.444 71.999 225.329 71.9001 225.19C71.8012 225.052 71.7354 224.892 71.7077 224.724C71.6739 224.571 71.6774 224.412 71.7182 224.261C71.7589 224.109 71.8355 223.97 71.9416 223.855C72.1647 223.609 72.4654 223.446 72.7937 223.395C72.7484 222.811 72.6722 222.229 72.5652 221.652L71.9472 218.236C70.7993 218.459 70.1514 218.163 70.0035 217.347C69.9698 217.193 69.9757 217.033 70.0207 216.882C70.0657 216.731 70.1483 216.594 70.2607 216.484C70.4967 216.244 70.8031 216.086 71.1354 216.032C71.9221 215.89 73.107 215.708 74.6902 215.487C76.2734 215.265 77.4584 215.083 78.245 214.941C78.4412 214.906 78.727 214.843 79.1022 214.754C79.4777 214.663 79.7629 214.601 79.96 214.565C80.2324 214.514 80.5143 214.568 80.7482 214.717C80.8653 214.786 80.9658 214.879 81.0426 214.991C81.1194 215.103 81.1707 215.231 81.1927 215.365Z" fill="#FFD5B8"/>
<path d="M94.71 227.707C94.741 227.859 94.7298 228.016 94.6775 228.162C94.6251 228.307 94.5337 228.436 94.4133 228.533C94.1566 228.76 93.8414 228.912 93.5033 228.97C93.194 229.026 92.7314 229.09 92.1143 229.166C91.4977 229.24 91.0349 229.306 90.7261 229.362C89.5817 229.573 88.4594 229.89 87.3738 230.309C86.9339 230.491 86.4813 230.641 86.0197 230.757C85.786 230.798 85.5454 230.752 85.343 230.629C85.1405 230.505 84.99 230.312 84.9197 230.085C84.7601 229.632 84.6394 229.166 84.5589 228.692C84.5055 228.398 84.3397 227.6 84.0615 226.299C83.8529 225.307 83.6927 224.501 83.581 223.882L82.971 220.51C82.6772 218.992 82.4793 217.456 82.3785 215.913C82.3239 214.647 82.6191 213.956 83.2641 213.838C83.4507 213.819 83.6388 213.858 83.803 213.948C83.9672 214.039 84.0996 214.178 84.1824 214.347C84.3879 214.668 84.527 215.027 84.5913 215.403C84.6113 215.515 84.7297 216.37 84.9465 217.969C85.1633 219.568 85.4443 221.322 85.7895 223.232C86.1295 225.113 86.4884 226.737 86.8662 228.103C88.2319 227.675 89.6202 227.322 91.0249 227.047C93.3262 226.631 94.5546 226.851 94.71 227.707Z" fill="#FFD5B8"/>
<path d="M105.74 226.169C105.778 226.41 105.739 226.657 105.629 226.874C105.586 226.983 105.518 227.079 105.428 227.154C105.339 227.229 105.233 227.28 105.119 227.303C105.02 227.32 104.557 227.365 103.729 227.435C102.744 227.52 101.648 227.671 100.441 227.888C99.9292 227.995 99.4237 228.13 98.927 228.293C98.4297 228.456 97.9239 228.59 97.4117 228.696C96.9953 228.808 96.5556 228.798 96.1452 228.665C95.9573 228.552 95.7998 228.394 95.6863 228.206C95.5728 228.018 95.5065 227.805 95.4933 227.585C95.356 226.826 95.2144 225.843 95.0687 224.636C94.8576 222.989 94.73 222.004 94.686 221.679C94.3489 221.731 94.0041 221.675 93.7006 221.519C93.5561 221.45 93.4308 221.346 93.3354 221.217C93.2401 221.088 93.1777 220.938 93.1536 220.779C93.1214 220.62 93.1283 220.455 93.1739 220.299C93.2195 220.142 93.3023 220 93.4152 219.882C93.6455 219.626 93.9556 219.455 94.2952 219.398C94.2334 218.974 94.1245 218.13 93.9682 216.866C93.8333 215.802 93.71 214.961 93.5982 214.342C92.6248 214.488 92.0803 214.247 91.9656 213.613C91.8029 212.713 92.5007 212.122 94.0591 211.842C94.8729 211.694 96.1017 211.494 97.7453 211.24C99.3875 210.986 100.62 210.785 101.442 210.637C102.263 210.489 102.73 210.73 102.844 211.362C102.954 211.965 102.613 212.447 101.823 212.807C101.191 213.043 100.537 213.213 99.8703 213.312C99.6175 213.358 99.2304 213.421 98.709 213.501C98.1865 213.581 97.7992 213.644 97.5469 213.69C96.8726 213.812 96.3335 213.916 95.9296 214.004C96.0848 215.106 96.3243 216.752 96.6482 218.94C97.9197 218.755 99.1849 218.576 100.444 218.406C102.286 218.248 103.289 218.625 103.453 219.536C103.504 219.817 103.217 220.036 102.593 220.192C102.173 220.227 101.756 220.296 101.347 220.396C100.322 220.582 98.8656 220.903 96.977 221.36L97.6804 226.213C98.3561 226 99.0431 225.825 99.7383 225.688C101.105 225.475 102.485 225.349 103.868 225.311C105.004 225.265 105.628 225.551 105.74 226.169Z" fill="#FFD5B8"/>
</g>
<defs>
<clipPath id="clip0_8588_80367">
<rect width="237" height="282" fill="white"/>
</clipPath>
</defs>
</svg>
