<svg width="17" height="17" viewBox="0 0 17 17" fill="none" xmlns="http://www.w3.org/2000/svg">
<path d="M6.5 13.9999H3.5C3.36739 13.9999 3.24021 13.9472 3.14645 13.8535C3.05268 13.7597 3 13.6325 3 13.4999V10.707C3 10.6414 3.01293 10.5764 3.03806 10.5157C3.06319 10.455 3.10002 10.3999 3.14645 10.3535L10.6464 2.85348C10.7402 2.75971 10.8674 2.70703 11 2.70703C11.1326 2.70703 11.2598 2.75971 11.3536 2.85348L14.1464 5.64637C14.2402 5.74014 14.2929 5.86732 14.2929 5.99992C14.2929 6.13253 14.2402 6.25971 14.1464 6.35348L6.5 13.9999Z" stroke="#478DFD" stroke-linecap="round" stroke-linejoin="round"/>
<path d="M9 4.5L12.5 8" stroke="#478DFD" stroke-linecap="round" stroke-linejoin="round"/>
<path d="M14 14.0004H6.50005L3.03186 10.5322" stroke="#478DFD" stroke-linecap="round" stroke-linejoin="round"/>
</svg>
