<svg width="56" height="56" viewBox="0 0 56 56" fill="none" xmlns="http://www.w3.org/2000/svg">
<path d="M20.2292 27.3034C22.0445 31.0146 25.0527 34.0092 28.7721 35.8075C29.0442 35.9365 29.3453 35.9924 29.6455 35.9696C29.9458 35.9469 30.235 35.8464 30.4846 35.678L35.9612 32.0261C36.2034 31.8646 36.4821 31.766 36.772 31.7394C37.0619 31.7128 37.3538 31.7589 37.6214 31.8736L47.867 36.2645C48.2151 36.4124 48.5056 36.6693 48.695 36.9967C48.8843 37.324 48.9621 37.704 48.9167 38.0794C48.5928 40.6134 47.3564 42.9425 45.439 44.6306C43.5216 46.3187 41.0546 47.25 38.5 47.2501C30.6098 47.2501 23.0428 44.1157 17.4636 38.5365C11.8844 32.9573 8.75 25.3903 8.75 17.5001C8.75013 14.9455 9.68142 12.4785 11.3695 10.5611C13.0576 8.64365 15.3866 7.40727 17.9207 7.08344C18.2961 7.03801 18.6761 7.11581 19.0034 7.30512C19.3308 7.49444 19.5877 7.785 19.7356 8.13305L24.1304 18.3876C24.244 18.6528 24.2903 18.9421 24.2652 19.2295C24.24 19.517 24.1442 19.7938 23.9861 20.0353L20.3469 25.5958C20.1813 25.846 20.0834 26.1348 20.0627 26.4341C20.0421 26.7334 20.0994 27.0329 20.2292 27.3034V27.3034Z" stroke="#304D95" stroke-width="3" stroke-linecap="round" stroke-linejoin="round"/>
</svg>