<svg width="32" height="32" viewBox="0 0 32 32" fill="none" xmlns="http://www.w3.org/2000/svg">
<path d="M11.646 15.3541C10.8751 13.4313 10.7918 11.3013 11.4101 9.32418C12.0284 7.34704 13.3103 5.64401 15.0393 4.50295C16.7683 3.3619 18.8382 2.85281 20.8992 3.06173C22.9602 3.27066 24.8858 4.18479 26.3507 5.6496C27.8155 7.11442 28.7296 9.04007 28.9385 11.1011C29.1474 13.1621 28.6383 15.232 27.4973 16.961C26.3562 18.6899 24.6532 19.9719 22.676 20.5902C20.6989 21.2084 18.5689 21.1251 16.6461 20.3542L16.6462 20.354L15.0002 22H12.0002V25H9.00024V28H4.00024V23L11.6462 15.354L11.646 15.3541Z" stroke="#304D95" stroke-width="2" stroke-linecap="round" stroke-linejoin="round"/>
<path opacity="0.5" d="M22.5 10C22.7761 10 23 9.77614 23 9.5C23 9.22386 22.7761 9 22.5 9C22.2239 9 22 9.22386 22 9.5C22 9.77614 22.2239 10 22.5 10Z" stroke="#304D95" stroke-width="2" stroke-linecap="round" stroke-linejoin="round"/>
<path d="M23.9375 9.5C23.9375 10.2939 23.2939 10.9375 22.5 10.9375C21.7061 10.9375 21.0625 10.2939 21.0625 9.5C21.0625 8.70609 21.7061 8.0625 22.5 8.0625C23.2939 8.0625 23.9375 8.70609 23.9375 9.5Z" fill="#304D95" stroke="#304D95" stroke-width="0.125"/>
</svg>
