<svg width="56" height="56" viewBox="0 0 56 56" fill="none" xmlns="http://www.w3.org/2000/svg">
<path d="M28 49C39.598 49 49 39.598 49 28C49 16.402 39.598 7 28 7C16.402 7 7 16.402 7 28C7 39.598 16.402 49 28 49Z" stroke="#FD5A65" stroke-width="2" stroke-linecap="round" stroke-linejoin="round"/>
<path d="M28 42C29.4497 42 30.625 40.8247 30.625 39.375C30.625 37.9253 29.4497 36.75 28 36.75C26.5503 36.75 25.375 37.9253 25.375 39.375C25.375 40.8247 26.5503 42 28 42Z" fill="#FD5A65"/>
<path d="M27.9999 31.502V29.752C29.2113 29.752 30.3956 29.3927 31.4028 28.7197C32.4101 28.0467 33.1951 27.0901 33.6587 25.9709C34.1223 24.8517 34.2436 23.6202 34.0072 22.432C33.7709 21.2439 33.1876 20.1525 32.331 19.2959C31.4744 18.4393 30.383 17.856 29.1949 17.6196C28.0067 17.3833 26.7752 17.5046 25.656 17.9682C24.5368 18.4318 23.5802 19.2168 22.9072 20.2241C22.2342 21.2313 21.8749 22.4155 21.8749 23.627" stroke="#FD5A65" stroke-width="2" stroke-linecap="round" stroke-linejoin="round"/>
</svg>
