<svg width="56" height="56" viewBox="0 0 56 56" fill="none" xmlns="http://www.w3.org/2000/svg">
<path d="M11.9133 44.0867C9.89994 42.0733 11.2353 37.8463 10.2105 35.3695C9.14821 32.8019 5.25 30.7355 5.25 27.9999C5.25 25.2644 9.14823 23.198 10.2106 20.6305C11.2354 18.1537 9.89995 13.9267 11.9133 11.9133C13.9267 9.89994 18.1537 11.2353 20.6305 10.2105C23.1981 9.14821 25.2645 5.25 28.0001 5.25C30.7356 5.25 32.802 9.14823 35.3695 10.2106C37.8463 11.2354 42.0733 9.89995 44.0867 11.9133C46.1001 13.9267 44.7647 18.1537 45.7895 20.6305C46.8518 23.1981 50.75 25.2645 50.75 28.0001C50.75 30.7356 46.8518 32.802 45.7894 35.3695C44.7646 37.8463 46.1001 42.0733 44.0867 44.0867C42.0733 46.1001 37.8463 44.7647 35.3695 45.7895C32.8019 46.8518 30.7355 50.75 27.9999 50.75C25.2644 50.75 23.198 46.8518 20.6305 45.7894C18.1537 44.7646 13.9267 46.1001 11.9133 44.0867Z" stroke="#304D95" stroke-width="3" stroke-linecap="round" stroke-linejoin="round"/>
<path d="M30.5625 39.375C30.5625 40.7902 29.4152 41.9375 28 41.9375C26.5848 41.9375 25.4375 40.7902 25.4375 39.375C25.4375 37.9598 26.5848 36.8125 28 36.8125C29.4152 36.8125 30.5625 37.9598 30.5625 39.375Z" fill="#304D95" stroke="#304D95" stroke-width="0.125"/>
<path d="M27.9999 31.501V29.751C29.2113 29.751 30.3956 29.3918 31.4028 28.7187C32.4101 28.0457 33.1951 27.0891 33.6587 25.9699C34.1223 24.8507 34.2436 23.6192 34.0072 22.4311C33.7709 21.2429 33.1876 20.1515 32.331 19.295C31.4744 18.4384 30.383 17.855 29.1949 17.6187C28.0067 17.3823 26.7752 17.5036 25.656 17.9672C24.5368 18.4308 23.5802 19.2159 22.9072 20.2231C22.2342 21.2304 21.8749 22.4146 21.8749 23.626" stroke="#304D95" stroke-width="2.5" stroke-linecap="round" stroke-linejoin="round"/>
</svg>
