<svg width="20" height="20" viewBox="0 0 20 20" fill="none" xmlns="http://www.w3.org/2000/svg">
<path d="M4.25476 15.7452C3.53569 15.0262 4.01262 13.5165 3.64662 12.632C3.26722 11.715 1.875 10.9769 1.875 9.99997C1.875 9.02301 3.26722 8.285 3.64663 7.36803C4.01263 6.48346 3.5357 4.97382 4.25476 4.25476C4.97382 3.53569 6.48346 4.01262 7.36804 3.64662C8.28502 3.26722 9.02305 1.875 10 1.875C10.977 1.875 11.715 3.26722 12.632 3.64663C13.5165 4.01263 15.0262 3.5357 15.7452 4.25476C16.4643 4.97382 15.9874 6.48346 16.3534 7.36804C16.7328 8.28502 18.125 9.02305 18.125 10C18.125 10.977 16.7328 11.715 16.3534 12.632C15.9874 13.5165 16.4643 15.0262 15.7452 15.7452C15.0262 16.4643 13.5165 15.9874 12.632 16.3534C11.715 16.7328 10.9769 18.125 9.99997 18.125C9.02301 18.125 8.285 16.7328 7.36803 16.3534C6.48346 15.9874 4.97382 16.4643 4.25476 15.7452Z" stroke="#304D95" stroke-width="2" stroke-linecap="round" stroke-linejoin="round"/>
<path d="M10.875 14.0625C10.875 14.5457 10.4832 14.9375 10 14.9375C9.51675 14.9375 9.125 14.5457 9.125 14.0625C9.125 13.5793 9.51675 13.1875 10 13.1875C10.4832 13.1875 10.875 13.5793 10.875 14.0625Z" fill="black" stroke="#304D95" stroke-width="0.125"/>
<path d="M10 11.2504V10.6254C10.4326 10.6254 10.8556 10.4971 11.2153 10.2567C11.575 10.0163 11.8554 9.67469 12.021 9.27497C12.1866 8.87526 12.2299 8.43543 12.1455 8.01109C12.0611 7.58676 11.8527 7.19698 11.5468 6.89106C11.2409 6.58513 10.8511 6.37679 10.4268 6.29238C10.0024 6.20798 9.56259 6.2513 9.16288 6.41687C8.76317 6.58243 8.42153 6.86281 8.18116 7.22254C7.9408 7.58227 7.8125 8.00521 7.8125 8.43785" stroke="#304D95" stroke-width="2" stroke-linecap="round" stroke-linejoin="round"/>
</svg>
