<svg width="24" height="24" viewBox="0 0 24 24" fill="none" xmlns="http://www.w3.org/2000/svg">
<path d="M12 21C16.9706 21 21 16.9706 21 12C21 7.02944 16.9706 3 12 3C7.02944 3 3 7.02944 3 12C3 16.9706 7.02944 21 12 21Z" stroke="#333333" stroke-linecap="round" stroke-linejoin="round"/>
<path d="M12 18C12.6213 18 13.125 17.4963 13.125 16.875C13.125 16.2537 12.6213 15.75 12 15.75C11.3787 15.75 10.875 16.2537 10.875 16.875C10.875 17.4963 11.3787 18 12 18Z" fill="#333333"/>
<path d="M11.9999 13.5004V12.7504C12.5191 12.7504 13.0266 12.5965 13.4583 12.308C13.8899 12.0196 14.2264 11.6096 14.4251 11.13C14.6237 10.6503 14.6757 10.1225 14.5744 9.61332C14.4732 9.10412 14.2231 8.63639 13.856 8.26927C13.4889 7.90216 13.0212 7.65215 12.512 7.55087C12.0028 7.44958 11.475 7.50156 10.9953 7.70024C10.5157 7.89892 10.1057 8.23538 9.81727 8.66706C9.52883 9.09874 9.37488 9.60625 9.37488 10.1254" stroke="#333333" stroke-linecap="round" stroke-linejoin="round"/>
</svg>
