<svg width="196" height="220" viewBox="0 0 196 220" fill="none" xmlns="http://www.w3.org/2000/svg">
<path fill-rule="evenodd" clip-rule="evenodd" d="M195.279 211.359C188.429 187.32 167.452 156.806 133.369 150.472C130.476 149.941 119.165 148.086 104.961 151.002C68.5109 158.544 48.6752 191.094 41.7949 211.359H195.279Z" fill="white"/>
<path d="M94.8713 89C67.1399 52.7378 55.2551 20.9427 65.8194 8.59252C70.0451 3.5999 77.7043 2.28605 83.5147 3.33713C101.21 6.49037 115.208 34.0812 116 73.2338" fill="white"/>
<path d="M96.9016 78C78.9916 55.8233 71.5068 34.678 78.7242 25.3947C78.9916 25.1368 82.4666 20.7531 87.2783 21.0109C101.981 22.0424 109.198 67.6852 110 72.5848" fill="#E79EA3"/>
<path d="M122 74.3326C122.261 67.1323 124.871 4.19589 145.494 0.195693C153.847 -1.40438 162.723 7.12936 166.899 14.063C177.341 32.4639 167.682 63.3988 139.751 89" fill="white"/>
<path d="M140.088 79C157.707 59.5921 164.503 37.8238 156.952 23.9235C156.197 22.6122 151.918 14.7441 146.884 15.0064C137.068 15.7932 130.775 45.6919 127 73.2301" fill="#E79EA3"/>
<path d="M76.038 115.195C75.0054 91.323 95.1413 71.4742 118.891 72.0106C142.383 72.5471 161.228 92.3959 159.937 116" fill="white"/>
<path d="M134.723 158.436C131.328 159.749 114.615 166.05 97.1187 157.911C94.7685 156.861 74.3997 146.622 73.094 127.982C72.8329 125.356 72.8329 118.005 77.0111 111.704C91.1125 89.3884 145.69 89.3884 158.747 111.967C163.187 119.843 161.881 128.507 161.62 130.344C159.792 141.109 151.958 147.935 148.824 150.56C146.996 151.61 142.296 155.286 134.723 158.436Z" fill="white"/>
<path d="M104.968 141.767C113.276 146.823 125.22 155.073 137.683 167.049C153.781 182.485 176.63 209.896 171.178 217.614C167.802 222.671 153.781 218.679 140.799 214.953C134.308 213.09 135.087 212.824 116.911 205.372C97.6975 197.654 92.5045 196.324 84.1958 190.203C79.7818 187.009 75.8871 184.082 72.2521 178.759C71.2135 177.162 69.1363 174.501 67.5784 171.041C67.0591 169.977 61.6065 157.202 65.2416 148.952C69.1363 139.904 84.4555 134.847 101.333 140.17L104.968 141.767Z" fill="#FF6D03"/>
<path d="M7 152.212C7 149.49 19.0894 146.768 30.1276 147.016C44.3195 147.511 58.5115 153.202 57.9858 156.171C57.4602 159.141 41.4286 159.388 30.916 158.646C21.7176 157.904 7 155.182 7 152.212Z" fill="#397E44"/>
<path d="M113.656 197.488C117.697 189.14 110.205 177.223 96.8812 171.079C83.5574 164.935 69.5944 166.68 65.3251 175.161C61.285 183.509 68.7765 195.426 82.1003 201.57C95.4241 207.714 109.387 205.969 113.656 197.488Z" fill="white"/>
<path d="M0.0479071 116.937C0.839441 114.309 16.1424 117.462 28.807 123.244C45.4292 130.864 60.4683 143.741 58.8852 146.369C57.3022 149.259 38.3054 141.639 26.1685 135.332C15.6147 130.076 -1.00747 120.09 0.0479071 116.937Z" fill="#397E44"/>
<path d="M66.0588 137.905C63.7997 139.019 56.74 130.111 53.069 121.204C48.2684 109.513 47.986 95.8732 50.8099 95.0381C53.6337 94.203 59.8463 107.286 62.6701 116.193C65.494 123.987 68.6003 136.792 66.0588 137.905Z" fill="#397E44"/>
<path d="M164.781 171.621C161.181 164.487 150.381 162.902 140.867 167.922C131.353 173.206 126.467 183.246 130.324 190.379C133.924 197.513 144.724 199.098 154.238 194.078C163.753 188.794 168.381 178.754 164.781 171.621Z" fill="white"/>
<path d="M115.659 148.224C114.536 151.06 109.481 151.834 104.706 150.029C99.9319 148.224 97.1234 144.613 98.2468 141.776C99.3702 138.94 104.425 138.166 109.2 139.971C113.974 141.776 117.064 145.645 115.659 148.224Z" fill="#F26222"/>
<path d="M123.52 154.892C122.225 158.69 117.301 160.047 112.896 158.148C108.491 156.248 105.899 151.636 107.454 148.108C109.009 144.31 113.673 142.953 118.079 144.852C122.743 146.752 125.075 151.093 123.52 154.892Z" fill="#F26222"/>
<path d="M115.766 146.455C114.699 149.055 109.9 149.765 105.367 148.11C100.834 146.455 98.1678 143.145 99.2343 140.545C100.301 137.945 105.1 137.235 109.633 138.89C114.166 140.545 116.832 144.091 115.766 146.455Z" fill="white"/>
<path d="M125.62 153.349C124.238 156.699 118.987 157.987 114.288 156.183C109.59 154.38 106.826 150.258 108.484 146.651C109.866 143.301 115.117 142.013 119.816 143.817C124.514 145.62 127.002 150 125.62 153.349Z" fill="white"/>
<path d="M111.929 111.307C113.633 109.627 117.326 110.047 118.462 110.047C119.03 110.047 123.007 110.467 123.859 112.148C124.711 114.038 121.587 116.769 117.61 116.979C114.769 117.19 112.781 115.719 112.781 115.719C111.077 114.669 110.225 112.778 111.929 111.307Z" fill="black"/>
<path d="M114 111C114.923 111 118 111 118 111.571C118 112.143 114.923 112.714 114 113V111Z" fill="#F1F2F2"/>
<path d="M114 111C114.923 111 118 111 118 111.571C118 112.143 114.923 112.714 114 113V111Z" stroke="#F1F2F2" stroke-width="0.25" stroke-miterlimit="10" stroke-linecap="round" stroke-linejoin="round"/>
<path d="M95.0209 104.583C94.8287 107.92 95.9819 110.701 97.7117 110.979C99.4415 111.257 100.787 108.754 100.979 105.417C101.171 102.08 100.018 99.2992 98.2883 99.0211C96.5585 98.743 95.0209 101.246 95.0209 104.583Z" fill="black"/>
<path d="M95 101.8C95 103.4 95.5455 105 96.3636 105C97.1818 105 98 103.8 98 102.2C98 100.6 97.4545 99 96.6364 99C95.8182 99 95.2727 100.2 95 101.8Z" fill="white"/>
<path d="M134.028 104.583C133.772 107.92 135.309 110.701 137.616 110.979C139.922 111.257 141.716 108.754 141.972 105.417C142.228 102.08 140.691 99.2992 138.384 99.0211C136.334 98.743 134.284 101.246 134.028 104.583Z" fill="black"/>
<path d="M136 101.8C136 103.4 136.545 105 137.364 105C138.182 105 139 103.8 139 102.2C139 100.6 138.455 99 137.636 99C136.818 99 136 100.2 136 101.8Z" fill="white"/>
<path d="M103.779 121.787C107.677 122.344 112.094 122.623 117.031 122.623C122.228 122.623 126.646 122.344 130.803 121.787C131.323 121.787 132.362 121.787 133.402 121.23C134.701 120.672 135.48 119.836 136 119.279C136 121.508 136 128.197 131.842 134.05C129.504 137.116 126.905 138.509 125.606 139.345C124.567 139.903 114.433 145.198 106.118 139.067C105.078 138.23 102.48 136.28 100.921 132.656C100.141 130.984 99.8815 129.591 99.6216 127.918C99.1019 125.968 98.8421 122.902 99.1019 119C99.6216 119.557 100.401 120.394 101.7 120.951C102.22 121.508 103.259 121.787 103.779 121.787Z" fill="#2D1911"/>
<path d="M133 133.504C132.179 134.676 131.085 136.141 129.171 137.606C123.974 141.707 118.504 142 116.316 142C113.581 142 109.752 142 105.923 139.363C103.188 137.606 101.821 134.969 101 133.504C104.556 130.868 107.838 129.696 109.752 129.11C117.41 126.766 123.701 128.817 125.068 129.11C128.624 130.282 131.359 132.039 133 133.504Z" fill="#E06569"/>
<path d="M107.126 136.254C107.932 134.134 113.031 133.226 113.299 133.226C118.13 132.318 120.009 134.437 125.109 134.437C125.377 134.437 126.182 134.437 126.719 134.74C127.524 135.345 126.45 137.162 125.377 138.373C122.425 141.097 115.983 141.703 111.689 140.189C109.542 139.886 106.321 138.07 107.126 136.254Z" fill="#DB5B66"/>
<g opacity="0.44">
<g opacity="0.44">
<path opacity="0.44" d="M111.114 136.413C111.64 135.887 112.693 136.15 114.535 136.15C116.113 136.413 115.85 136.413 116.376 136.413C118.218 136.413 118.744 135.624 120.06 135.887C120.06 135.887 121.112 136.15 121.112 136.676C121.112 137.202 119.271 137.992 117.429 138.255C116.113 138.255 116.376 137.992 113.745 137.729C112.43 137.729 111.377 137.729 111.114 137.202C110.851 136.939 110.851 136.676 111.114 136.413Z" fill="#F1F2F2"/>
</g>
</g>
<path d="M122 122H118V128H122V122Z" fill="white"/>
<path d="M122 122H118V128H122V122Z" stroke="white" stroke-width="0.75" stroke-miterlimit="10" stroke-linecap="round" stroke-linejoin="round"/>
<path d="M116 122V122V128V128V122Z" stroke="white" stroke-width="0.75" stroke-miterlimit="10" stroke-linecap="round" stroke-linejoin="round"/>
</svg>
