<svg width="270" height="245" viewBox="0 0 270 245" fill="none" xmlns="http://www.w3.org/2000/svg">
<path d="M100.292 121.572C62.4891 71.8659 46.1077 28.3774 60.7609 11.6289C66.6654 4.87196 77.0343 3.1468 84.7029 4.44067C108.753 8.57388 127.907 46.4197 128.987 100.08" fill="white"/>
<path d="M102.38 106.154C78.3305 75.2805 68.4656 45.9526 78.1144 32.9779C78.4385 32.5107 83.1909 26.3648 89.5634 26.7961C109.509 28.09 119.122 91.8852 120.058 98.5343" fill="#E79EA3"/>
<path d="M136.259 100.259C136.583 90.5909 140.148 5.66238 168.626 0.271233C180.183 -1.92117 192.46 9.61588 198.004 19.0684C212.478 43.7957 199.121 85.631 160.741 120.17" fill="white"/>
<path d="M162.254 106.585C187.528 80.1681 197.141 50.0136 186.556 31.0727C185.512 29.2038 179.535 18.4934 172.082 19.0325C157.861 20.0388 149.077 61.1553 143.676 98.9652" fill="#E79EA3"/>
<path d="M73.5781 154.925C72.2459 122.974 100.292 96.4136 133.451 97.0965C166.106 97.7794 192.64 124.555 190.696 155.968" fill="white"/>
<path d="M155.233 215.126C150.625 216.995 127.619 225.657 103.425 214.263C100.148 212.718 72.0659 198.953 70.2298 173.291C69.9778 169.517 69.8697 159.777 75.4862 150.899C94.9278 120.206 170.138 120.422 188.14 151.187C194.404 161.897 192.352 173.938 191.92 176.454C189.4 191.333 178.599 200.462 174.098 204.272C172.118 205.961 165.458 210.957 155.233 215.126Z" fill="white"/>
<path d="M123.982 150.216C126.179 147.377 130.895 148.024 132.263 148.204C133.163 148.312 137.88 148.959 138.924 151.762C140.148 154.997 135.935 159.813 131.147 160.1C127.619 160.316 125.207 157.98 125.099 157.872C123.082 155.895 122.146 152.553 123.982 150.216Z" fill="#333333"/>
<path d="M127.259 150.684C128.483 150.684 131.831 150.755 131.903 151.295C131.975 151.87 128.339 152.732 127.223 152.984L127.259 150.684Z" fill="#F1F2F2" stroke="#F1F2F2" stroke-width="0.25" stroke-miterlimit="10" stroke-linecap="round" stroke-linejoin="round"/>
<path d="M110.137 142.048C110.457 137.793 108.177 134.152 105.044 133.917C101.911 133.682 99.112 136.942 98.7918 141.198C98.4716 145.453 100.752 149.094 103.885 149.329C107.017 149.564 109.817 146.304 110.137 142.048Z" fill="#333333"/>
<path d="M105.036 138.295C105.146 136.83 104.384 135.579 103.333 135.5C102.282 135.421 101.341 136.545 101.23 138.01C101.12 139.474 101.883 140.726 102.934 140.805C103.985 140.883 104.926 139.76 105.036 138.295Z" fill="white"/>
<path d="M165.176 142.221C165.496 137.966 163.216 134.325 160.083 134.09C156.95 133.855 154.151 137.115 153.831 141.371C153.511 145.626 155.791 149.267 158.924 149.502C162.057 149.737 164.856 146.477 165.176 142.221Z" fill="#333333"/>
<path d="M160.757 138.105C160.867 136.64 160.104 135.389 159.053 135.31C158.002 135.231 157.061 136.355 156.951 137.82C156.841 139.284 157.603 140.536 158.654 140.614C159.705 140.693 160.646 139.57 160.757 138.105Z" fill="white"/>
<path d="M151.798 159.229C157.121 173.387 169.839 181.691 180.205 177.777C190.57 173.863 194.658 159.212 189.335 145.054C184.012 130.896 171.294 122.592 160.928 126.506C150.562 130.42 146.474 145.071 151.798 159.229Z" fill="white"/>
<path d="M242.5 221.5L186.5 221.5L169.17 192.317L156.223 165.43L185.621 138.84L242.5 221.5Z" fill="white"/>
<path d="M189.044 145.284C188.593 143.992 177.704 127.822 171.477 126.344C169.824 125.951 163.841 124.571 158.317 127.822C150.721 132.261 149.838 142.02 149.531 145.284C149.531 158.839 172.068 199.369 174.194 201.455" stroke="#333333" stroke-width="0.25" stroke-miterlimit="10" stroke-linecap="round" stroke-linejoin="round"/>
<path d="M113.151 159.229C107.828 173.387 95.1095 181.691 84.7438 177.777C74.3781 173.863 70.2902 159.212 75.6133 145.054C80.9364 130.896 93.6547 122.592 104.02 126.506C114.386 130.42 118.474 145.071 113.151 159.229Z" fill="white"/>
<path d="M28 221.5L78.4999 221.5L95.7789 192.317L108.726 165.43L79.3279 138.84L28 221.5Z" fill="white"/>
<path d="M75.904 145.284C76.3552 143.992 87.2446 127.822 93.4716 126.344C95.1244 125.951 101.108 124.571 106.631 127.822C114.227 132.261 115.11 142.02 115.418 145.284C115.418 158.839 92.88 199.369 90.7549 201.455" stroke="#333333" stroke-width="0.25" stroke-miterlimit="10" stroke-linecap="round" stroke-linejoin="round"/>
<path d="M145.72 186.358C145.72 175.894 139.475 167.412 131.772 167.414C124.069 167.416 117.825 175.901 117.825 186.365C117.825 196.829 124.069 205.31 131.772 205.308C139.475 205.306 145.72 196.822 145.72 186.358Z" fill="#2D1911"/>
<path fill-rule="evenodd" clip-rule="evenodd" d="M144.034 195.394C142.612 191.928 137.591 189.368 131.614 189.37C125.856 189.371 120.984 191.75 119.364 195.024C121.678 201.133 126.366 205.309 131.772 205.308C137.067 205.307 141.672 201.298 144.034 195.394Z" fill="#E06569"/>
<path d="M135.999 166.282H132.94V174.53H135.999V166.282Z" fill="white" stroke="white" stroke-width="0.75" stroke-miterlimit="10" stroke-linecap="round" stroke-linejoin="round"/>
<path d="M131.124 166.282H128.066V174.53H131.124V166.282Z" fill="white" stroke="white" stroke-width="0.75" stroke-miterlimit="10" stroke-linecap="round" stroke-linejoin="round"/>
</svg>
