<svg width="253" height="234" viewBox="0 0 253 234" fill="none" xmlns="http://www.w3.org/2000/svg">
<path d="M92.0709 123.975C83.0775 62.4737 89.7498 16.7041 110.579 9.17123C118.976 6.12879 128.838 9.61909 134.895 14.4389C153.854 29.6202 152.314 71.8096 127.415 119.071" fill="white"/>
<path d="M101.315 111.55C95.2323 73.0761 100.762 42.7794 115.415 36.1239C115.922 35.873 123.021 32.808 128.364 36.2523C145.115 46.984 122.768 107.183 120.382 113.425" fill="#E79EA3"/>
<path d="M145.588 116.332C150.526 108.066 194.527 35.8047 221.93 44.8221C233.052 48.4776 238.191 64.439 238.469 75.3426C239.168 103.851 207.388 133.86 157.325 145.465" fill="white"/>
<path d="M165.185 134.359C199.921 123.519 222.815 101.882 222.715 80.286C222.706 78.1553 222.657 65.9479 215.906 62.8288C203.034 56.8573 175.583 88.4421 152.672 118.776" fill="#E79EA3"/>
<path d="M68.0551 168.198C66.7293 136.397 94.644 109.961 127.647 110.641C160.149 111.32 186.558 137.971 184.623 169.236" fill="white"/>
<path d="M149.326 228.116C144.74 229.976 121.842 238.598 97.7611 227.258C94.5002 225.72 66.5497 212.019 64.7222 186.477C64.4713 182.721 64.3638 173.027 69.9539 164.191C89.3043 133.642 164.162 133.856 182.079 164.477C188.314 175.138 186.271 187.121 185.841 189.625C183.333 204.435 172.583 213.521 168.103 217.313C166.132 218.994 159.503 223.967 149.326 228.116Z" fill="white"/>
<path d="M118.223 163.511C120.409 160.685 125.103 161.329 126.465 161.508C127.361 161.615 132.055 162.259 133.094 165.05C134.312 168.269 130.12 173.063 125.354 173.349C121.842 173.563 119.441 171.238 119.334 171.131C117.327 169.163 116.395 165.837 118.223 163.511Z" fill="#333333"/>
<path d="M121.484 163.976C122.702 163.976 126.035 164.048 126.107 164.584C126.178 165.157 122.559 166.015 121.448 166.266L121.484 163.976Z" fill="#F1F2F2" stroke="#F1F2F2" stroke-width="0.25" stroke-miterlimit="10" stroke-linecap="round" stroke-linejoin="round"/>
<path d="M104.442 155.382C104.761 151.146 102.491 147.522 99.3733 147.289C96.2551 147.055 93.469 150.299 93.1503 154.535C92.8316 158.771 95.101 162.394 98.2192 162.628C101.337 162.861 104.123 159.617 104.442 155.382Z" fill="#333333"/>
<path d="M99.3653 151.646C99.475 150.188 98.716 148.943 97.67 148.864C96.6241 148.786 95.6872 149.904 95.5775 151.362C95.4678 152.82 96.2268 154.065 97.2728 154.144C98.3188 154.222 99.2556 153.104 99.3653 151.646Z" fill="white"/>
<path d="M159.223 155.554C159.542 151.318 157.272 147.694 154.154 147.461C151.036 147.227 148.25 150.471 147.931 154.707C147.612 158.943 149.882 162.566 153 162.8C156.118 163.033 158.904 159.789 159.223 155.554Z" fill="#333333"/>
<path d="M154.824 151.457C154.934 149.999 154.175 148.753 153.129 148.675C152.083 148.596 151.146 149.715 151.037 151.173C150.927 152.63 151.686 153.876 152.732 153.954C153.778 154.033 154.715 152.914 154.824 151.457Z" fill="white"/>
<path d="M136.919 202.253C138.396 194.697 132.634 187.213 124.05 185.538C115.465 183.862 107.308 188.628 105.831 196.184C104.354 203.74 110.116 211.224 118.701 212.9C127.285 214.576 135.442 209.809 136.919 202.253Z" fill="#2D1911"/>
<path d="M138.828 205.937C140.305 198.381 133.409 190.676 123.426 188.727C113.442 186.778 104.152 191.323 102.674 198.879C101.197 206.435 108.093 214.14 118.077 216.089C128.06 218.038 137.351 213.493 138.828 205.937Z" fill="white"/>
<rect y="95" width="67.5" height="60" rx="30" fill="#F2A50F"/>
<path d="M23.48 126.114C23.48 127.916 22.8354 129.446 21.5464 130.706C20.2573 131.966 18.7266 132.596 16.9541 132.596C15.167 132.596 13.6436 131.966 12.3838 130.706C11.124 129.446 10.4941 127.916 10.4941 126.114C10.4941 124.327 11.1167 122.796 12.3618 121.521C13.6216 120.232 15.1523 119.588 16.9541 119.588C18.1113 119.588 19.1953 119.881 20.2061 120.467C21.2168 121.053 22.0151 121.851 22.6011 122.862C23.187 123.873 23.48 124.957 23.48 126.114ZM40.4321 126.114C40.4321 127.916 39.7876 129.446 38.4985 130.706C37.2095 131.966 35.6787 132.596 33.9062 132.596C32.1191 132.596 30.5957 131.966 29.3359 130.706C28.0762 129.446 27.4463 127.916 27.4463 126.114C27.4463 124.327 28.0688 122.796 29.314 121.521C30.5737 120.232 32.1045 119.588 33.9062 119.588C35.0635 119.588 36.1475 119.881 37.1582 120.467C38.1689 121.053 38.9673 121.851 39.5532 122.862C40.1392 123.873 40.4321 124.957 40.4321 126.114ZM57.3843 126.114C57.3843 127.916 56.7397 129.446 55.4507 130.706C54.1616 131.966 52.6309 132.596 50.8584 132.596C49.0713 132.596 47.5479 131.966 46.2881 130.706C45.0283 129.446 44.3984 127.916 44.3984 126.114C44.3984 124.327 45.021 122.796 46.2661 121.521C47.5259 120.232 49.0566 119.588 50.8584 119.588C52.0156 119.588 53.0996 119.881 54.1104 120.467C55.1211 121.053 55.9194 121.851 56.5054 122.862C57.0913 123.873 57.3843 124.957 57.3843 126.114Z" fill="#304D95"/>
</svg>
