<svg width="177" height="264" viewBox="0 0 177 264" fill="none" xmlns="http://www.w3.org/2000/svg">
<path d="M53.5485 145.454C8.41783 86.1126 -11.1388 34.1945 6.3547 14.1996C13.4037 6.13304 25.7824 4.07348 34.9374 5.61815C63.6491 10.5525 86.5153 55.7341 87.8047 119.795" fill="white"/>
<path d="M56.0415 127.046C27.3298 90.1889 15.5529 55.1764 27.0719 39.6868C27.4587 39.129 33.1323 31.7919 40.7401 32.3067C64.5518 33.8514 76.0279 110.012 77.1454 117.95" fill="#E79EA3"/>
<path d="M96.4871 120.009C96.8739 108.467 101.129 7.0767 135.127 0.640579C148.925 -1.97678 163.581 11.7965 170.2 23.0812C187.479 52.6015 171.533 102.546 125.715 143.78" fill="white"/>
<path d="M127.52 127.561C157.693 96.0239 169.169 60.0245 156.533 37.4122C155.286 35.1811 148.151 22.3946 139.254 23.0382C122.276 24.2397 111.789 73.3258 105.342 118.464" fill="#E79EA3"/>
<path d="M21.6562 185.272C20.0659 147.127 53.5485 115.418 93.1346 116.234C132.119 117.049 163.796 149.015 161.475 186.516" fill="white"/>
<path d="M119.138 257.141C113.637 259.372 86.1716 269.713 57.2879 256.111C53.3766 254.266 19.851 237.833 17.659 207.197C17.3581 202.692 17.2291 191.064 23.9343 180.465C47.1443 143.822 136.933 144.08 158.424 180.809C165.902 193.595 163.452 207.969 162.937 210.973C159.928 228.736 147.033 239.635 141.661 244.183C139.297 246.2 131.345 252.164 119.138 257.141Z" fill="white"/>
<path d="M81.8307 179.65C84.4525 176.26 90.0831 177.033 91.7164 177.247C92.791 177.376 98.4216 178.148 99.668 181.495C101.129 185.357 96.1006 191.106 90.384 191.45C86.1718 191.707 83.2921 188.918 83.1631 188.789C80.7561 186.429 79.6386 182.439 81.8307 179.65Z" fill="#333333"/>
<path d="M85.7419 180.208C87.2033 180.208 91.2006 180.293 91.2866 180.937C91.3725 181.624 87.0314 182.653 85.699 182.954L85.7419 180.208Z" fill="#F1F2F2" stroke="#F1F2F2" stroke-width="0.25" stroke-miterlimit="10" stroke-linecap="round" stroke-linejoin="round"/>
<path d="M131.339 174.858C131.721 169.777 128.999 165.431 125.259 165.151C121.519 164.871 118.177 168.762 117.795 173.842C117.412 178.923 120.134 183.269 123.875 183.55C127.615 183.83 130.957 179.939 131.339 174.858Z" fill="#333333"/>
<path d="M131.984 181.729C132.447 175.572 129.241 170.312 124.824 169.981C120.407 169.65 116.45 174.373 115.987 180.529C115.524 186.686 118.729 191.946 123.147 192.277C127.564 192.608 131.52 187.886 131.984 181.729Z" fill="white"/>
<path d="M51.8609 174.858C51.4786 169.777 54.2007 165.431 57.9408 165.151C61.6809 164.871 65.0227 168.762 65.405 173.842C65.7873 178.923 63.0652 183.269 59.3251 183.55C55.585 183.83 52.2431 179.939 51.8609 174.858Z" fill="#333333"/>
<path d="M51.2162 181.729C50.7529 175.572 53.9583 170.312 58.3756 169.981C62.7928 169.65 66.7492 174.373 67.2125 180.529C67.6757 186.686 64.4704 191.946 60.0531 192.277C55.6358 192.608 51.6794 187.886 51.2162 181.729Z" fill="white"/>
<path d="M69.2368 198.015C75.6841 198.83 82.9909 199.388 90.9855 199.388C99.4099 199.388 107.104 198.787 113.809 197.886C114.84 197.886 116.474 197.757 118.279 197.028C120.428 196.17 121.889 194.882 122.663 194.11C122.792 197.371 122.878 207.969 115.614 216.851C111.703 221.657 107.404 223.845 105.083 225.046C103.493 225.862 86.5584 234.143 72.8043 224.703C71.214 223.631 66.9158 220.584 64.079 214.749C62.8326 212.174 62.3598 209.9 61.801 207.283C61.1563 204.151 60.4686 199.517 60.7265 193.724C61.4572 194.582 62.8756 195.955 64.9817 196.942C66.7009 197.714 68.2053 197.972 69.2368 198.015Z" fill="#2D1911"/>
<path d="M115.915 216.637C114.668 218.31 112.734 220.584 109.898 222.73C101.86 228.822 93.0917 229.08 89.5673 229.123C85.1402 229.209 79.1657 229.294 73.1913 225.39C68.9361 222.601 66.5721 219.039 65.3687 216.851C70.8273 213.075 75.9421 211.273 79.2517 210.372C91.2865 207.111 101.129 209.814 103.493 210.544C109.124 212.26 113.336 214.792 115.915 216.637Z" fill="#E06569"/>
<path d="M74.1367 220.885C75.3402 218.053 83.5067 216.723 83.8935 216.68C91.5872 215.478 94.51 218.611 102.719 218.31C103.278 218.31 104.525 218.225 105.212 218.739C106.502 219.726 104.783 222.301 102.977 223.803C98.4213 227.535 87.9338 228.651 81.0568 226.592C78.134 225.733 73.0192 223.459 74.1367 220.885Z" fill="#DA5A65"/>
<path opacity="0.44" d="M80.3261 221.485C81.0139 220.627 83.034 220.842 86.0427 221.185C88.6216 221.485 88.1918 221.614 89.1374 221.614C92.0171 221.571 93.1776 220.198 95.1118 220.756C95.1978 220.756 96.6591 221.228 96.6591 221.915C96.6591 222.944 93.4355 224.189 90.5128 224.403C88.2777 224.532 88.6216 223.888 84.5383 223.588C82.3033 223.416 80.713 223.502 80.2402 222.687C80.0683 222.301 80.0683 221.829 80.3261 221.485Z" fill="#F1F2F2"/>
<path d="M96.4444 199.688H93.1348V208.613H96.4444V199.688Z" fill="white" stroke="white" stroke-width="0.75" stroke-miterlimit="10" stroke-linecap="round" stroke-linejoin="round"/>
<path d="M89.7822 199.688H86.4727V208.613H89.7822V199.688Z" fill="white" stroke="white" stroke-width="0.75" stroke-miterlimit="10" stroke-linecap="round" stroke-linejoin="round"/>
</svg>
