<svg width="205" height="220" viewBox="0 0 205 220" fill="none" xmlns="http://www.w3.org/2000/svg">
<path d="M44.6437 121.002C7.018 71.5285 -9.28648 28.2441 5.29796 11.5742C11.1747 4.84903 21.4949 3.13196 29.1276 4.41976C53.0647 8.53357 72.1284 46.2017 73.2034 99.6097" fill="white"/>
<path d="M46.7223 105.655C22.7851 74.927 12.9666 45.7369 22.5701 32.8231C22.8927 32.358 27.6227 26.241 33.9654 26.6702C53.8174 27.958 63.3851 91.4538 64.3168 98.0717" fill="#E79EA3"/>
<path d="M80.442 99.7884C80.7645 90.1656 84.3121 5.6358 112.657 0.26996C124.16 -1.91215 136.379 9.57074 141.897 18.9788C156.303 43.5902 143.008 85.2291 104.809 119.606" fill="white"/>
<path d="M106.314 106.084C131.47 79.7916 141.037 49.7787 130.502 30.9267C129.463 29.0666 123.515 18.4064 116.097 18.943C101.942 19.9447 93.199 60.8681 87.8239 98.5005" fill="#E79EA3"/>
<path d="M18.0549 154.198C16.729 122.397 44.6437 95.961 77.6468 96.6406C110.148 97.3203 136.558 123.971 134.623 155.236" fill="white"/>
<path d="M99.3264 214.116C94.7396 215.976 71.8417 224.597 47.7613 213.258C44.5004 211.719 16.5498 198.019 14.7223 172.477C14.4715 168.721 14.364 159.027 19.9541 150.191C39.3044 119.642 114.162 119.856 132.079 150.477C138.314 161.137 136.271 173.121 135.841 175.625C133.333 190.435 122.583 199.521 118.103 203.313C116.133 204.994 109.503 209.967 99.3264 214.116Z" fill="white"/>
<path d="M68.2227 149.511C70.4086 146.685 75.1028 147.329 76.4645 147.508C77.3604 147.615 82.0546 148.259 83.0938 151.049C84.3122 154.269 80.1196 159.062 75.3537 159.349C71.8419 159.563 69.4411 157.238 69.3336 157.131C67.3269 155.163 66.3952 151.836 68.2227 149.511Z" fill="#333333"/>
<path d="M71.4836 149.976C72.7019 149.976 76.0345 150.048 76.1062 150.584C76.1778 151.157 72.5586 152.015 71.4478 152.266L71.4836 149.976Z" fill="#F1F2F2" stroke="#F1F2F2" stroke-width="0.25" stroke-miterlimit="10" stroke-linecap="round" stroke-linejoin="round"/>
<path d="M54.4423 141.382C54.761 137.146 52.4916 133.522 49.3734 133.289C46.2552 133.055 43.4691 136.299 43.1504 140.535C42.8317 144.771 45.1011 148.394 48.2193 148.628C51.3375 148.861 54.1236 145.617 54.4423 141.382Z" fill="#333333"/>
<path d="M49.3653 137.646C49.475 136.188 48.716 134.943 47.67 134.864C46.6241 134.786 45.6872 135.904 45.5775 137.362C45.4678 138.82 46.2268 140.065 47.2728 140.144C48.3188 140.222 49.2556 139.104 49.3653 137.646Z" fill="white"/>
<path d="M109.223 141.554C109.542 137.318 107.272 133.694 104.154 133.461C101.036 133.227 98.2499 136.471 97.9312 140.707C97.6125 144.943 99.8819 148.566 103 148.8C106.118 149.033 108.904 145.789 109.223 141.554Z" fill="#333333"/>
<path d="M104.824 137.457C104.934 135.999 104.175 134.753 103.129 134.675C102.083 134.596 101.146 135.715 101.037 137.173C100.927 138.63 101.686 139.876 102.732 139.954C103.778 140.033 104.715 138.914 104.824 137.457Z" fill="white"/>
<path d="M88.0182 185.966C88.0182 176.526 82.3851 168.875 75.4363 168.877C68.4876 168.879 62.8545 176.533 62.8545 185.972C62.8545 195.412 68.4876 203.062 75.4363 203.06C82.3851 203.059 88.0182 195.405 88.0182 185.966Z" fill="#2D1911"/>
<path fill-rule="evenodd" clip-rule="evenodd" d="M86.498 194.117C85.2151 190.991 80.6851 188.681 75.2936 188.683C70.099 188.684 65.7041 190.83 64.2427 193.784C66.331 199.294 70.5596 203.062 75.4363 203.06C80.2124 203.059 84.3668 199.443 86.498 194.117Z" fill="#E06569"/>
<path d="M79.2493 167.855H76.4901V175.296H79.2493V167.855Z" fill="white" stroke="white" stroke-width="0.75" stroke-miterlimit="10" stroke-linecap="round" stroke-linejoin="round"/>
<path d="M74.852 167.855H72.0928V175.296H74.852V167.855Z" fill="white" stroke="white" stroke-width="0.75" stroke-miterlimit="10" stroke-linecap="round" stroke-linejoin="round"/>
<rect x="137" y="85" width="67.5" height="48.11" rx="24.055" fill="#FF6D03"/>
<path d="M169.256 109.799L168.943 105.121C168.885 104.21 168.855 103.555 168.855 103.158C168.855 102.618 168.995 102.198 169.275 101.898C169.562 101.592 169.936 101.439 170.398 101.439C170.958 101.439 171.333 101.635 171.521 102.025C171.71 102.41 171.805 102.966 171.805 103.695C171.805 104.125 171.782 104.561 171.736 105.004L171.316 109.818C171.271 110.391 171.173 110.831 171.023 111.137C170.874 111.443 170.626 111.596 170.281 111.596C169.93 111.596 169.686 111.449 169.549 111.156C169.412 110.857 169.314 110.404 169.256 109.799ZM170.34 116.225C169.943 116.225 169.594 116.098 169.295 115.844C169.002 115.583 168.855 115.222 168.855 114.76C168.855 114.356 168.995 114.014 169.275 113.734C169.562 113.448 169.91 113.305 170.32 113.305C170.73 113.305 171.079 113.448 171.365 113.734C171.658 114.014 171.805 114.356 171.805 114.76C171.805 115.215 171.658 115.574 171.365 115.834C171.072 116.094 170.73 116.225 170.34 116.225Z" fill="#304D95"/>
</svg>
