<svg width="38" height="40" viewBox="0 0 38 40" fill="none" xmlns="http://www.w3.org/2000/svg">
<path d="M25.3692 22.3702C23.8623 24.4329 21.4186 27.4237 17.631 30.6552C12.7844 34.7461 3.98728 40.7278 1.0549 39.5246C-0.77783 38.7683 0.1589 35.3649 1.01418 32.2022C1.42145 30.6552 1.58436 30.7927 3.53928 26.2893C5.57565 21.5452 5.90147 20.2389 7.7342 18.1762C8.71166 17.0418 9.60767 16.0792 11.3182 15.0822C11.8069 14.8072 12.6622 14.2572 13.884 13.8103C14.2099 13.7071 18.4862 12.1602 21.5408 12.9165C24.8805 13.7415 27.1612 17.2824 25.8579 21.4421L25.3692 22.3702Z" fill="#FF6D03"/>
<g opacity="0.56">
<g opacity="0.56">
<path opacity="0.56" d="M18.8524 18.59C18.4452 18.2462 17.7121 17.6962 16.7346 17.2836C15.7572 16.8711 14.9019 16.7336 14.3724 16.6992" stroke="#603913" stroke-width="1.23009" stroke-miterlimit="10" stroke-linecap="round"/>
</g>
</g>
<g opacity="0.56">
<g opacity="0.56">
<path opacity="0.56" d="M16.2056 18.8637C16.0019 18.6919 15.6354 18.4168 15.1467 18.2106C14.6579 18.0043 14.2507 17.9355 13.9656 17.9355" stroke="#603913" stroke-width="1.23009" stroke-miterlimit="10" stroke-linecap="round"/>
</g>
</g>
<g opacity="0.56">
<g opacity="0.56">
<path opacity="0.56" d="M7.77473 36.0864C7.48964 35.7771 7.04164 35.3301 6.47145 34.952C5.90126 34.5395 5.41253 34.3676 5.12744 34.2988" stroke="#603913" stroke-width="1.23009" stroke-miterlimit="10" stroke-linecap="round"/>
</g>
</g>
<g opacity="0.56">
<g opacity="0.56">
<path opacity="0.56" d="M6.67546 36.7075C6.59401 36.5356 6.39037 36.1918 5.94238 35.9168C5.61656 35.7106 5.25002 35.6074 5.04639 35.6074" stroke="#603913" stroke-width="1.23009" stroke-miterlimit="10" stroke-linecap="round"/>
</g>
</g>
<path d="M23.6181 1.16044C24.3919 1.22919 25.0435 3.91063 24.7584 6.28268C24.4326 9.37665 22.5591 12.3331 21.7039 12.1956C20.8079 12.0237 20.9708 8.55159 21.378 6.2483C21.7853 4.25441 22.7628 1.12606 23.6181 1.16044Z" fill="#006F26"/>
<path d="M33.5143 0.334044C34.2474 0.574686 33.1478 3.80617 31.3965 6.48761C29.1158 9.95973 25.3689 12.9506 24.595 12.6068C23.8212 12.2286 26.2241 8.24086 28.0569 5.69692C29.7267 3.46239 32.6998 0.0590246 33.5143 0.334044Z" fill="#006F26"/>
<path d="M26.5096 14.0845C26.2653 13.6033 28.6682 12.3313 31.0304 11.7469C34.1257 10.9562 37.6689 11.1281 37.8319 11.6781C37.9948 12.2625 34.5737 13.2939 32.2115 13.7751C30.1344 14.1877 26.754 14.6002 26.5096 14.0845Z" fill="#006F26"/>
</svg>
