<svg width="24" height="24" viewBox="0 0 24 24" fill="none" xmlns="http://www.w3.org/2000/svg">
<path d="M12 16.5C14.4853 16.5 16.5 14.4853 16.5 12C16.5 9.51472 14.4853 7.5 12 7.5C9.51472 7.5 7.5 9.51472 7.5 12C7.5 14.4853 9.51472 16.5 12 16.5Z" stroke="#304D95" stroke-width="2" stroke-linecap="round" stroke-linejoin="round"/>
<path d="M11.5193 4.13943L9.75029 2.81306C9.65538 2.74166 9.54485 2.69384 9.42783 2.67353C9.3108 2.65323 9.19063 2.66103 9.07721 2.69628C8.52933 2.86785 7.99778 3.08777 7.48884 3.35346C7.38349 3.40872 7.29279 3.48824 7.22422 3.58547C7.15566 3.68269 7.1112 3.79483 7.09452 3.91262L6.78179 6.10177C6.66259 6.20743 6.54589 6.31733 6.43169 6.43147C6.31752 6.54563 6.2076 6.66237 6.10191 6.78166L6.10186 6.7817L3.9131 7.0947C3.7955 7.11133 3.68353 7.15567 3.58642 7.22406C3.48932 7.29245 3.40986 7.38294 3.35459 7.48807C3.08849 7.99679 2.86814 8.52816 2.69613 9.07591C2.66071 9.18948 2.65281 9.30985 2.67307 9.42708C2.69334 9.54431 2.7412 9.65504 2.81269 9.75013L4.13952 11.5192C4.12995 11.6782 4.12514 11.8384 4.12509 11.9999C4.12509 12.1614 4.1299 12.3216 4.13953 12.4807L4.13952 12.4808L2.81315 14.2498C2.74175 14.3447 2.69393 14.4552 2.67363 14.5723C2.65332 14.6893 2.66112 14.8095 2.69638 14.9229C2.86794 15.4708 3.08787 16.0023 3.35355 16.5112C3.40881 16.6166 3.48834 16.7073 3.58556 16.7759C3.68278 16.8444 3.79492 16.8889 3.91271 16.9056L6.10186 17.2183C6.20752 17.3375 6.31742 17.4542 6.43156 17.5684C6.54572 17.6826 6.66245 17.7925 6.78175 17.8982L6.78179 17.8982L7.09479 20.087C7.11142 20.2046 7.15575 20.3166 7.22415 20.4137C7.29254 20.5108 7.38303 20.5902 7.48816 20.6455C7.99688 20.9116 8.52825 21.1319 9.07599 21.304C9.18957 21.3394 9.30994 21.3473 9.42716 21.327C9.54439 21.3067 9.65512 21.2589 9.75021 21.1874L11.5193 19.8606C11.6783 19.8701 11.8385 19.875 12 19.875C12.1614 19.875 12.3217 19.8702 12.4808 19.8606L12.4809 19.8606L14.2499 21.1869C14.3448 21.2583 14.4553 21.3062 14.5723 21.3265C14.6894 21.3468 14.8095 21.339 14.923 21.3037C15.4708 21.1321 16.0024 20.9122 16.5113 20.6465C16.6167 20.5913 16.7074 20.5118 16.776 20.4145C16.8445 20.3173 16.889 20.2052 16.9057 20.0874L17.2184 17.8982C17.3376 17.7926 17.4543 17.6827 17.5685 17.5685C17.6827 17.4544 17.7926 17.3376 17.8983 17.2183L17.8983 17.2183L20.0871 16.9053C20.2047 16.8887 20.3167 16.8443 20.4138 16.7759C20.5109 16.7075 20.5903 16.6171 20.6456 16.5119C20.9117 16.0032 21.132 15.4718 21.304 14.9241C21.3395 14.8105 21.3474 14.6902 21.3271 14.5729C21.3068 14.4557 21.259 14.345 21.1875 14.2499L19.8607 12.4808C19.8702 12.3218 19.875 12.1616 19.8751 12.0001C19.8751 11.8386 19.8703 11.6784 19.8607 11.5193L19.8607 11.5192L21.187 9.7502C21.2584 9.65529 21.3063 9.54476 21.3266 9.42774C21.3469 9.31071 21.3391 9.19054 21.3038 9.07712C21.1322 8.52924 20.9123 7.99769 20.6466 7.48875C20.5914 7.3834 20.5118 7.2927 20.4146 7.22413C20.3174 7.15557 20.2053 7.11111 20.0875 7.09442L17.8983 6.7817C17.7927 6.6625 17.6828 6.5458 17.5686 6.4316C17.4545 6.31743 17.3377 6.20751 17.2184 6.10182L17.2184 6.10177L16.9054 3.91301C16.8888 3.79541 16.8444 3.68344 16.776 3.58633C16.7076 3.48923 16.6172 3.40976 16.512 3.35449C16.0033 3.0884 15.4719 2.86805 14.9242 2.69604C14.8106 2.66062 14.6902 2.65272 14.573 2.67298C14.4558 2.69325 14.3451 2.7411 14.25 2.8126L12.4809 4.13943C12.3219 4.12985 12.1616 4.12504 12.0002 4.125C11.8387 4.125 11.6785 4.12981 11.5194 4.13944L11.5193 4.13943Z" stroke="#304D95" stroke-width="2" stroke-linecap="round" stroke-linejoin="round"/>
</svg>
