<svg width="24" height="25" viewBox="0 0 24 25" fill="none" xmlns="http://www.w3.org/2000/svg">
<path d="M13.875 16.6245L3.75 16.6245" stroke="#666666" stroke-width="2" stroke-linecap="round" stroke-linejoin="round"/>
<path d="M20.25 16.6245L17.625 16.6245" stroke="#666666" stroke-width="2" stroke-linecap="round" stroke-linejoin="round"/>
<path d="M15.75 18.4995C16.7855 18.4995 17.625 17.66 17.625 16.6245C17.625 15.589 16.7855 14.7495 15.75 14.7495C14.7145 14.7495 13.875 15.589 13.875 16.6245C13.875 17.66 14.7145 18.4995 15.75 18.4995Z" stroke="#666666" stroke-width="2" stroke-linecap="round" stroke-linejoin="round"/>
<path d="M7.875 8.37434L3.75 8.37427" stroke="#666666" stroke-width="2" stroke-linecap="round" stroke-linejoin="round"/>
<path d="M20.25 8.37427L11.625 8.37434" stroke="#666666" stroke-width="2" stroke-linecap="round" stroke-linejoin="round"/>
<path d="M9.75 10.2495C10.7855 10.2495 11.625 9.41005 11.625 8.37451C11.625 7.33898 10.7855 6.49951 9.75 6.49951C8.71447 6.49951 7.875 7.33898 7.875 8.37451C7.875 9.41005 8.71447 10.2495 9.75 10.2495Z" stroke="#666666" stroke-width="2" stroke-linecap="round" stroke-linejoin="round"/>
</svg>
