<svg width="23" height="23" viewBox="0 0 23 23" fill="none" xmlns="http://www.w3.org/2000/svg">
<path d="M17.9688 6.46875C18.7627 6.46875 19.4062 5.82516 19.4062 5.03125C19.4062 4.23734 18.7627 3.59375 17.9688 3.59375C17.1748 3.59375 16.5312 4.23734 16.5312 5.03125C16.5312 5.82516 17.1748 6.46875 17.9688 6.46875Z" stroke="#112577" stroke-width="1.5" stroke-linecap="round" stroke-linejoin="round"/>
<path d="M17.9688 3.59375V2.51562" stroke="#112577" stroke-width="1.5" stroke-linecap="round" stroke-linejoin="round"/>
<path d="M16.7237 4.3125L15.79 3.77344" stroke="#112577" stroke-width="1.5" stroke-linecap="round" stroke-linejoin="round"/>
<path d="M16.7237 5.75L15.79 6.28906" stroke="#112577" stroke-width="1.5" stroke-linecap="round" stroke-linejoin="round"/>
<path d="M17.9688 6.46875V7.54688" stroke="#112577" stroke-width="1.5" stroke-linecap="round" stroke-linejoin="round"/>
<path d="M19.2136 5.75L20.1473 6.28906" stroke="#112577" stroke-width="1.5" stroke-linecap="round" stroke-linejoin="round"/>
<path d="M19.2136 4.3125L20.1473 3.77344" stroke="#112577" stroke-width="1.5" stroke-linecap="round" stroke-linejoin="round"/>
<path d="M2.78418 19.4054C3.66785 17.8759 4.93846 16.6058 6.46839 15.7228C7.99831 14.8398 9.73366 14.375 11.5001 14.375C13.2666 14.375 15.0019 14.8399 16.5318 15.7229C18.0617 16.6059 19.3323 17.876 20.2159 19.4056" stroke="#112577" stroke-width="1.5" stroke-linecap="round" stroke-linejoin="round"/>
<path d="M16.7672 10.9348C16.337 11.9138 15.6422 12.7533 14.7611 13.3591C13.8799 13.9648 12.8472 14.3127 11.7791 14.3637C10.711 14.4146 9.64991 14.1666 8.71505 13.6476C7.7802 13.1285 7.00868 12.3589 6.48725 11.4254C5.96582 10.4918 5.71515 9.43131 5.76343 8.3631C5.81171 7.2949 6.15702 6.26134 6.76053 5.37863C7.36405 4.49593 8.20184 3.79909 9.1797 3.36645C10.1576 2.93382 11.2367 2.78255 12.2959 2.92965" stroke="#112577" stroke-width="1.5" stroke-linecap="round" stroke-linejoin="round"/>
</svg>
