<svg width="24" height="25" viewBox="0 0 24 25" fill="none" xmlns="http://www.w3.org/2000/svg">
<path d="M12 15.4141C14.0711 15.4141 15.75 13.7351 15.75 11.6641C15.75 9.59299 14.0711 7.91406 12 7.91406C9.92893 7.91406 8.25 9.59299 8.25 11.6641C8.25 13.7351 9.92893 15.4141 12 15.4141Z" stroke="#304D95" stroke-width="2" stroke-miterlimit="10"/>
<path d="M5.9812 19.1054C6.54615 17.9946 7.40744 17.0619 8.46973 16.4104C9.53202 15.7589 10.7539 15.4141 12 15.4141C13.2462 15.4141 14.468 15.7589 15.5303 16.4104C16.5926 17.0619 17.4539 17.9946 18.0189 19.1054" stroke="#304D95" stroke-width="2" stroke-linecap="round" stroke-linejoin="round"/>
<path d="M16.5 5.66406H21" stroke="#304D95" stroke-width="2" stroke-linecap="round" stroke-linejoin="round"/>
<path d="M18.75 3.41406V7.91406" stroke="#304D95" stroke-width="2" stroke-linecap="round" stroke-linejoin="round"/>
<path d="M20.8885 10.9945C21.1865 12.87 20.8829 14.7917 20.0213 16.4841C19.1597 18.1764 17.7844 19.5525 16.0926 20.415C14.4007 21.2775 12.4792 21.5822 10.6035 21.2853C8.72779 20.9885 6.99426 20.1053 5.65144 18.7625C4.30862 17.4197 3.42547 15.6861 3.12861 13.8104C2.83175 11.9348 3.13642 10.0132 3.99895 8.32138C4.86147 6.62952 6.23756 5.25421 7.9299 4.39264C9.62225 3.53107 11.5439 3.22748 13.4195 3.5254" stroke="#304D95" stroke-width="2" stroke-linecap="round" stroke-linejoin="round"/>
</svg>
