<svg width="24" height="25" viewBox="0 0 24 25" fill="none" xmlns="http://www.w3.org/2000/svg">
<path d="M8.25003 15.5C10.9424 15.5 13.125 13.3174 13.125 10.625C13.125 7.93261 10.9424 5.75 8.25003 5.75C5.55764 5.75 3.37503 7.93261 3.37503 10.625C3.37503 13.3174 5.55764 15.5 8.25003 15.5Z" stroke="#333333" stroke-width="2" stroke-miterlimit="10"/>
<path d="M14.5699 5.93173C15.2404 5.74281 15.9436 5.69978 16.6322 5.80552C17.3207 5.91126 17.9786 6.16333 18.5616 6.54475C19.1445 6.92616 19.6389 7.42807 20.0115 8.01666C20.3842 8.60525 20.6263 9.26685 20.7217 9.95692C20.8171 10.647 20.7635 11.3495 20.5646 12.0171C20.3656 12.6847 20.0259 13.3019 19.5683 13.8272C19.1107 14.3524 18.5459 14.7735 17.9118 15.0621C17.2778 15.3507 16.5893 15.5001 15.8927 15.5001" stroke="#333333" stroke-width="2" stroke-linecap="round" stroke-linejoin="round"/>
<path d="M1.49963 19.0059C2.26101 17.9229 3.27178 17.039 4.44662 16.4288C5.62145 15.8186 6.92586 15.5001 8.24971 15.5C9.57356 15.4999 10.878 15.8184 12.0529 16.4285C13.2278 17.0386 14.2386 17.9225 15.0001 19.0054" stroke="#333333" stroke-width="2" stroke-linecap="round" stroke-linejoin="round"/>
<path d="M15.8926 15.5C17.2166 15.499 18.5213 15.8171 19.6963 16.4273C20.8713 17.0375 21.8819 17.9218 22.6427 19.0054" stroke="#333333" stroke-width="2" stroke-linecap="round" stroke-linejoin="round"/>
</svg>
