<svg width="77" height="28" viewBox="0 0 77 28" fill="none" xmlns="http://www.w3.org/2000/svg">
<path d="M54.7901 11.7762C54.7639 13.8574 56.6342 15.0187 58.0431 15.7093C59.4907 16.4177 59.9769 16.8721 59.9712 17.5057C59.9604 18.4752 58.8165 18.9032 57.7461 18.9198C55.8786 18.9489 54.7928 18.4127 53.9296 18.0072L53.2568 21.1733C54.1229 21.5746 55.7266 21.9247 57.3896 21.9401C61.2933 21.9401 63.8472 20.002 63.8611 16.9971C63.8763 13.1835 58.6164 12.9724 58.6523 11.2678C58.6647 10.751 59.1551 10.1994 60.2296 10.0592C60.7615 9.98832 62.2297 9.9341 63.8943 10.7051L64.5477 7.64181C63.6525 7.31398 62.5019 7.00006 61.0694 7.00006C57.3952 7.00006 54.8109 8.96452 54.7901 11.7762ZM70.8256 7.26392C70.1128 7.26392 69.5121 7.68211 69.244 8.32386L63.6677 21.7151H67.5686L68.3448 19.5574H73.1116L73.5619 21.7151H77L73.9998 7.26392H70.8256ZM71.3713 11.1677L72.497 16.5943H69.414L71.3713 11.1677ZM50.0605 7.2641L46.9857 21.7149H50.7029L53.7763 7.26374H50.0605V7.2641ZM44.5616 7.26374L40.6925 17.0999L39.1274 8.73663C38.9438 7.80302 38.2186 7.26392 37.4132 7.26392H31.0886L31 7.68356C32.2984 7.96693 33.7737 8.42398 34.6674 8.91302C35.2144 9.21175 35.3704 9.47289 35.55 10.1828L38.5144 21.7151H42.4425L48.4649 7.26392H44.5616" fill="url(#paint0_linear_820_8106)"/>
<path d="M8.16667 22.1667C12.677 22.1667 16.3333 18.5104 16.3333 14C16.3333 9.48972 12.677 5.83337 8.16667 5.83337C3.65634 5.83337 0 9.48972 0 14C0 18.5104 3.65634 22.1667 8.16667 22.1667Z" fill="#EA001B"/>
<path d="M19.8333 22.1667C24.3436 22.1667 28 18.5104 28 14C28 9.48972 24.3436 5.83337 19.8333 5.83337C15.323 5.83337 11.6666 9.48972 11.6666 14C11.6666 18.5104 15.323 22.1667 19.8333 22.1667Z" fill="#FFA200" fill-opacity="0.8"/>
<defs>
<linearGradient id="paint0_linear_820_8106" x1="52.148" y1="22.2398" x2="52.583" y2="6.8963" gradientUnits="userSpaceOnUse">
<stop stop-color="#222357"/>
<stop offset="1" stop-color="#254AA5"/>
</linearGradient>
</defs>
</svg>
