<svg width="48" height="48" viewBox="0 0 48 48" fill="none" xmlns="http://www.w3.org/2000/svg">
<path d="M7.5 12V36C7.5 36.7956 7.81607 37.5587 8.37868 38.1213C8.94129 38.6839 9.70435 39 10.5 39H40.5C40.8978 39 41.2794 38.842 41.5607 38.5607C41.842 38.2794 42 37.8978 42 37.5V16.5C42 16.1022 41.842 15.7206 41.5607 15.4393C41.2794 15.158 40.8978 15 40.5 15H10.5C9.70435 15 8.94129 14.6839 8.37868 14.1213C7.81607 13.5587 7.5 12.7956 7.5 12ZM7.5 12C7.5 11.2044 7.81607 10.4413 8.37868 9.87868C8.94129 9.31607 9.70435 9 10.5 9H36" stroke="#304D95" stroke-width="2" stroke-linecap="round" stroke-linejoin="round"/>
<path d="M33.75 29.25C34.9926 29.25 36 28.2426 36 27C36 25.7574 34.9926 24.75 33.75 24.75C32.5074 24.75 31.5 25.7574 31.5 27C31.5 28.2426 32.5074 29.25 33.75 29.25Z" fill="#304D95"/>
</svg>
