<svg width="194" height="43" viewBox="0 0 194 43" fill="none" xmlns="http://www.w3.org/2000/svg">
<path d="M6.0912 14.0509V36.1781H18.6465C19.641 36.1781 20.3869 36.4267 20.8841 36.924C21.3814 37.4212 21.63 38.0427 21.63 38.7886C21.63 39.5345 21.3814 40.156 20.8841 40.6533C20.3869 41.1505 19.641 41.3991 18.5222 41.3991H3.72931C2.36189 41.3991 1.36741 41.1505 0.870172 40.529C0.248621 39.9074 0 38.9129 0 37.6698V14.0509C0 12.8078 0.248621 11.8133 0.870172 11.1918C1.49172 10.5702 2.11327 10.1973 3.10775 10.1973C3.97793 10.1973 4.8481 10.4459 5.34534 11.0674C5.84258 11.9376 6.0912 12.8078 6.0912 14.0509Z" fill="white"/>
<path d="M37.5415 38.664C36.174 39.6585 34.8066 40.5287 33.5635 41.0259C32.3204 41.5232 30.8287 41.7718 29.2127 41.7718C27.721 41.7718 26.4779 41.5232 25.3591 40.9016C24.2403 40.2801 23.3701 39.5342 22.8729 38.5397C22.2513 37.5453 22.0027 36.5508 22.0027 35.3077C22.0027 33.816 22.4999 32.4485 23.4944 31.3297C24.4889 30.2109 25.8563 29.4651 27.5966 29.0922C27.9696 28.9679 28.8397 28.8435 30.3315 28.4706C31.6989 28.222 32.942 27.9734 33.9365 27.7247C34.9309 27.4761 36.0497 27.2275 37.2928 26.8546C37.1685 25.3629 36.9199 24.2441 36.4227 23.6225C35.9254 22.8767 34.8066 22.628 33.0663 22.628C31.5746 22.628 30.5801 22.8766 29.8342 23.2496C29.0884 23.6225 28.4668 24.2441 27.9696 25.1142C27.4723 25.8601 27.0994 26.4816 26.8508 26.7303C26.6022 26.9789 26.2292 27.1032 25.4834 27.1032C24.8618 27.1032 24.2403 26.8546 23.8673 26.4816C23.3701 26.1087 23.1215 25.6115 23.1215 24.8656C23.1215 23.8711 23.4944 22.8766 24.2403 22.0065C24.9861 21.012 26.1049 20.2661 27.5966 19.6446C29.0884 19.023 30.953 18.7744 33.1906 18.7744C35.6768 18.7744 37.6658 19.023 39.0332 19.6446C40.4006 20.2661 41.5194 21.1363 42.0166 22.3794C42.6382 23.6225 42.8868 25.3629 42.8868 27.4761C42.8868 28.8435 42.8868 29.9623 42.8868 30.8325C42.8868 31.7027 42.8868 32.8215 42.8868 33.9403C42.8868 35.059 43.0111 36.1778 43.384 37.2966C43.757 38.4154 43.8813 39.1613 43.8813 39.5342C43.8813 40.1558 43.6327 40.653 43.0111 41.1502C42.3896 41.6475 41.768 41.7718 41.0221 41.7718C40.4006 41.7718 39.9034 41.5232 39.2818 40.9016C38.7846 40.4044 38.163 39.6585 37.5415 38.664ZM37.1685 30.4596C36.2984 30.7082 35.1796 31.0811 33.5635 31.454C31.9475 31.827 30.8287 32.0756 30.3315 32.1999C29.7099 32.3242 29.0884 32.6972 28.5911 33.1944C28.0939 33.6916 27.721 34.3132 27.721 35.1834C27.721 36.0535 28.0939 36.7994 28.7154 37.4209C29.337 38.0425 30.2072 38.2911 31.326 38.2911C32.4447 38.2911 33.4392 38.0425 34.4337 37.5452C35.4282 37.048 36.0497 36.4265 36.547 35.6806C37.0442 34.8104 37.2928 33.443 37.2928 31.454V30.4596H37.1685Z" fill="white"/>
<path d="M50.9674 13.5534V22.2551C52.0862 21.1363 53.0806 20.2661 54.1994 19.7689C55.3182 19.1473 56.6856 18.8987 58.3017 18.8987C60.1663 18.8987 61.7824 19.3959 63.2741 20.2661C64.6415 21.1363 65.7603 22.5037 66.6304 24.1197C67.3763 25.8601 67.7492 27.849 67.7492 30.2109C67.7492 31.9513 67.5006 33.443 67.1277 34.9347C66.6305 36.4264 66.0089 37.6695 65.263 38.664C64.3929 39.6585 63.3984 40.5287 62.2796 41.1502C61.0365 41.7718 59.7934 42.0204 58.3017 42.0204C57.4315 42.0204 56.5613 41.8961 55.8155 41.7718C55.0696 41.5231 54.4481 41.2745 53.8265 40.9016C53.3293 40.5287 52.832 40.1557 52.4591 39.9071C52.2105 39.2856 51.5889 38.7883 50.9674 38.0425V38.5397C50.9674 39.6585 50.7187 40.4044 50.2215 40.9016C49.7243 41.5232 49.1027 41.7718 48.3569 41.7718C47.611 41.7718 46.8651 41.5232 46.4922 40.9016C45.995 40.4044 45.7463 39.5342 45.7463 38.5397V13.802C45.7463 12.6832 45.995 11.813 46.4922 11.1915C46.9894 10.5699 47.611 10.3213 48.4812 10.3213C49.3513 10.3213 49.9729 10.5699 50.4701 11.1915C50.8431 11.813 50.9674 12.5589 50.9674 13.5534ZM51.3403 30.4595C51.3403 32.6971 51.8375 34.4375 52.832 35.6806C53.8265 36.9237 55.1939 37.5452 56.9343 37.5452C58.3017 37.5452 59.5448 36.9237 60.6636 35.6806C61.658 34.4375 62.1553 32.6971 62.1553 30.3352C62.1553 28.8435 61.9067 27.6004 61.5337 26.4816C61.1608 25.3628 60.5393 24.617 59.6691 23.9954C58.9232 23.3739 57.9287 23.1252 56.9343 23.1252C55.8155 23.1252 54.9453 23.3739 54.0751 23.9954C53.205 24.617 52.5834 25.4871 52.0862 26.6059C51.5889 27.6004 51.3403 28.8435 51.3403 30.4595Z" fill="white"/>
<path d="M74.9588 13.5534V22.2551C76.0776 21.1363 77.0721 20.2661 78.1909 19.7689C79.3097 19.1473 80.6771 18.8987 82.2931 18.8987C84.1578 18.8987 85.7738 19.3959 87.2655 20.2661C88.6329 21.1363 89.7517 22.5037 90.6219 24.1197C91.3678 25.8601 91.7407 27.849 91.7407 30.2109C91.7407 31.9513 91.4921 33.443 91.1192 34.9347C90.7462 36.4264 90.0004 37.6695 89.2545 38.664C88.3843 39.6585 87.3898 40.5287 86.2711 41.1502C85.0279 41.7718 83.7848 42.0204 82.4174 42.0204C81.5473 42.0204 80.6771 41.8961 79.9312 41.7718C79.1854 41.5231 78.5638 41.2745 77.9423 40.9016C77.445 40.5287 76.9478 40.1557 76.5749 39.9071C76.2019 39.5342 75.7047 39.0369 75.0831 38.2911V38.7883C75.0831 39.9071 74.8345 40.653 74.3373 41.1502C73.84 41.6475 73.2185 42.0204 72.3483 42.0204C71.6024 42.0204 70.8566 41.7718 70.4837 41.1502C69.9864 40.653 69.7378 39.7828 69.7378 38.7883V13.802C69.7378 12.6832 69.9864 11.813 70.4837 11.1915C70.9809 10.5699 71.6025 10.3213 72.4726 10.3213C73.3428 10.3213 73.9643 10.5699 74.4616 11.1915C74.7102 11.813 74.9588 12.5589 74.9588 13.5534ZM75.2074 30.4595C75.2074 32.6971 75.7047 34.4375 76.6992 35.6806C77.6936 36.9237 79.0611 37.5452 80.8014 37.5452C82.1688 37.5452 83.4119 36.9237 84.5307 35.6806C85.5252 34.4375 86.0224 32.6971 86.0224 30.3352C86.0224 28.8435 85.7738 27.6004 85.4009 26.4816C85.0279 25.3628 84.4064 24.617 83.5362 23.9954C82.7904 23.3739 81.7959 23.1252 80.8014 23.1252C79.6826 23.1252 78.8124 23.3739 77.9423 23.9954C77.0721 24.617 76.4505 25.4871 75.9533 26.6059C75.4561 27.6004 75.2074 28.8435 75.2074 30.4595Z" fill="white"/>
<path d="M96.9619 18.7744C96.0917 18.7744 95.4702 19.023 94.9729 19.6446C94.4757 20.2661 94.2271 21.012 94.2271 22.1308V38.2911C94.2271 39.4099 94.4757 40.2801 94.9729 40.9016C95.4702 41.5232 96.216 41.7718 96.9619 41.7718C97.832 41.7718 98.4536 41.5232 99.0751 40.9016C99.5724 40.2801 99.9453 39.4099 99.9453 38.2911V22.0065C99.9453 21.012 99.6967 20.2661 99.0751 19.6446C98.4536 19.023 97.7077 18.7744 96.9619 18.7744Z" fill="white"/>
<path d="M103.799 19.2719H104.42V15.9155C104.42 15.0453 104.42 14.2994 104.545 13.8022C104.545 13.305 104.669 12.8077 104.918 12.4348C105.166 12.0619 105.415 11.6889 105.912 11.4403C106.285 11.1917 106.782 11.0674 107.28 11.0674C108.025 11.0674 108.647 11.316 109.269 11.9376C109.641 12.3105 109.89 12.6834 110.014 13.305C110.139 13.8022 110.139 14.5481 110.139 15.5425V19.3962H112.252C112.998 19.3962 113.619 19.6448 114.117 20.0177C114.49 20.3906 114.738 20.8879 114.738 21.5094C114.738 22.2553 114.49 22.7525 113.868 23.1255C113.246 23.3741 112.376 23.6227 111.257 23.6227H110.263V34.0648C110.263 34.9349 110.263 35.6808 110.387 36.0537C110.512 36.551 110.636 36.9239 110.885 37.1725C111.133 37.4211 111.63 37.6698 112.252 37.6698C112.625 37.6698 112.998 37.6698 113.619 37.5454C114.241 37.4211 114.614 37.4211 114.987 37.4211C115.484 37.4211 115.857 37.5455 116.23 37.9184C116.603 38.2913 116.727 38.7885 116.727 39.2858C116.727 40.156 116.23 40.9018 115.235 41.3991C114.241 41.8963 112.749 42.1449 110.885 42.1449C109.144 42.1449 107.777 41.8963 106.907 41.2748C106.036 40.6532 105.415 39.9073 105.166 38.7885C104.918 37.7941 104.793 36.3023 104.793 34.562V23.6227H104.047C103.177 23.6227 102.556 23.3741 102.183 23.0012C101.81 22.6282 101.561 22.131 101.561 21.5094C101.561 20.8879 101.81 20.3906 102.183 20.0177C102.307 19.5205 102.929 19.2719 103.799 19.2719Z" fill="white"/>
<path d="M83.2877 6.21879C83.9092 5.22431 87.3899 6.09448 90.0004 7.95914C93.3568 10.321 95.4701 14.5476 94.7242 15.5421C93.9784 16.5365 90.0004 14.1746 87.6386 12.1857C85.6496 10.5696 82.6661 7.33758 83.2877 6.21879Z" fill="white"/>
<path d="M95.4702 0.0034763C96.2161 -0.120834 97.3349 3.11123 97.7078 6.09468C98.0807 10.0726 97.0863 14.2991 96.3404 14.2991C95.4702 14.2991 94.8487 9.94829 94.7244 6.96485C94.6001 4.35433 94.7244 0.127787 95.4702 0.0034763Z" fill="white"/>
<path d="M104.794 4.35419C104.048 3.85695 101.437 5.84591 100.07 8.2078C98.2051 11.1912 97.8322 15.1692 98.8266 15.5421C99.8211 16.0393 102.183 12.8073 103.302 10.4454C104.421 8.45643 105.664 4.97574 104.794 4.35419Z" fill="white"/>
<rect x="132" y="14" width="62" height="24" rx="5" fill="#304D95"/>
<path d="M148.528 28.2H144.628L143.884 30H141.892L145.636 21.6H147.556L151.312 30H149.272L148.528 28.2ZM147.916 26.724L146.584 23.508L145.252 26.724H147.916ZM158.569 21.096V30H156.781V29.256C156.317 29.816 155.645 30.096 154.765 30.096C154.157 30.096 153.605 29.96 153.109 29.688C152.621 29.416 152.237 29.028 151.957 28.524C151.677 28.02 151.537 27.436 151.537 26.772C151.537 26.108 151.677 25.524 151.957 25.02C152.237 24.516 152.621 24.128 153.109 23.856C153.605 23.584 154.157 23.448 154.765 23.448C155.589 23.448 156.233 23.708 156.697 24.228V21.096H158.569ZM155.089 28.56C155.561 28.56 155.953 28.4 156.265 28.08C156.577 27.752 156.733 27.316 156.733 26.772C156.733 26.228 156.577 25.796 156.265 25.476C155.953 25.148 155.561 24.984 155.089 24.984C154.609 24.984 154.213 25.148 153.901 25.476C153.589 25.796 153.433 26.228 153.433 26.772C153.433 27.316 153.589 27.752 153.901 28.08C154.213 28.4 154.609 28.56 155.089 28.56ZM168.57 23.448C169.378 23.448 170.018 23.688 170.49 24.168C170.97 24.64 171.21 25.352 171.21 26.304V30H169.338V26.592C169.338 26.08 169.23 25.7 169.014 25.452C168.806 25.196 168.506 25.068 168.114 25.068C167.674 25.068 167.326 25.212 167.07 25.5C166.814 25.78 166.686 26.2 166.686 26.76V30H164.814V26.592C164.814 25.576 164.406 25.068 163.59 25.068C163.158 25.068 162.814 25.212 162.558 25.5C162.302 25.78 162.174 26.2 162.174 26.76V30H160.302V23.544H162.09V24.288C162.33 24.016 162.622 23.808 162.965 23.664C163.318 23.52 163.702 23.448 164.118 23.448C164.574 23.448 164.986 23.54 165.354 23.724C165.722 23.9 166.018 24.16 166.242 24.504C166.506 24.168 166.838 23.908 167.238 23.724C167.646 23.54 168.09 23.448 168.57 23.448ZM172.887 23.544H174.759V30H172.887V23.544ZM173.823 22.644C173.479 22.644 173.199 22.544 172.983 22.344C172.767 22.144 172.659 21.896 172.659 21.6C172.659 21.304 172.767 21.056 172.983 20.856C173.199 20.656 173.479 20.556 173.823 20.556C174.167 20.556 174.447 20.652 174.663 20.844C174.879 21.036 174.987 21.276 174.987 21.564C174.987 21.876 174.879 22.136 174.663 22.344C174.447 22.544 174.167 22.644 173.823 22.644ZM180.421 23.448C181.221 23.448 181.865 23.688 182.353 24.168C182.849 24.648 183.097 25.36 183.097 26.304V30H181.225V26.592C181.225 26.08 181.113 25.7 180.889 25.452C180.665 25.196 180.341 25.068 179.917 25.068C179.445 25.068 179.069 25.216 178.789 25.512C178.509 25.8 178.369 26.232 178.369 26.808V30H176.497V23.544H178.285V24.3C178.533 24.028 178.841 23.82 179.209 23.676C179.577 23.524 179.981 23.448 180.421 23.448Z" fill="#FFD834"/>
</svg>
